<?xml version="1.0" encoding="utf-8"?>
<!-- Generator: Adobe Illustrator 25.1.0, SVG Export Plug-In . SVG Version: 6.00 Build 0)  -->
<svg version="1.1" id="Layer_1" xmlns="http://www.w3.org/2000/svg" xmlns:xlink="http://www.w3.org/1999/xlink" x="0px" y="0px"
	 viewBox="0 0 128.9 128.9" style="enable-background:new 0 0 128.9 128.9;" xml:space="preserve">
<style type="text/css">
	.st0{fill:#282829;}
</style>
<g>
	<path class="st0" d="M64.4,128.9C28.9,128.9,0,100,0,64.4S28.9,0,64.4,0s64.4,28.9,64.4,64.4S100,128.9,64.4,128.9z M64.4,3.4
		C30.8,3.4,3.4,30.8,3.4,64.4c0,33.7,27.4,61.1,61.1,61.1s61.1-27.4,61.1-61.1C125.5,30.8,98.1,3.4,64.4,3.4z"/>
	<polygon class="st0" points="73.9,96.2 58.2,101.7 58.2,96.2 58.2,90.8 	"/>
	<path class="st0" d="M62.8,40.3H66l-1.5-3.6h-0.1L62.8,40.3z M63.5,34h1.9l4.7,10.2h-2.5L66.7,42H62l-0.9,2.2h-2.4L63.5,34z"/>
	<polygon class="st0" points="24.8,62.9 24.8,52.7 27.1,52.7 27.1,56.5 31.9,56.5 31.9,52.7 34.1,52.7 34.1,62.9 31.9,62.9 
		31.9,58.4 27.1,58.4 27.1,62.9 	"/>
	<rect x="40.5" y="52.7" class="st0" width="2.2" height="10.2"/>
	<path class="st0" d="M53.8,61c1.2,0,1.7-0.3,2.2-0.7c0.6-0.6,0.9-1.4,0.9-2.4c0-1-0.3-1.8-0.9-2.4c-0.5-0.5-1.1-0.8-2.3-0.8h-2.5
		V61H53.8z M49,62.9V52.7h4.8c1.9,0,3.1,0.5,4,1.5c0.9,0.9,1.4,2.2,1.4,3.6c0,1.5-0.5,2.8-1.5,3.8c-0.9,0.8-2,1.3-3.9,1.3H49z"/>
	<path class="st0" d="M69.5,61c1.2,0,1.7-0.3,2.2-0.7c0.6-0.6,0.9-1.4,0.9-2.4c0-1-0.3-1.8-0.9-2.4c-0.5-0.5-1.1-0.8-2.3-0.8H67V61
		H69.5z M64.7,62.9V52.7h4.8c1.9,0,3.1,0.5,4,1.5c0.9,0.9,1.4,2.2,1.4,3.6c0,1.5-0.5,2.8-1.5,3.8c-0.9,0.8-2,1.3-3.9,1.3H64.7z"/>
	<polygon class="st0" points="86.4,58.6 82.7,58.6 82.7,61 89.3,61 89.3,62.9 80.4,62.9 80.4,52.7 88.9,52.7 88.9,54.7 82.7,54.7 
		82.7,56.6 86.4,56.6 	"/>
	<polygon class="st0" points="104,52.7 104,62.9 102.1,62.9 96.9,56.6 96.9,56.6 96.9,62.9 94.7,62.9 94.7,52.7 96.6,52.7 101.8,59 
		101.8,59 101.8,52.7 	"/>
	<path class="st0" d="M52.2,74.4c-0.9-0.8-2.3-1.3-3.3-1.3c-2,0-3.3,1.6-3.3,3.5c0,1.8,1.2,3.5,3.5,3.5c0.9,0,2-0.2,2.6-0.7v-1.7
		h-3.1v-1.8h5.2v4.6c-1.3,1-3.2,1.6-4.8,1.6c-3.3,0-5.7-2.4-5.7-5.4c0-3,2.5-5.4,5.6-5.4c1.6,0,3.4,0.6,4.8,1.8L52.2,74.4z"/>
	<polygon class="st0" points="65.7,77.3 61.9,77.3 61.9,79.7 68.5,79.7 68.5,81.6 59.7,81.6 59.7,71.5 68.2,71.5 68.2,73.4 
		61.9,73.4 61.9,75.4 65.7,75.4 	"/>
	<polygon class="st0" points="82.6,81.6 82.6,75.7 82.5,75.7 79.6,80.5 79,80.5 76.2,75.7 76.1,75.7 76.1,81.6 73.9,81.6 73.9,71.5 
		76,71.5 79.4,77 79.4,77 82.7,71.5 84.8,71.5 84.8,81.6 	"/>
</g>
</svg>
