<?xml version="1.0" encoding="utf-8"?>
<!-- Generator: Adobe Illustrator 25.1.0, SVG Export Plug-In . SVG Version: 6.00 Build 0)  -->
<svg version="1.1" id="Layer_1" xmlns="http://www.w3.org/2000/svg" xmlns:xlink="http://www.w3.org/1999/xlink" x="0px" y="0px"
	 viewBox="0 0 223.4 221.5" style="enable-background:new 0 0 223.4 221.5;" xml:space="preserve">
<style type="text/css">
	.st0{fill:#282829;}
</style>
<g>
	<polygon class="st0" points="61.8,102.1 92.4,91.5 61.8,81 61.8,91.5 	"/>
	<g>
		<path class="st0" d="M14.6,136.4l4.7-1.1l-1.7-7.2c-0.2-0.9-0.6-1.5-1.2-1.9c-0.5-0.3-1.2-0.4-1.8-0.3c-0.6,0.1-1.1,0.5-1.4,1
			c-0.4,0.6-0.5,1.4-0.3,2.2L14.6,136.4z M7.4,138.1l4.1-0.9l-1.5-6.6c-0.2-0.8-0.5-1.3-1-1.7c-0.5-0.3-1.1-0.4-1.7-0.3
			c-0.5,0.1-0.9,0.5-1.2,0.9c-0.3,0.5-0.4,1.1-0.2,2L7.4,138.1z M23.6,138.7L5,143l-2.5-11.2c-0.5-2.3-0.2-4.1,0.7-5.4
			c0.6-0.9,1.5-1.6,2.5-1.8c1.6-0.4,3.2,0.3,4.3,1.5c0.2-2.3,1.7-3.9,3.9-4.4c1.5-0.3,3-0.1,4.4,0.8c1.3,0.9,2.3,2.2,2.8,4.7
			L23.6,138.7z"/>
	</g>
	<polygon class="st0" points="0,107.5 0,107.5 19,109.1 20.4,92.5 16.8,92.2 15.8,104.6 11.3,104.2 11.8,97.2 8.3,96.9 7.7,103.9 
		4,103.6 4.9,91.9 1.3,91.6 	"/>
	<polygon class="st0" points="12.1,58.6 29.8,65.9 28.4,69.3 13.7,73.7 13.7,73.7 24.6,78.3 23,82.2 5.4,74.8 6.8,71.5 21.5,67.1 
		21.5,67 10.5,62.5 	"/>
	<g>
		<path class="st0" d="M40.2,46.5c2.4-2.7,2.1-6.9-0.6-9.2c-2.7-2.3-6.7-2.1-9.2,0.6c-2.4,2.7-2.1,6.7,0.6,9.1
			C33.7,49.3,37.8,49.2,40.2,46.5 M27.7,35.4c4-4.5,10.6-5.2,14.8-1.5c4.3,3.8,4.4,10.4,0.4,14.9c-4,4.5-10.5,5.1-14.8,1.3
			C23.9,46.5,23.6,40,27.7,35.4"/>
	</g>
	<polygon class="st0" points="64,8.4 73.5,25 70.3,26.8 56,21.4 56,21.4 61.9,31.6 58.2,33.7 48.7,17.1 51.9,15.3 66.2,20.8 
		66.2,20.8 60.4,10.5 	"/>
	<path class="st0" d="M90,5.3l0.2,0l4.2,6l-5.8,1.2L90,5.3z M91,0l-3.5,0.7l-4.8,20.5l4.3-0.9l0.9-4.3l8.7-1.8l2.5,3.6l4.5-0.9L91,0
		z"/>
	<g>
		<path class="st0" d="M143.8,7.8c-0.9-1.1-2.9-2.9-6-3.6c-1.8-0.5-3.7-0.2-4.1,1.4c-0.4,1.6,2,2.4,4.3,3.2c3.3,1.1,8.5,2.8,7.2,7.9
			c-1.2,4.6-5.4,5.4-10,4.2c-4.8-1.2-7.5-3.9-9.2-6.3l3-2.2c1.2,1.6,3.4,4.2,7.1,5.1c2.4,0.6,4.5,0.2,4.9-1.6
			c0.5-1.8-1.3-2.7-4.1-3.6c-4-1.3-8.6-3-7.4-7.7c1.1-4.5,5.7-4.8,9.1-3.9c3.9,1,6.8,3.2,8.1,4.7L143.8,7.8z"/>
	</g>
	<polygon class="st0" points="153.6,26.8 163.8,10.6 167.3,12.9 163.5,18.8 171.2,23.7 174.9,17.7 178.5,19.9 168.3,36.1 
		164.7,33.8 169.3,26.7 161.6,21.8 157.1,29 	"/>
	<g>
		<path class="st0" d="M185.8,49.5c2.3,2.8,6.4,3.2,9.2,0.9c2.7-2.2,3.2-6.3,0.9-9.1c-2.3-2.8-6.3-3.1-9.1-0.9
			C184.1,42.7,183.5,46.7,185.8,49.5 M198.7,39c3.8,4.7,3.3,11.3-1,14.8c-4.4,3.6-11,2.6-14.8-2.1c-3.8-4.7-3.3-11.2,1.1-14.8
			C188.4,33.5,194.9,34.3,198.7,39"/>
		<path class="st0" d="M211.4,67.9l-4.7,1.7l2.4,6.4c0.5,1.4,1.9,2.1,3.3,1.6c0.6-0.2,1.1-0.6,1.3-1.2c0.4-0.9,0.2-1.7,0-2.4
			L211.4,67.9z M195.3,69.5l17.9-6.7l3.7,9.9c1,2.6,0.8,4.5,0.1,6.1c-0.6,1.3-1.7,2.3-3.2,2.9c-2.3,0.9-4.6,0.1-6.4-1.7l-5.6,6.9
			l-1.7-4.5l5.2-6.1l-2-5.3l-6.6,2.5L195.3,69.5z"/>
	</g>
	<polygon class="st0" points="203.5,97.5 204.4,114.1 208,113.9 207.3,101.5 211.9,101.3 212.2,108.3 215.8,108.1 215.5,101.1 
		219.2,100.9 219.8,112.6 223.4,112.4 222.6,96.5 	"/>
	<g>
		<path class="st0" d="M213.5,141.3c1.1-0.9,2.8-2.9,3.6-6c0.5-1.8,0.2-3.7-1.4-4.1c-1.6-0.4-2.4,2-3.2,4.4
			c-1.1,3.3-2.8,8.5-7.9,7.2c-4.6-1.2-5.4-5.4-4.2-9.9c1.2-4.8,3.9-7.5,6.2-9.3l2.2,3c-1.6,1.2-4.2,3.4-5.1,7.2
			c-0.6,2.4-0.2,4.5,1.6,4.9c1.8,0.5,2.7-1.4,3.6-4.1c1.3-4,2.9-8.6,7.6-7.5c4.5,1.1,4.8,5.7,3.9,9.1c-1,3.9-3.2,6.8-4.7,8.1
			L213.5,141.3z"/>
		<path class="st0" d="M14.7,156.8c1.3-0.7,2.9-0.2,3.7,1.2c0.7,1.3,0.3,3-1,3.7c-1.3,0.7-2.9,0.1-3.7-1.2
			C13,159.2,13.4,157.5,14.7,156.8"/>
		<path class="st0" d="M34.9,178.6c0.1-1.4-0.6-3.1-1.4-4.1c-1.5-1.8-4-1.8-5.7-0.4c-1.6,1.4-2.3,3.7-0.5,5.8
			c0.7,0.8,1.7,1.6,2.6,1.9l1.6-1.3l-2.4-2.8l1.7-1.4l3.9,4.8l-4.2,3.5c-1.9-0.5-3.9-1.7-5.1-3.2c-2.5-3-2.1-7.1,0.6-9.4
			c2.7-2.3,6.9-1.9,9.3,1c1.2,1.5,2,3.6,2,5.8L34.9,178.6z"/>
		<path class="st0" d="M42.1,194.7c1.8,1.5,4.4,1.2,5.9-0.6c1.4-1.7,1.2-4.4-0.6-5.8c-1.8-1.5-4.3-1.1-5.8,0.6
			C40.1,190.6,40.3,193.2,42.1,194.7 M48.8,186.4c3,2.4,3.6,6.7,1.3,9.4c-2.3,2.8-6.5,3.1-9.5,0.6c-3-2.4-3.5-6.6-1.2-9.4
			C41.6,184.3,45.8,184,48.8,186.4"/>
	</g>
	<polygon class="st0" points="62.1,196.1 57.3,204.7 63.6,208.2 62.5,210.2 53.9,205.5 59.8,194.8 	"/>
	<polygon class="st0" points="70.2,213.6 74.3,202.1 83.8,205.5 83,207.7 76.1,205.2 75.2,207.5 79.5,209 78.7,211.2 74.5,209.7 
		72.7,214.5 	"/>
	<g>
		<path class="st0" d="M109.7,219.5c-1.5,1.2-3.7,2.2-6.4,2c-4-0.3-6.5-3.4-6.2-7c0.3-3.5,3.2-6.2,7.1-5.9c2.2,0.2,4.4,1.2,5.7,2.6
			l-1.8,1.6c-1-1.1-2.6-1.8-3.9-1.9c-2.5-0.2-4.2,1.6-4.4,3.8c-0.2,2.3,1.3,4.3,3.8,4.5c1.7,0.1,3.3-0.6,4.4-1.6L109.7,219.5z"/>
		<path class="st0" d="M123.6,218.9c2.3-0.3,3.9-2.3,3.7-4.6c-0.2-2.2-2.3-3.9-4.6-3.7c-2.3,0.2-3.9,2.3-3.6,4.5
			C119.4,217.4,121.3,219.1,123.6,218.9 M122.5,208.3c3.8-0.4,7.2,2.1,7.6,5.7c0.4,3.6-2.4,6.8-6.2,7.2c-3.8,0.4-7.2-2.1-7.5-5.7
			C116,211.9,118.6,208.7,122.5,208.3"/>
		<path class="st0" d="M146.5,203.2l2.3,7.5c0.9,2.9-0.8,5.2-3.9,6.2c-3,0.9-5.8,0-6.7-2.9l-2.3-7.5l2.6-0.8l2.3,7.5
			c0.5,1.5,2,2,3.5,1.5c1.6-0.5,2.5-1.7,2-3.2l-2.3-7.5L146.5,203.2z"/>
		<path class="st0" d="M157,200.9l1.5,2.8l3.9-2c0.8-0.4,1.2-1.4,0.7-2.2c-0.2-0.4-0.5-0.6-0.9-0.7c-0.6-0.2-1.1,0-1.5,0.2
			L157,200.9z M159.3,211l-5.7-10.8l6-3.2c1.5-0.8,2.8-0.9,3.9-0.5c0.9,0.3,1.6,0.9,2.1,1.8c0.7,1.4,0.4,2.9-0.6,4.2l4.8,3l-2.7,1.4
			l-4.3-2.8l-3.2,1.7l2.1,4L159.3,211z"/>
		<path class="st0" d="M178.4,187.9c-0.9,0-2.6,0.4-4.2,1.6c-0.9,0.8-1.5,1.8-0.9,2.6c0.7,0.8,2-0.1,3.3-1c1.8-1.3,4.7-3.2,6.8-0.6
			c1.9,2.4,0.6,4.8-1.7,6.7c-2.5,2-4.9,2.3-6.7,2.3l0.1-2.4c1.3,0,3.4-0.1,5.4-1.6c1.2-1,1.8-2.2,1.1-3.1c-0.7-0.9-1.9-0.3-3.4,0.7
			c-2.2,1.5-4.8,3.2-6.8,0.8c-1.8-2.3-0.2-4.7,1.6-6.2c2-1.6,4.3-2.2,5.5-2.3L178.4,187.9z"/>
	</g>
	<polygon class="st0" points="193.1,178.5 190.1,181.9 192.3,183.8 197.5,177.9 199.2,179.5 192.2,187.4 183.1,179.3 189.8,171.7 
		191.6,173.2 186.6,178.8 188.4,180.4 191.4,177 	"/>
	<g>
		<path class="st0" d="M204.5,163.8c-1.3-0.7-1.7-2.4-0.9-3.8c0.8-1.3,2.4-1.9,3.7-1.1c1.3,0.7,1.7,2.4,0.9,3.8
			C207.4,164.1,205.8,164.6,204.5,163.8"/>
		<path class="st0" d="M43.9,136.6C43.9,136.6,43.9,136.7,43.9,136.6C43.9,136.7,43.9,136.6,43.9,136.6L43.9,136.6z M108,33.3
			c-38.7,1.8-70.2,32.9-72.5,71.5c-1.8,29.8,13.6,56.2,37.1,70.3c-0.4-10.8,3.8-21.4,10.8-29.5c10.9-12.7,27.6-14.4,42.1-20.8
			c6.7-2.9,15.2-8.9,12.8-17.4c-2-7.1-9.3-11.3-15.3-14.5c-1-0.5-12.3-5.5-12.3-5.5c-4.8,23.7-37.9,23.4-65.6,44.4
			c-2.3-7-3.6-14.5-3.6-22.3c0-38.7,31.5-70.3,70.3-70.3c38.2,0,69.4,30.6,70.3,68.6c-17.3-11.4-42.2-22.7-69.6-23.3
			c0,0.1-0.1,0.4-0.1,0.5c5.4,1.4,10.6,3.5,15.7,6c6.8,3.3,13.9,8.8,15.7,16.7c4.2,18.4-19.7,27.2-32.9,32.3
			c-7.8,3-16.5,7.8-19.8,16c-4.3,10.7,1.8,20.6,8.3,28.8c4,0.7,8.2,1,12.4,1c42.1,0,76.3-34.2,76.3-76.3
			C188,66.2,151.7,31.3,108,33.3"/>
	</g>
</g>
</svg>
