<?xml version="1.0" encoding="utf-8"?>
<!-- Generator: Adobe Illustrator 25.1.0, SVG Export Plug-In . SVG Version: 6.00 Build 0)  -->
<svg version="1.1" id="Layer_1" xmlns="http://www.w3.org/2000/svg" xmlns:xlink="http://www.w3.org/1999/xlink" x="0px" y="0px"
	 viewBox="0 0 534 720" style="enable-background:new 0 0 534 720;" xml:space="preserve">
<style type="text/css">
	.st0{fill-rule:evenodd;clip-rule:evenodd;fill:#347169;}
	.st1{filter:url(#Adobe_OpacityMaskFilter);}
	.st2{fill-rule:evenodd;clip-rule:evenodd;fill:#FFFFFF;}
	.st3{mask:url(#mask-2_1_);}
	.st4{fill:none;stroke:#275048;stroke-width:1.0773;}
	.st5{fill-rule:evenodd;clip-rule:evenodd;fill:#245851;}
	.st6{fill-rule:evenodd;clip-rule:evenodd;fill:#ECDDCB;}
	.st7{fill-rule:evenodd;clip-rule:evenodd;fill:#A0BDCD;}
	.st8{fill-rule:evenodd;clip-rule:evenodd;fill:#12423C;}
	.st9{fill-rule:evenodd;clip-rule:evenodd;fill:#FEFEFE;}
	.st10{enable-background:new    ;}
	.st11{fill:#322F31;}
</style>
<g id="Mask">
	<polygon id="path-1_1_" class="st0" points="0,720 534,720 534,0 0,0 	"/>
</g>
<defs>
	<filter id="Adobe_OpacityMaskFilter" filterUnits="userSpaceOnUse" x="-2" y="42.2" width="536.5" height="685.5">
		<feColorMatrix  type="matrix" values="1 0 0 0 0  0 1 0 0 0  0 0 1 0 0  0 0 0 1 0"/>
	</filter>
</defs>
<mask maskUnits="userSpaceOnUse" x="-2" y="42.2" width="536.5" height="685.5" id="mask-2_1_">
	<g class="st1">
		<polygon id="path-1_2_" class="st2" points="0,720 534,720 534,0 0,0 		"/>
	</g>
</mask>
<g class="st3">
	<g transform="translate(-3.000000, 42.000000)">
		<g id="Group-5" transform="translate(0.000000, 44.170000)">
			<g id="Group-3">
				<path id="Stroke-1" class="st4" d="M144,387.7l393.5-0.4 M1.5,56.3l251,585"/>
			</g>
			<line id="Stroke-4" class="st4" x1="70" y1="215.9" x2="101.2" y2="201.8"/>
		</g>
		<g id="Group-302" transform="translate(84.900000, 0.000000)">
			<g id="Group-293" transform="translate(0.000000, 0.113882)">
				<path id="Fill-1" class="st5" d="M15.9,28.6C13,23.9,8.2,22,5,24.8c-5.4,4.7-2.2,12.3,0.3,20.9c2.8,9.7-0.7,36.1,1.9,46.1
					c6.4,25.1,1.4,92.3,5.6,95.8c1.3,1.1,6.5,1.6,8.3-0.2c2-2-0.5-28.1,3.4-39.8c3.8-11.5,3.7-21.6,2.7-29.1c0,0-8.8-67.8-8.6-72.4
					C18.7,41.5,18,31.9,15.9,28.6"/>
				<path id="Fill-3" class="st5" d="M40,8.3c-4.6,0-5.5,7.4-1.7,11.1c3.6,3.5,1.8,15.3,6,18.8c4.3,3.4,8.3,18.1,7.6,23
					c-0.7,5-2.3,8.3,0,12.2c1.2,1.9,5.1,2.4,8.6,4.7c3.6,2.3,9.9,1.5,10.8-1.5c1.7-6,2.2-10.3,0.2-15c-1.6-3.8-10.2-14.9-12.8-20.4
					s-9.5-15.9-10.5-22.2C47.2,12.7,47,8.2,40,8.3"/>
				<path id="Fill-5" class="st5" d="M98.3,88c-2.5,9.4-9.2,48.9-8,52.1c1,2.5,10,4,10.6,0.1c0.6-3.8,4.5-45.9,7.6-49.1
					c3-3.2,38.2-40.1,41.5-46.4c5-9.5,11.2-12.5,11.1-16.6c-0.2-6.2-9.6-9.6-14.7-5c-5.6,5-6.9,16.2-7.9,18
					C128.7,58.4,100.7,79.3,98.3,88"/>
				<path id="Fill-7" class="st5" d="M169.6,64.3c0,0-2.1-10.7-1.1-13.2c1-2.6,4.1-4.7,6.7-1.4c2.6,3.3,0.4,9.6,1.9,13.3
					s4.1,12.2,3.9,16.1c-0.2,3.9,1.7,20.4,3.3,23.6c2.3,4.8,3.7,16.7,3.5,22.7c-0.2,6,0,19.4,1.1,21.4c1.1,2,4.8,6.7,5.2,10.2
					c0.3,3.2-1,8.5-5.6,9.5c-6.6,1.4-11-6.3-10.7-11.4c0.3-5.2,2-5.8,1.4-14.1c-0.5-8.3-3-20.8-2.9-28c0.1-7.2,0.1-17.4-0.9-24.4
					C174.4,81.4,170.6,72,169.6,64.3"/>
				<path id="Fill-9" class="st5" d="M51.2,257.5c-0.1-1.6,1.2-2.8-0.1-6.3c-1.6-4.2-6.6-4-8.5-3.2c-1.8,0.7-5.2,3.4-3.7,7.2
					c1.6,4,3.6,3.4,4.9,4.9c2.6,3.1,2.6,8.3,3.8,8.8c0.9,0.4,6.2-0.9,6.2-1.8C53.7,266.3,51.3,259.1,51.2,257.5"/>
				<path id="Fill-11" class="st5" d="M46.6,173.9c-3.9,2.7-6.5,12.3,2.6,15.5c6.2,2.2,11.7-0.7,12.5-6c1-6.5-3.8-5.1-2.4-11.9
					c1.6-7.3,9.9-40.5,10.2-49.2c0.3-8.7-0.9-20.5-4.7-20.9c-3.9-0.4-6.2,2.1-6,6.8c0.2,4.7-1,25.1-2.2,29.4
					C54.8,144.2,50.4,171.3,46.6,173.9"/>
				<path id="Fill-13" class="st5" d="M118.7,159.3c1.5-3.3,6.3-1.5,9.7,0.6c3.4,2.1,20.8,9.6,24.6,12.1c5,3.2,13.5,11.5,17.8,17.5
					c1.8,2.4,1.2,6.4,3.2,6.6c5.9,0.6,13.1,2.3,13.1,8.9c0,5.7-4,8.3-8.9,7.6c-3.5-0.5-6.2-6.5-9.5-12.9c-2.2-4.4-9.2,2-15.1-8.9
					c-3.6-6.6-8.8-12.3-14-14.8C131.3,172.2,115.5,166.4,118.7,159.3"/>
				<path id="Fill-15" class="st5" d="M221.9,574.1c-0.8,4.7-3.5,10.7-1.7,12.9c1.8,2.2,1.3,6.4,0.5,9.3c-0.7,2.9-3,12.8,0,16.7
					c2.1,2.8,9,3,11.9-1.3c2.9-4.3-0.5-10.5-0.1-14.5c0.4-4,3.5-10.5,3.3-14.3c-0.2-3.8-2.5-8.2-2.4-13.5
					c0.2-5.3,0.7-122.5,0.3-126.9c-0.4-4.8-3.2-8.5-7.3-6.6c-4.6,2.2-2.4,18.8-2.5,24.7c-0.2,5.9-2.5,13.5-2.5,21.2
					C221.5,489.4,221.9,574.1,221.9,574.1"/>
				<path id="Fill-17" class="st5" d="M180.5,543.2c0,0,3,23,6.6,25.4c4.4,3,8.8-0.2,8.8-5.5c0-5.3-12.3-61.6-13.2-65.6
					c-0.9-3.9-2-7.9-7.5-11.4c-5.5-3.5-32.7-22.4-37.3-27.6c-4.6-5.3-4.9-4.4-9.2-7.3c-4.4-2.8-7.9-7-13.2-7s-10.8-1-12.7,3.2
					c-2,4.2,0.1,10.1,3.6,10.4c3.6,0.3,11.1-0.5,15,0.6c3.9,1.2,5.1,3.7,4.8,6c-0.3,2.4,0.2,5,4.9,5.8c4.6,0.9,32.5,21,35.9,23.8
					c3.3,2.8,6.3,6.3,6.7,11.3C174,510.7,180.5,543.2,180.5,543.2"/>
				<path id="Fill-19" class="st5" d="M128.7,398.5c-4.3-3.5-12.7-12.4-14.5-12.5s-3.8-2.4-5-3.8c-1.2-1.4-5.2-1-9.2-4.1
					c-5.5-4.4,0.9-9.2,0.9-9.2c3.5-2.8,8.5-1.9,10.2,2.2c1.7,4.2,2.2,6.4,3.1,7c1.1,0.8,3.9,0,7.5,1c3.6,1.1,23.7,22.5,23.7,22.5
					s9.2,10.7,17.2,12.7c6.7,1.6,13.5,1.5,14.6,4.1c0.7,1.6,0.2,6.5-0.8,7c-4.7,2.3-31.2-4.3-34.9-8.4
					C137.3,412.4,132,401.3,128.7,398.5"/>
				<path id="Fill-21" class="st5" d="M133.9,353c4.2-2.4,2.2-5.6-1.5-10.3c-3.7-4.7-12.7-15.2-16.3-21.4
					c-3.6-6.2-10.9-23.9-13.6-30.7c-1.6-4-5.8-7.5-7.1-12.1c-0.7-2.6,2.2-7.5-1.2-10.2c-3.1-2.5-0.6-7.1-3.5-8
					c-2.9-0.9-6.3-0.2-7.9,2.7c-1.6,2.9-1.4,7.4,0.6,10.5c2.1,3.2,3.9,2.7,3.7,6c-0.2,3.3,9.3,30.6,13.1,38.3
					c3.2,6.6,23.5,31.5,25.7,33.7C128.2,353.8,130.6,354.9,133.9,353"/>
				<path id="Fill-23" class="st5" d="M63.9,379.3c0,0,4.9,15.5,7,15.9c2.1,0.4,4.9-0.7,5-2.6c0.1-2-4.6-11.5-6-16
					c-1.4-4.5-5.7-22.3-6-26.9c-0.3-4.6-3.5-15.5-4.7-19.3c-1.2-3.8-4.1-17.6-4.1-21c0-3.4-2.6-4-3-6.1c-0.4-2.1,0.1-6.6-2.6-8.3
					c-2.8-1.7-7.4-0.8-9.6,1.4c-2.2,2.2-1.1,8.4,0.8,10.4c2.2,2.2,0.5,5.3,2.3,6.9c1.8,1.6,1.8,7.9,3.7,10.1
					c1.9,2.2,0.1,6.7,2.6,10.7c2.5,4.1,5.4,4.1,5.4,9.9C54.7,350.3,62.3,377.2,63.9,379.3"/>
				<path id="Fill-25" class="st5" d="M53.7,235c-3.3,0-9.6,0-11.6,1.6c-1.3,1-1.4,5,0.2,5.6c4,1.8,50.7-2.3,58.3-1.7
					c7.6,0.6,32.7-2.1,36-0.7c3.3,1.3,5.9,2.7,8.2,2.1s3.4-5.2,5.5-5.4c2.1-0.2,7.5-1,9.1-2.1c2-1.4,2.7-4.7,1.6-7
					c-1.2-2.6-4.7-5.6-7.8-4.9c-4,0.9-6.6,3.8-8,4.9c-1.6,1.3-10.5,4.3-15.5,4.2C124.6,231.4,53.7,235,53.7,235"/>
				<path id="Fill-27" class="st5" d="M186.5,226.7c3.3-0.5,6.4,2.1,6.4,5.7c0,3.7-2,17.9-0.8,21.9c1.2,3.9,4.9,17.8,4.4,20.9
					c-0.5,3.2-2,8.1,0,11.1c2.1,3,4.9,6.7,4.1,11.8c-0.8,5.1-2.5,10.1-1.6,15s4.6,6.7,4.3,11.4c-0.3,4.8-3.1,9.5-2.1,12.6
					c1,3.1,4.3,4.4,4.1,8.9c-0.2,4.4-2.5,5.6-2.5,10.2s7,9.4,6.1,13.6c-1,4.3-4.1,12.1-2.1,15.6c2,3.5,4.6,6,3.5,9.6
					c-1.2,3.7-3.2,7.4-6.5,7.4c-3.3,0-9.1-2.9-9-7.6c0.1-4.6,2.4-6.7,2-9.2c-0.5-2.5-3.9-3.4-3.9-7.8c-0.1-4.4,0.1-6.5-0.8-9.2
					c-0.9-2.7-1.5-10.9-1.8-16.3c-0.3-5.5-4.2-9.9-4-13.7c0.3-3.8,1.5-10.4,0.3-15.8c-1.2-5.3-2.4-7.8-2-12.1
					c0.4-4.4,1.2-12.2,0.9-15.1s-1-8.3-0.4-10.6c0.6-2.4,2-8,1.3-11.8C185.6,269.7,178.8,227.8,186.5,226.7"/>
				<path id="Fill-29" class="st5" d="M219.6,293.5c-3.6-3.5-6.9-8.2-4.8-10.6c2-2.2,7.5-4.7,10.2,0.2c2.8,5,6.4,9.3,7.1,14.5
					c0.7,5.2,5,41.4,4.4,47c-0.6,5.6-1.3,32.2,0.1,33.5c1.3,1.3,5.5,2.6,6.2,7.5c0.7,4.9-2.1,12.4-6,12.9c-3.9,0.5-10.4-1.7-11-8.9
					c-0.5-7.3,3.6-7.9,3.5-10.9c-0.1-3-3.1-7-3.1-11.5c0-4.4,0.6-22.3,0.2-29.2S225.3,298.9,219.6,293.5"/>
				<path id="Fill-31" class="st5" d="M203.2,214.3c-6.5,1.4-14.5,3-13.4,6.1c1.1,3.1,2.2,7.9,8.3,6.4c6.2-1.5,55.2,1.7,62.5,1.7
					c7.2,0,19.5,0.2,22.4,0.9c2.9,0.7,5.8,0.9,8.5,0.7c2.7-0.2,8-3.6,12.5-2.4c4.5,1.3,5.2,4.6,7.6,4.7c2.4,0.1,7.7-3.1,7-7
					c-0.8-3.9-4-5.4-7-5.4c-3,0-5.5-2-9.1-1.3c-3.5,0.7-3,2.6-7.1,2.6c-4,0-11.4-3.9-18.1-3.8c-6.7,0.1-29.6-0.9-35.8-1.6
					C235.4,215.1,209.7,212.9,203.2,214.3"/>
				<path id="Fill-33" class="st5" d="M347.2,240.8c-2.3-1.4-6.5-0.5-9,1.4c-2.6,1.9-2.1,6.1,1.8,9.1c3.9,3,9,9.9,10.8,18.3
					c1.8,8.4,11.6,22,11.3,26.7s1.4,7.2,3.4,9.6c2,2.4,5.4,8.9,10.6,8.2c5.2-0.7,9-2.2,9.4-5.3c0.4-3.1,1-6-1.9-8.7
					c-2.4-2.3-4.3-3-6.9-7.3c-2.5-4.3-10-14.7-11.5-18.5c-1.5-3.8-5.8-13.8-9-19.4C353.1,249.3,350.4,242.7,347.2,240.8"/>
				<path id="Fill-35" class="st5" d="M355.5,389.5c-2.5,2.3-2.3,8.5-0.2,9.7c2.1,1.3,4.6,2.4,5.4,4.6c0.6,1.7,4.2,3.6,6.6,3.5
					c2.4-0.1,6-2.9,5.5-6s-3.7-3.3-5.1-5c-1.4-1.7-5.3-5.8-5.1-7.9c0.2-2.1,1.4-2.8,1.5-5.1c0-2.3-3.4-5.1-3.4-7.9s2.5-7,0.8-13
					c-1.7-6-14.1-57.1-14.7-59.6c-0.6-2.5-2.9-11.3-6.1-12.8c-3.2-1.5-6.6,0.6-6.3,3c0.3,2.5,9.2,39.9,10.6,46.8
					c1.5,6.9,7.7,28.6,6.7,31.4c-1,2.8-1.8,4.7-1.8,6.5c0,1.5,1.9,4.4,4.3,6.3C356,385.5,356.5,388.7,355.5,389.5"/>
				<path id="Fill-37" class="st5" d="M339.9,412c-0.6,3.4-1.8,10.5,5.1,10.5c6.9,0,13.2-1.9,12.1-6.9c-1.1-5-6.9-3.2-10.7-10
					c-3.8-6.8-17.2-28-20.6-33.1c-3.4-5.2-7.6-13.7-14-23.3c-6.3-9.5-16.8-14.5-19.5-21.6c-2.7-7.1-6.3-14.4-11.3-19.4
					c-5-5-25.6-31-29.2-33.3s-6.7-2-9.7-6.1c-3.1-4.2-7.7-4.9-8-9.3c-0.4-4.4-2.7-8-6.6-8.2c-3.9-0.2-6.6,3.3-5.7,5.8
					c0.9,2.5,1.3,4.3,0.6,6c-0.7,1.6-1.7,4.9,1.2,6.6c3,1.6,6,1.2,7.8,3.5c1.9,2.4,3.4,5.8,6.1,10c2.7,4.2,34.2,33.7,36.9,40.3
					c2.7,6.6,9.1,18.1,15,23.8c5.4,5.2,25.6,36.6,31.5,42C325.4,393.5,341.6,402.3,339.9,412"/>
				<path id="Fill-39" class="st6" d="M155.7,37.6c0,0,1.7-2.6,3.1-1.8c1.3,0.8-0.6,2.1-1.2,3.1c-0.6,0.9,0,2.3-1.6,2.3
					C154.5,41.2,154.6,39.3,155.7,37.6"/>
				<path id="Fill-41" class="st6" d="M134,37.4c0-0.9,0.5-1.2,1.2-1.5c0.7-0.3,1.1-0.5,1.2-1c0.1-0.5,0-2.4,1.4-2.1
					c1.4,0.3,0,2.4-0.2,2.8c-0.2,0.4,1.2,1.6,0.6,2.5c-0.5,0.7-0.8,0.1-2,0.3C135.1,38.5,134,38.3,134,37.4"/>
				<polygon id="Fill-43" class="st6" points="12.3,235.5 2.4,240.6 0,236 4.2,233.8 0.8,231 4,227 9.2,231.2 9.8,230.9 				"/>
				<polygon id="Fill-45" class="st6" points="56.3,231.9 45.8,233.6 44,222.8 54.5,221 				"/>
				<path id="Fill-47" class="st6" d="M164.9,201.9c1.3-0.4,0-1.9,1.2-2c1.3,0,2.2,0.3,2.7,2.4c0.5,2.1,0.8,2.4,1.6,2.8
					c0.8,0.4,0.2,2.5-0.9,2c-1.1-0.5-1.9-3.4-2.8-3.6c-0.9-0.2-2.6,0.5-2.9-0.2C163.5,202.4,164.4,202,164.9,201.9"/>
				<path id="Fill-49" class="st6" d="M176.4,192.1c2.4-0.2,4.5,1.2,4.4,2.7c-0.2,1.9-2.3,0.5-3.3,0.5c-1,0-3.4,0.7-3.8-0.3
					C173.2,193.6,174,192.3,176.4,192.1"/>
				<polygon id="Fill-51" class="st6" points="36,244.8 30,245.8 28.2,235.3 34.3,234.3 				"/>
				<polygon id="Fill-53" class="st6" points="38.3,265 29,266.5 27.3,256 36.6,254.5 				"/>
				<path id="Fill-55" class="st6" d="M80.7,279.4c-0.7-0.8,0.3-2,0.4-2.5c0.1-0.6,0-1.3,0.7-1.5c0.7-0.3,0.8,0.7,1.6,0.6
					c0.8-0.1,2.3,0,2.2,1c0,1-1.4,1.1-2.2,1.8C82.7,279.4,81.4,280.3,80.7,279.4"/>
				<path id="Fill-57" class="st6" d="M149.3,240.3c-0.1-1.1,0.5-3.1,3.2-2.5c1.2,0.3,0.2,1,0.3,1.9c0.2,0.9,0.8,2.1-0.6,2.1
					C150.8,241.9,149.4,242,149.3,240.3"/>
				<path id="Fill-59" class="st6" d="M38.1,310.9c-0.5-1.3-2.3-2.4-1.5-3.4c0.8-1,2.1-1.6,3.2-0.3c1.1,1.2,0.4,2.7,0.9,3.6
					c0.5,0.9,1.1,1.4,1.2,3.5c0.1,2,1.8,2.4,1.8,3.3c-0.1,0.9-1.5,1.7-2.4,0.4c-0.9-1.3-0.7-2.3-1.2-2.8c-0.7-0.7-1.5-0.6-1.8-1.3
					C38,312.8,38.4,311.7,38.1,310.9"/>
				<path id="Fill-61" class="st6" d="M227.4,276.8c-0.1-0.6,0.4-0.6,0.4-1.2c0-0.7-0.5-2.5,0.9-2.5c1.4,0,1,1.5,1.8,1.8
					c0.7,0.4,1.7-0.3,1.7,1s-1,3.8-2.5,3.7c-1.4,0-1.8-0.6-1.8-1.7C227.9,277.2,227.5,277.3,227.4,276.8"/>
				<path id="Fill-63" class="st6" d="M239.7,375.7c-0.5,0.2-1.9,0.2-1.8,1c0,0.8,0.5,1.2,1.3,1.1c0.8-0.1,0.9-0.5,1.2-0.5
					c0.3,0,0.3,1.4,1.2,1.3c0.9-0.1,0.4-1.1,1-1.2s0.6,1,1.5,0.6c0.8-0.3,1.4-1.3,0.9-2.1c-0.5-0.8-2-0.3-2.5-0.7
					c-0.5-0.4-1.1-0.7-1.7-0.5C240.1,375.1,240.2,375.6,239.7,375.7"/>
				<path id="Fill-65" class="st6" d="M112.5,373.5c-0.1-0.8,0.7-1.6,1.9-1.6c1.2,0,2.6,1.2,2.9,2.5c0.3,1.3,0.5,3.4-0.8,3.6
					c-1.3,0.2-2.7-0.2-2.7-1.2c0-1,0.9-1.1,0.8-1.8C114.6,374.2,112.6,374.4,112.5,373.5"/>
				<path id="Fill-67" class="st6" d="M100.9,382.1c-0.3,0.5,0.6,2.1,1.8,2.3c1.2,0.2,2.3-0.5,3.3-0.2c1,0.3,1.8,1.7,2.7,1.3
					c0.9-0.4,1.2-2-0.5-2.9c-1.6-0.9-2.3-0.2-2.9-0.5c-0.7-0.3-0.6-0.9-1.6-0.9c-1,0-0.8,1.2-1.3,0.9
					C101.5,381.6,101.1,381.7,100.9,382.1"/>
				<path id="Fill-69" class="st6" d="M367.2,385.1c1.5-0.3,1.5,0.3,2.5,0.3c1,0,1.9-0.5,2.4,0.4c0.5,0.9,0.6,1.6-0.5,1.8
					c-1.1,0.2-0.7-0.6-1.3-0.3c-0.6,0.3,0.5,1.4-0.5,1.6c-1,0.2-1-0.9-1.6-0.8c-0.7,0.1-0.4,0.6-1,0.7c-0.6,0-0.5-0.4-1.1-0.3
					c-0.6,0.1-0.7,0.5-1.3,0.5c-0.6,0-0.8-0.7-0.5-1.4c0.3-0.7,1.1-0.3,1.2-1C365.7,385.8,366.2,385.3,367.2,385.1"/>
				<path id="Fill-71" class="st7" d="M345.3,391.6c0.4-2,2.2-5.6,4.5-6.1c1.6-0.3,4,0,4.8,1.5c1.1,2.1-2.1,4.1-2,5.9
					c0.1,1.8,0.6,3.3-0.1,4.5c-1,1.6-5.1,2.3-6.6,0C344.5,395.2,345.2,392.2,345.3,391.6"/>
				<path id="Fill-73" class="st7" d="M304.1,417.7c-1.7-2.2,2.7-9.2,7.3-11.5c4-2,14.2-4.4,19.5-3.5c5.3,0.9,9,4.3,6,8.1
					c-3,3.8-11.6,2.6-15.4,3.8C316.9,416,307,421.4,304.1,417.7"/>
				<path id="Fill-75" class="st6" d="M116.9,463.6c0.1-0.9,0.5-1,1.3-0.9c0.8,0,0.9,0.6,1.3,0.3c0.5-0.2,0.6-1.2,1-1.2
					c0.3,0,1,0.1,1.2-0.3c0.2-0.4,0.3-0.9,1.1-0.9c0.8,0,1.5,1.5,0.8,2c-0.7,0.5-1.3,0.6-1.3,1.4s0.2,1.9-0.4,1.9
					c-0.7,0-1.4-0.5-2.4-0.5C118.5,465.3,116.8,465.1,116.9,463.6"/>
				<path id="Fill-77" class="st8" d="M8,27.5c1.6-0.2,3.9-0.1,5.5,2.8s0.6,4.5,0.8,5.5c0.2,1,1.9,1.9,1.8,5
					c-0.1,3.2-2.5,5.7-4.1,6.1c-1.6,0.3-5.2-1-5.7-4.1c-0.6-3.2-0.2-3.4-0.4-4.5c-0.2-1.5-2.3-3.7-2-6C4.4,29.8,5.6,28,8,27.5"/>
				<path id="Fill-79" class="st8" d="M53.5,69.9c0,0,1.4-6.4,9.1-4c7.7,2.4,7.7,8.4,6.2,10.4c-1.4,2-5,2.2-8-0.9
					C57.9,72.3,53.1,73.4,53.5,69.9"/>
				<path id="Fill-81" class="st8" d="M154,35.4c1.6-4,6.9-5.6,3.1-10.3c-4.4-5.5-10.7,0.6-12.4,3.2c-1.7,2.6-4.3,8.6-1,10.8
					C147.1,41.3,151.9,40.8,154,35.4"/>
				<path id="Fill-83" class="st8" d="M43.2,249.3c2-0.6,5.3-0.7,6.6,2.5c1.4,3.7-0.2,5.8-2.3,6.6c-2.1,0.7-6.1-0.3-7.2-3.4
					C39.2,252.3,41.3,249.9,43.2,249.3"/>
				<path id="Fill-85" class="st8" d="M172.3,199c0,0,1.9-2.1,5.2-1c3.3,1.1,4.3,0.7,6.2,3.2c1.9,2.5,0.4,10.5-3.8,9.9
					c-4.2-0.5-4.3-3.9-6-5.3S169.7,202,172.3,199"/>
				<path id="Fill-87" class="st8" d="M190.4,155.9c0,0-1.7-6.8-6.9-4.1c-3.7,2-1.2,5.1-0.7,6.3c0.5,1.3,1.5,5.1,5,4.2
					C191.4,161.4,191,158.1,190.4,155.9"/>
				<path id="Fill-89" class="st8" d="M53,177c2.4,0.3,5.6,3.3,5.1,5.9c-0.6,2.6-4.1,4.6-7.7,3.5c-3.6-1.1-5.3-3.7-4.3-6.4
					C47,177.5,49.7,176.6,53,177"/>
				<path id="Fill-91" class="st8" d="M91.9,267.8c-0.7-1.7,0.5-5.3-1.3-6.1s-7.6-0.2-7.4,7.1c0.2,6.1,6.1,7.9,8,7.2
					c1.9-0.8,3.2-2.3,3-4C93.8,269.7,92.7,269.8,91.9,267.8"/>
				<path id="Fill-93" class="st8" d="M137.1,237.7c-0.9-1.9-0.9-5.5,1.6-6.5c2.6-1,6.7-1.3,7.9-2.3c1.2-0.9,3.9-4.2,5.9-4.7
					c2.2-0.6,4.5-0.4,6.4,3.1c1.9,3.5-0.5,5.9-2.5,6.8c-2,0.9-5.4,0.2-7.1,1.2c-1.7,1-3.4,4.8-5.4,5.1
					C142,240.8,138.2,240.2,137.1,237.7"/>
				<path id="Fill-95" class="st8" d="M42.7,306.2c-1.1-1.2-2.5-3.3-2.6-5.3s1.1-4.8,4.3-5.3c3.2-0.5,5.7,1.9,6.1,3.3
					c0.4,1.4-1,3.8,0,5.2c1,1.5,3.5,3.9,2.9,6.3c-0.5,2.4-2.1,3.3-4.2,3.8c-2.1,0.5-5.2-0.7-5.7-2.8C43,309.3,43.8,307.3,42.7,306.2
					"/>
				<path id="Fill-97" class="st8" d="M225.1,260c-0.2-1.7-1.2-2.4-1-3.7c0.2-1.3,1.3-2.7,3.3-2.7c1.9,0,3.1,1.7,3.2,3.2
					c0,1.5-0.7,2.7,0,3.8c0.7,1.1,4.3,4.1,3.2,6.7c-1.1,2.6-2.6,3-5.1,2.9s-5.2-1.4-5.2-4.1C223.5,263.5,225.4,262.4,225.1,260"/>
				<path id="Fill-99" class="st8" d="M305.2,225c0-1.6,1.3-3,3.3-3c2,0,6.5-0.3,7.7,1.8c1.3,2.1-0.8,7.7-3.2,7.6
					c-2.5-0.1-3.1-2.2-4.5-2.5C307.1,228.8,305.3,227.3,305.2,225"/>
				<path id="Fill-101" class="st8" d="M234.9,381.8c1.5-0.2,6,0.4,6,7c0,3.9-3.5,7.7-6.4,7.7c-2.7,0-6.2-2.7-5.8-6.9
					C229.2,385.4,231.5,382.2,234.9,381.8"/>
				<path id="Fill-103" class="st8" d="M202.9,387.2c2.2,0,6.1,2.4,5.9,7c-0.2,4.6-5,6.1-7.2,5.9c-2.2-0.1-5.3-2.5-5-6.5
					C196.9,389.7,200.7,387.2,202.9,387.2"/>
				<path id="Fill-105" class="st8" d="M101.2,369.9c1.2-1.2,4.9-2.2,6.7-0.8c1.8,1.4,1.2,2.9,2.2,3.8c1,0.9,3.2,4,1.6,6.2
					c-1.6,2.2-5.3,1.1-7.2,0C102.5,378,96.4,374.7,101.2,369.9"/>
				<path id="Fill-107" class="st8" d="M373.8,301.2c2.7-0.8,7.4-0.1,8.9,3.7c1.4,3.8-3.2,5.6-4.7,5.8c-2.5,0.3-7-0.3-7.5-3.5
					C369.9,304.1,371.9,301.8,373.8,301.2"/>
				<path id="Fill-109" class="st8" d="M356.9,392.7c1.3-1.4,4.7-1.5,6.5,0.5c1.8,1.9,0.9,3.5,2.5,4.3c1.6,0.8,5.3,2.6,5.3,4.2
					c0,1.6-1.1,4.6-5.2,3.8c-4.1-0.9-3.4-3.1-5.3-3.9C358.9,400.8,353.1,397.1,356.9,392.7"/>
				<path id="Fill-111" class="st8" d="M112.9,446.4c2.2-0.1,2.6-0.7,4.4,0c1.8,0.7,2.9,3,2.7,5.3c-0.2,2.2-1.9,4.9-4.2,4.8
					c-2.3-0.1-2.6-0.5-4.1-0.4s-4.4,0.2-5.6-1.6c-1.2-1.8-1.7-6.1,1.4-7.8C109.7,445.3,111.3,446.5,112.9,446.4"/>
				<path id="Fill-113" class="st8" d="M223.9,605.1c-0.3-2.2-1.4-3.1-1.2-5.4c0.2-2.3,0.7-4.1,3.4-4.1c2.7,0,3.5,3.5,4,5.5
					c0.5,2,2.2,3.5,1.2,6c-1,2.5-1.6,6.4-5.6,5.9c-4-0.5-4-3.1-3.8-4.1C222.1,607.8,224.1,606.4,223.9,605.1"/>
				<polygon id="Fill-117" class="st9" points="9.9,37.9 9.9,37.2 10.4,37.2 10.4,37.9 				"/>
				<path id="Fill-119" class="st9" d="M10,40.8L10,39.4l0.5,0l0.1,1.5L10,40.8z M10.2,43.7l-0.1-1.5l0.5,0l0.1,1.5L10.2,43.7z
					 M10.3,46.6l-0.1-1.5l0.5,0l0.1,1.5L10.3,46.6z M10.4,49.6l-0.1-1.5l0.5,0l0.1,1.5L10.4,49.6z M10.5,52.5L10.5,51l0.5,0l0.1,1.5
					L10.5,52.5z M10.6,55.4l-0.1-1.5l0.5,0l0.1,1.5L10.6,55.4z M10.8,58.3l-0.1-1.5l0.5,0l0.1,1.5L10.8,58.3z M10.9,61.2l-0.1-1.5
					l0.5,0l0.1,1.5L10.9,61.2z M11,64.1l-0.1-1.5l0.5,0l0.1,1.5L11,64.1z M11.1,67L11,65.6l0.5,0l0.1,1.5L11.1,67z M11.2,69.9
					l-0.1-1.5l0.5,0l0.1,1.5L11.2,69.9z M11.3,72.9l-0.1-1.5l0.5,0l0.1,1.5L11.3,72.9z M11.5,75.8l-0.1-1.5l0.5,0l0.1,1.5L11.5,75.8
					z M11.6,78.7l-0.1-1.5l0.5,0l0.1,1.5L11.6,78.7z M11.7,81.6l-0.1-1.5l0.5,0l0.1,1.5L11.7,81.6z M11.8,84.5L11.7,83l0.5,0
					l0.1,1.5L11.8,84.5z M11.9,87.4L11.9,86l0.5,0l0.1,1.5L11.9,87.4z M12,90.3L12,88.9l0.5,0l0.1,1.5L12,90.3z M12.2,93.2l-0.1-1.5
					l0.5,0l0.1,1.5L12.2,93.2z M12.3,96.1l-0.1-1.5l0.5,0l0.1,1.5L12.3,96.1z M12.4,99.1l-0.1-1.5l0.5,0l0.1,1.5L12.4,99.1z
					 M12.5,102l-0.1-1.5l0.5,0L13,102L12.5,102z M12.6,104.9l-0.1-1.5l0.5,0l0.1,1.5L12.6,104.9z M12.7,107.8l-0.1-1.5l0.5,0
					l0.1,1.5L12.7,107.8z M12.9,110.7l-0.1-1.5l0.5,0l0.1,1.5L12.9,110.7z M13,113.6l-0.1-1.5l0.5,0l0.1,1.5L13,113.6z M13.1,116.5
					l-0.1-1.5l0.5,0l0.1,1.5L13.1,116.5z M13.2,119.4l-0.1-1.5l0.5,0l0.1,1.5L13.2,119.4z M13.3,122.4l-0.1-1.5l0.5,0l0.1,1.5
					L13.3,122.4z M13.5,125.3l-0.1-1.5l0.5,0l0.1,1.5L13.5,125.3z M13.6,128.2l-0.1-1.5l0.5,0l0.1,1.5L13.6,128.2z M13.7,131.1
					l-0.1-1.5l0.5,0l0.1,1.5L13.7,131.1z M13.8,134l-0.1-1.5l0.5,0l0.1,1.5L13.8,134z M13.9,136.9l-0.1-1.5l0.5,0l0.1,1.5
					L13.9,136.9z M14,139.8l-0.1-1.5l0.5,0l0.1,1.5L14,139.8z M14.2,142.7l-0.1-1.5l0.5,0l0.1,1.5L14.2,142.7z M14.3,145.6l-0.1-1.5
					l0.5,0l0.1,1.5L14.3,145.6z M14.4,148.6l-0.1-1.5l0.5,0l0.1,1.5L14.4,148.6z M14.5,151.5l-0.1-1.5l0.5,0l0.1,1.5L14.5,151.5z
					 M14.6,154.4l-0.1-1.5l0.5,0l0.1,1.5L14.6,154.4z M14.7,157.3l-0.1-1.5l0.5,0l0.1,1.5L14.7,157.3z M14.9,160.2l-0.1-1.5l0.5,0
					l0.1,1.5L14.9,160.2z M15,163.1l-0.1-1.5l0.5,0l0.1,1.5L15,163.1z M15.1,166l-0.1-1.5l0.5,0l0.1,1.5L15.1,166z M15.2,168.9
					l-0.1-1.5l0.5,0l0.1,1.5L15.2,168.9z M15.3,171.9l-0.1-1.5l0.5,0l0.1,1.5L15.3,171.9z M15.4,174.8l-0.1-1.5l0.5,0l0.1,1.5
					L15.4,174.8z M15.6,177.7l-0.1-1.5l0.5,0l0.1,1.5L15.6,177.7z M15.7,180.6l-0.1-1.5l0.5,0l0.1,1.5L15.7,180.6z M15.8,183.5
					l-0.1-1.5l0.5,0l0.1,1.5L15.8,183.5z M15.9,186.4l-0.1-1.5l0.5,0l0.1,1.5L15.9,186.4z"/>
				<polygon id="Fill-121" class="st9" points="16,188.6 16,187.9 16.4,187.8 16.5,188.6 				"/>
				<path id="Fill-123" class="st9" d="M9.1,37.3c0-0.6,0.4-1.1,1-1.1c0.6,0,1.1,0.4,1.1,1c0,0.6-0.4,1.1-1,1.1
					C9.6,38.3,9.1,37.8,9.1,37.3"/>
				<polygon id="Fill-125" class="st9" points="61,70.7 60.8,70 61.2,69.9 61.5,70.6 				"/>
				<path id="Fill-127" class="st9" d="M41,11.9l-0.5-1.4l0.4-0.1l0.5,1.4L41,11.9z M41.9,14.7l-0.5-1.4l0.4-0.1l0.5,1.4L41.9,14.7z
					 M42.9,17.6l-0.5-1.4l0.4-0.1l0.5,1.4L42.9,17.6z M43.9,20.4L43.4,19l0.4-0.1l0.5,1.4L43.9,20.4z M44.8,23.2l-0.5-1.4l0.4-0.1
					l0.5,1.4L44.8,23.2z M45.8,26.1l-0.5-1.4l0.4-0.1l0.5,1.4L45.8,26.1z M46.8,28.9l-0.5-1.4l0.4-0.1l0.5,1.4L46.8,28.9z
					 M47.7,31.7l-0.5-1.4l0.4-0.1l0.5,1.4L47.7,31.7z M48.7,34.6l-0.5-1.4l0.4-0.1l0.5,1.4L48.7,34.6z M49.7,37.4L49.2,36l0.4-0.1
					l0.5,1.4L49.7,37.4z M50.6,40.2l-0.5-1.4l0.4-0.1l0.5,1.4L50.6,40.2z M51.6,43.1l-0.5-1.4l0.4-0.1l0.5,1.4L51.6,43.1z
					 M52.6,45.9l-0.5-1.4l0.4-0.1l0.5,1.4L52.6,45.9z M53.5,48.7l-0.5-1.4l0.4-0.1l0.5,1.4L53.5,48.7z M54.5,51.6L54,50.2l0.4-0.1
					l0.5,1.4L54.5,51.6z M55.5,54.4L55,53l0.4-0.1l0.5,1.4L55.5,54.4z M56.4,57.3L56,55.8l0.4-0.1l0.5,1.4L56.4,57.3z M57.4,60.1
					l-0.5-1.4l0.4-0.1l0.5,1.4L57.4,60.1z M58.4,62.9l-0.5-1.4l0.4-0.1l0.5,1.4L58.4,62.9z M59.3,65.8l-0.5-1.4l0.4-0.1l0.5,1.4
					L59.3,65.8z M60.3,68.6l-0.5-1.4l0.4-0.1l0.5,1.4L60.3,68.6z"/>
				<polygon id="Fill-129" class="st9" points="40,9.1 39.8,8.4 40.2,8.2 40.4,8.9 				"/>
				<path id="Fill-131" class="st9" d="M62.2,70.2c0.2,0.5-0.1,1.1-0.6,1.3c-0.5,0.2-1.1-0.1-1.3-0.6c-0.2-0.5,0.1-1.1,0.6-1.3
					C61.4,69.4,62,69.7,62.2,70.2"/>
				<polygon id="Fill-133" class="st9" points="52.3,181.4 51.9,181.4 52,180.6 52.4,180.7 				"/>
				<path id="Fill-135" class="st9" d="M64.5,104.9l-0.5-0.1l0.2-1.4l0.5,0.1L64.5,104.9z M64.1,107.8l-0.5-0.1l0.2-1.4l0.5,0.1
					L64.1,107.8z M63.6,110.6l-0.5-0.1l0.2-1.4l0.5,0.1L63.6,110.6z M63.2,113.5l-0.5-0.1L63,112l0.5,0.1L63.2,113.5z M62.7,116.4
					l-0.5-0.1l0.2-1.4l0.5,0.1L62.7,116.4z M62.3,119.2l-0.5-0.1l0.2-1.4l0.5,0.1L62.3,119.2z M61.8,122.1l-0.5-0.1l0.2-1.4l0.5,0.1
					L61.8,122.1z M61.3,124.9l-0.5-0.1l0.2-1.4l0.5,0.1L61.3,124.9z M60.9,127.8l-0.5-0.1l0.2-1.4l0.5,0.1L60.9,127.8z M60.4,130.7
					l-0.5-0.1l0.2-1.4l0.5,0.1L60.4,130.7z M60,133.5l-0.5-0.1l0.2-1.4l0.5,0.1L60,133.5z M59.5,136.4l-0.5-0.1l0.2-1.4l0.5,0.1
					L59.5,136.4z M59.1,139.2l-0.5-0.1l0.2-1.4l0.5,0.1L59.1,139.2z M58.6,142.1l-0.5-0.1l0.2-1.4l0.5,0.1L58.6,142.1z M58.1,145
					l-0.5-0.1l0.2-1.4l0.5,0.1L58.1,145z M57.7,147.8l-0.5-0.1l0.2-1.4l0.5,0.1L57.7,147.8z M57.2,150.7l-0.5-0.1l0.2-1.4l0.5,0.1
					L57.2,150.7z M56.8,153.5l-0.5-0.1l0.2-1.4l0.5,0.1L56.8,153.5z M56.3,156.4l-0.5-0.1l0.2-1.4l0.5,0.1L56.3,156.4z M55.9,159.3
					l-0.5-0.1l0.2-1.4l0.5,0.1L55.9,159.3z M55.4,162.1L55,162l0.2-1.4l0.5,0.1L55.4,162.1z M54.9,165l-0.5-0.1l0.2-1.4l0.5,0.1
					L54.9,165z M54.5,167.8l-0.5-0.1l0.2-1.4l0.5,0.1L54.5,167.8z M54,170.7l-0.5-0.1l0.2-1.4l0.5,0.1L54,170.7z M53.6,173.6
					l-0.5-0.1l0.2-1.4l0.5,0.1L53.6,173.6z M53.1,176.4l-0.5-0.1l0.2-1.4l0.5,0.1L53.1,176.4z M52.7,179.3l-0.5-0.1l0.2-1.4l0.5,0.1
					L52.7,179.3z"/>
				<polygon id="Fill-137" class="st9" points="65,102.1 64.5,102 64.7,101.3 65.1,101.3 				"/>
				<path id="Fill-139" class="st9" d="M53.1,181.5c-0.1,0.6-0.6,0.9-1.2,0.9c-0.6-0.1-0.9-0.6-0.9-1.2c0.1-0.6,0.6-0.9,1.2-0.9
					C52.8,180.4,53.2,180.9,53.1,181.5"/>
				<polygon id="Fill-141" class="st9" points="95.4,142.6 95,142.5 95.1,141.8 95.5,141.9 				"/>
				<path id="Fill-143" class="st9" d="M147.5,35.8l-0.4-0.3l0.9-1.1l0.4,0.3L147.5,35.8z M145.6,38.1l-0.4-0.3l0.9-1.1l0.4,0.3
					L145.6,38.1z M143.7,40.4l-0.4-0.3l0.9-1.1l0.4,0.3L143.7,40.4z M141.9,42.7l-0.4-0.3l0.9-1.1l0.4,0.3L141.9,42.7z M140,45
					l-0.4-0.3l0.9-1.1l0.4,0.3L140,45z M138.1,47.3l-0.4-0.3l0.9-1.1l0.4,0.3L138.1,47.3z M136.2,49.6l-0.4-0.3l0.9-1.1l0.4,0.3
					L136.2,49.6z M134.4,51.8l-0.4-0.3l0.9-1.1l0.4,0.3L134.4,51.8z M132.5,54.1l-0.4-0.3l0.9-1.1l0.4,0.3L132.5,54.1z M130.6,56.4
					l-0.4-0.3l0.9-1.1l0.4,0.3L130.6,56.4z M128.7,58.7l-0.4-0.3l0.9-1.1l0.4,0.3L128.7,58.7z M126.9,61l-0.4-0.3l0.9-1.1l0.4,0.3
					L126.9,61z M125,63.3l-0.4-0.3l0.9-1.1l0.4,0.3L125,63.3z M123.1,65.6l-0.4-0.3l0.9-1.1l0.4,0.3L123.1,65.6z M121.2,67.8
					l-0.4-0.3l0.9-1.1l0.4,0.3L121.2,67.8z M119.4,70.1l-0.4-0.3l0.9-1.1l0.4,0.3L119.4,70.1z M117.5,72.4l-0.4-0.3l0.9-1.1l0.4,0.3
					L117.5,72.4z M115.6,74.7l-0.4-0.3l0.9-1.1l0.4,0.3L115.6,74.7z M113.7,77l-0.4-0.3l0.9-1.1l0.4,0.3L113.7,77z M111.9,79.3
					l-0.4-0.3l0.9-1.1l0.4,0.3L111.9,79.3z M110,81.6l-0.4-0.3l0.9-1.1l0.4,0.3L110,81.6z M108.1,83.8l-0.4-0.3l0.9-1.1l0.4,0.3
					L108.1,83.8z M106.3,86.1l-0.4-0.3l0.9-1.1l0.4,0.3L106.3,86.1z M104.4,88.4l-0.4-0.3L105,87l0.4,0.3L104.4,88.4z M102.7,90.7
					l-0.5-0.1l0-0.4l0.8-1l0.4,0.3l-0.7,0.9L102.7,90.7z M102.3,93.6l-0.5-0.1l0.2-1.5l0.5,0.1L102.3,93.6z M101.9,96.5l-0.5-0.1
					l0.2-1.5l0.5,0.1L101.9,96.5z M101.5,99.4l-0.5-0.1l0.2-1.5l0.5,0.1L101.5,99.4z M101.1,102.4l-0.5-0.1l0.2-1.5l0.5,0.1
					L101.1,102.4z M100.6,105.3l-0.5-0.1l0.2-1.5l0.5,0.1L100.6,105.3z M100.2,108.2l-0.5-0.1l0.2-1.5l0.5,0.1L100.2,108.2z
					 M99.8,111.1l-0.5-0.1l0.2-1.5l0.5,0.1L99.8,111.1z M99.4,114.1L99,114l0.2-1.5l0.5,0.1L99.4,114.1z M99,117l-0.5-0.1l0.2-1.5
					l0.5,0.1L99,117z M98.6,119.9l-0.5-0.1l0.2-1.5l0.5,0.1L98.6,119.9z M98.2,122.8l-0.5-0.1l0.2-1.5l0.5,0.1L98.2,122.8z
					 M97.8,125.8l-0.5-0.1l0.2-1.5l0.5,0.1L97.8,125.8z M97.4,128.7l-0.5-0.1l0.2-1.5l0.5,0.1L97.4,128.7z M96.9,131.6l-0.5-0.1
					l0.2-1.5l0.5,0.1L96.9,131.6z M96.5,134.6l-0.5-0.1l0.2-1.5l0.5,0.1L96.5,134.6z M96.1,137.5l-0.5-0.1l0.2-1.5l0.5,0.1
					L96.1,137.5z M95.7,140.4l-0.5-0.1l0.2-1.5l0.5,0.1L95.7,140.4z"/>
				<polygon id="Fill-145" class="st9" points="149.4,33.6 149,33.3 149.5,32.7 149.8,33 				"/>
				<path id="Fill-147" class="st9" d="M150.4,33.5c0.4-0.4,0.3-1.1-0.1-1.5c-0.4-0.4-1.1-0.3-1.5,0.1c-0.4,0.4-0.3,1.1,0.1,1.5
					C149.4,34,150.1,34,150.4,33.5"/>
				<polygon id="Fill-149" class="st9" points="186.2,156.8 186.1,156.1 186.6,156.1 186.7,156.8 				"/>
				<path id="Fill-151" class="st9" d="M171.8,51.6l-0.2-1.4l0.5-0.1l0.2,1.4L171.8,51.6z M172.2,54.5L172,53l0.5-0.1l0.2,1.4
					L172.2,54.5z M172.6,57.3l-0.2-1.4l0.5-0.1l0.2,1.4L172.6,57.3z M173,60.2l-0.2-1.4l0.5-0.1l0.2,1.4L173,60.2z M173.4,63.1
					l-0.2-1.4l0.5-0.1l0.2,1.4L173.4,63.1z M173.8,65.9l-0.2-1.4l0.5-0.1l0.2,1.4L173.8,65.9z M174.2,68.8l-0.2-1.4l0.5-0.1l0.2,1.4
					L174.2,68.8z M174.6,71.7l-0.2-1.4l0.5-0.1l0.2,1.4L174.6,71.7z M175,74.5l-0.2-1.4l0.5-0.1l0.2,1.4L175,74.5z M175.3,77.4
					l-0.2-1.4l0.5-0.1l0.2,1.4L175.3,77.4z M175.7,80.2l-0.2-1.4l0.5-0.1l0.2,1.4L175.7,80.2z M176.1,83.1l-0.2-1.4l0.5-0.1l0.2,1.4
					L176.1,83.1z M176.5,86l-0.2-1.4l0.5-0.1l0.2,1.4L176.5,86z M176.9,88.8l-0.2-1.4l0.5-0.1l0.2,1.4L176.9,88.8z M177.3,91.7
					l-0.2-1.4l0.5-0.1l0.2,1.4L177.3,91.7z M177.7,94.6l-0.2-1.4l0.5-0.1l0.2,1.4L177.7,94.6z M178.1,97.4l-0.2-1.4l0.5-0.1l0.2,1.4
					L178.1,97.4z M178.5,100.3l-0.2-1.4l0.5-0.1l0.2,1.4L178.5,100.3z M178.9,103.2l-0.2-1.4l0.5-0.1l0.2,1.4L178.9,103.2z
					 M179.3,106l-0.2-1.4l0.5-0.1l0.2,1.4L179.3,106z M179.7,108.9l-0.2-1.4l0.5-0.1l0.2,1.4L179.7,108.9z M180,111.7l-0.2-1.4
					l0.5-0.1l0.2,1.4L180,111.7z M180.4,114.6l-0.2-1.4l0.5-0.1l0.2,1.4L180.4,114.6z M180.8,117.5l-0.2-1.4l0.5-0.1l0.2,1.4
					L180.8,117.5z M181.2,120.3l-0.2-1.4l0.5-0.1l0.2,1.4L181.2,120.3z M181.6,123.2l-0.2-1.4l0.5-0.1l0.2,1.4L181.6,123.2z
					 M182,126.1l-0.2-1.4l0.5-0.1l0.2,1.4L182,126.1z M182.4,128.9l-0.2-1.4l0.5-0.1l0.2,1.4L182.4,128.9z M182.8,131.8l-0.2-1.4
					l0.5-0.1l0.2,1.4L182.8,131.8z M183.2,134.6l-0.2-1.4l0.5-0.1l0.2,1.4L183.2,134.6z M183.6,137.5l-0.2-1.4l0.5-0.1l0.2,1.4
					L183.6,137.5z M184,140.4l-0.2-1.4l0.5-0.1l0.2,1.4L184,140.4z M184.4,143.2l-0.2-1.4l0.5-0.1l0.2,1.4L184.4,143.2z
					 M184.7,146.1l-0.2-1.4l0.5-0.1l0.2,1.4L184.7,146.1z M185.1,149l-0.2-1.4l0.5-0.1l0.2,1.4L185.1,149z M185.5,151.8l-0.2-1.4
					l0.5-0.1l0.2,1.4L185.5,151.8z M185.9,154.7l-0.2-1.4l0.5-0.1l0.2,1.4L185.9,154.7z"/>
				<polygon id="Fill-153" class="st9" points="171.4,48.8 171.3,48 171.8,48 171.9,48.7 				"/>
				<path id="Fill-155" class="st9" d="M187.5,156.6c0.1,0.6-0.3,1.1-0.9,1.2c-0.6,0.1-1.1-0.3-1.2-0.9c-0.1-0.6,0.3-1.1,0.9-1.2
					C186.9,155.7,187.4,156.1,187.5,156.6"/>
				<polygon id="Fill-157" class="st9" points="178.2,204 177.6,203.5 177.9,203.1 178.5,203.6 				"/>
				<path id="Fill-159" class="st9" d="M121.7,161.5l-1.3-0.8l0.2-0.4l1.3,0.8L121.7,161.5z M124.2,163.2l-1.3-0.8l0.2-0.4l1.3,0.8
					L124.2,163.2z M126.7,164.8l-1.3-0.8l0.2-0.4l1.3,0.8L126.7,164.8z M129.2,166.4l-1.3-0.8l0.2-0.4l1.3,0.8L129.2,166.4z
					 M131.7,168l-1.3-0.8l0.2-0.4l1.3,0.8L131.7,168z M134.2,169.6l-1.3-0.8l0.2-0.4l1.3,0.8L134.2,169.6z M136.7,171.2l-1.3-0.8
					l0.2-0.4l1.3,0.8L136.7,171.2z M139.3,172.8L138,172l0.2-0.4l1.3,0.8L139.3,172.8z M141.8,174.5l-1.3-0.8l0.2-0.4l1.3,0.8
					L141.8,174.5z M144.3,176.1l-1.3-0.8l0.2-0.4l1.3,0.8L144.3,176.1z M146.8,177.7l-1.3-0.8l0.2-0.4l1.3,0.8L146.8,177.7z
					 M149.3,179.3l-1.3-0.8l0.2-0.4l1.3,0.8L149.3,179.3z M151.6,181.1l-1.1-1l0.3-0.3l1.1,1L151.6,181.1z M153.9,183.1l-1.1-1
					l0.3-0.3l1.1,1L153.9,183.1z M156.1,185l-1.1-1l0.3-0.3l1.1,1L156.1,185z M158.4,187l-1.1-1l0.3-0.3l1.1,1L158.4,187z
					 M160.7,188.9l-1.1-1l0.3-0.3l1.1,1L160.7,188.9z M162.9,190.8l-1.1-1l0.3-0.3l1.1,1L162.9,190.8z M165.2,192.8l-1.1-1l0.3-0.3
					l1.1,1L165.2,192.8z M167.4,194.7l-1.1-1l0.3-0.3l1.1,1L167.4,194.7z M169.7,196.7l-1.1-1l0.3-0.3l1.1,1L169.7,196.7z
					 M172,198.6l-1.1-1l0.3-0.3l1.1,1L172,198.6z M174.2,200.6l-1.1-1l0.3-0.3l1.1,1L174.2,200.6z M176.5,202.5l-1.1-1l0.3-0.3
					l1.1,1L176.5,202.5z"/>
				<polygon id="Fill-161" class="st9" points="119.2,159.9 118.6,159.5 118.8,159.1 119.4,159.5 				"/>
				<path id="Fill-163" class="st9" d="M179,203c0.4,0.4,0.5,1,0.1,1.5c-0.4,0.4-1,0.5-1.5,0.1c-0.4-0.4-0.5-1-0.1-1.5
					C177.9,202.6,178.5,202.6,179,203"/>
				<polygon id="Fill-165" class="st9" points="311.2,225.8 310.5,225.8 310.5,225.3 311.2,225.4 				"/>
				<path id="Fill-167" class="st9" d="M194.2,222.6l-1.5,0l0-0.5l1.5,0L194.2,222.6z M197.1,222.7l-1.5,0l0-0.5l1.5,0L197.1,222.7z
					 M200,222.8l-1.5,0l0-0.5l1.5,0L200,222.8z M203,222.9l-1.5,0l0-0.5l1.5,0L203,222.9z M205.9,222.9l-1.5,0l0-0.5l1.5,0
					L205.9,222.9z M208.9,223l-1.5,0l0-0.5l1.5,0L208.9,223z M211.8,223.1l-1.5,0l0-0.5l1.5,0L211.8,223.1z M214.8,223.2l-1.5,0
					l0-0.5l1.5,0L214.8,223.2z M217.7,223.3l-1.5,0l0-0.5l1.5,0L217.7,223.3z M220.7,223.3l-1.5,0l0-0.5l1.5,0L220.7,223.3z
					 M223.6,223.4l-1.5,0l0-0.5l1.5,0L223.6,223.4z M226.6,223.5l-1.5,0l0-0.5l1.5,0L226.6,223.5z M229.5,223.6l-1.5,0l0-0.5l1.5,0
					L229.5,223.6z M232.4,223.7l-1.5,0l0-0.5l1.5,0L232.4,223.7z M235.4,223.8l-1.5,0l0-0.5l1.5,0L235.4,223.8z M238.3,223.8l-1.5,0
					l0-0.5l1.5,0L238.3,223.8z M241.3,223.9l-1.5,0l0-0.5l1.5,0L241.3,223.9z M244.2,224l-1.5,0l0-0.5l1.5,0L244.2,224z
					 M247.2,224.1l-1.5,0l0-0.5l1.5,0L247.2,224.1z M250.1,224.2l-1.5,0l0-0.5l1.5,0L250.1,224.2z M253.1,224.2l-1.5,0l0-0.5l1.5,0
					L253.1,224.2z M256,224.3l-1.5,0l0-0.5l1.5,0L256,224.3z M258.9,224.4l-1.5,0l0-0.5l1.5,0L258.9,224.4z M261.9,224.5l-1.5,0
					l0-0.5l1.5,0L261.9,224.5z M264.8,224.6l-1.5,0l0-0.5l1.5,0L264.8,224.6z M267.8,224.6l-1.5,0l0-0.5l1.5,0L267.8,224.6z
					 M270.7,224.7l-1.5,0l0-0.5l1.5,0L270.7,224.7z M273.7,224.8l-1.5,0l0-0.5l1.5,0L273.7,224.8z M276.6,224.9l-1.5,0l0-0.5l1.5,0
					L276.6,224.9z M279.6,225l-1.5,0l0-0.5l1.5,0L279.6,225z M282.5,225l-1.5,0l0-0.5l1.5,0L282.5,225z M285.5,225.1l-1.5,0l0-0.5
					l1.5,0L285.5,225.1z M288.4,225.2l-1.5,0l0-0.5l1.5,0L288.4,225.2z M291.3,225.3l-1.5,0l0-0.5l1.5,0L291.3,225.3z M294.3,225.4
					l-1.5,0l0-0.5l1.5,0L294.3,225.4z M297.2,225.4l-1.5,0l0-0.5l1.5,0L297.2,225.4z M300.2,225.5l-1.5,0l0-0.5l1.5,0L300.2,225.5z
					 M303.1,225.6l-1.5,0l0-0.5l1.5,0L303.1,225.6z M306.1,225.7l-1.5,0l0-0.5l1.5,0L306.1,225.7z M309,225.8l-1.5,0l0-0.5l1.5,0
					L309,225.8z"/>
				<polygon id="Fill-169" class="st9" points="191.2,222.5 190.5,222.5 190.5,222.1 191.2,222.1 				"/>
				<path id="Fill-171" class="st9" d="M311.2,224.6c0.6,0,1,0.5,1,1.1c0,0.6-0.5,1-1.1,1c-0.6,0-1-0.5-1-1.1
					C310.2,225,310.6,224.5,311.2,224.6"/>
				<polygon id="Fill-173" class="st9" points="106.3,376.3 105.7,375.8 106,375.5 106.6,376 				"/>
				<path id="Fill-175" class="st9" d="M108.4,378.2l-1.1-1l0.3-0.3l1.1,1L108.4,378.2z M110.6,380.1l-1.1-1l0.3-0.3l1.1,1
					L110.6,380.1z M112.8,382l-1.1-1l0.3-0.3l1.1,1L112.8,382z M114.9,383.9l-1.1-1l0.3-0.3l1.1,1L114.9,383.9z M117.1,385.8l-1.1-1
					l0.3-0.3l1.1,1L117.1,385.8z M119.3,387.7l-1.1-1l0.3-0.3l1.1,1L119.3,387.7z M121.4,389.6l-1.1-1l0.3-0.3l1.1,1L121.4,389.6z
					 M123.6,391.6l-1.1-1l0.3-0.3l1.1,1L123.6,391.6z M125.8,393.5l-1.1-1l0.3-0.3l1.1,1L125.8,393.5z M127.9,395.4l-1.1-1l0.3-0.3
					l1.1,1L127.9,395.4z M130.1,397.3l-1.1-1l0.3-0.3l1.1,1L130.1,397.3z M132.3,399.2l-1.1-1l0.3-0.3l1.1,1L132.3,399.2z
					 M134.4,401.1l-1.1-1l0.3-0.3l1.1,1L134.4,401.1z M136.6,403l-1.1-1l0.3-0.3l1.1,1L136.6,403z M138.8,404.9l-1.1-1l0.3-0.3
					l1.1,1L138.8,404.9z M140.9,406.8l-1.1-1l0.3-0.3l1.1,1L140.9,406.8z M143.1,408.7l-1.1-1l0.3-0.3l1.1,1L143.1,408.7z
					 M145.8,409.9l-1.3-0.5l0.2-0.4l1.3,0.5L145.8,409.9z M148.5,411l-1.3-0.5l0.2-0.4l1.3,0.5L148.5,411z M151.1,412.1l-1.3-0.5
					l0.2-0.4l1.3,0.5L151.1,412.1z M153.8,413.2l-1.3-0.5l0.2-0.4l1.3,0.5L153.8,413.2z M156.5,414.3l-1.3-0.5l0.2-0.4l1.3,0.5
					L156.5,414.3z M159.2,415.4l-1.3-0.5l0.2-0.4l1.3,0.5L159.2,415.4z M161.8,416.4l-1.3-0.5l0.2-0.4l1.3,0.5L161.8,416.4z
					 M164.5,417.5l-1.3-0.5l0.2-0.4l1.3,0.5L164.5,417.5z M167.2,418.6l-1.3-0.5l0.2-0.4l1.3,0.5L167.2,418.6z M169.9,419.7
					l-1.3-0.5l0.2-0.4l1.3,0.5L169.9,419.7z M172.5,420.8l-1.3-0.5l0.2-0.4l1.3,0.5L172.5,420.8z M175.2,421.9l-1.3-0.5l0.2-0.4
					l1.3,0.5L175.2,421.9z"/>
				<polygon id="Fill-177" class="st9" points="177.2,422.7 176.5,422.4 176.7,422 177.4,422.3 				"/>
				<path id="Fill-179" class="st9" d="M105.2,376.5c-0.4-0.4-0.5-1-0.1-1.5c0.4-0.4,1-0.5,1.5-0.1c0.4,0.4,0.5,1,0.1,1.5
					C106.3,376.8,105.7,376.8,105.2,376.5"/>
				<polygon id="Fill-181" class="st9" points="202.4,392.8 202.3,392 202.8,392 202.8,392.7 				"/>
				<path id="Fill-183" class="st9" d="M186.6,230.4l-0.1-1.5l0.5,0l0.1,1.5L186.6,230.4z M186.9,233.3l-0.1-1.5l0.5,0l0.1,1.5
					L186.9,233.3z M187.2,236.2l-0.1-1.5l0.5,0l0.1,1.5L187.2,236.2z M187.4,239.1l-0.1-1.5l0.5,0l0.1,1.5L187.4,239.1z
					 M187.7,242.1l-0.1-1.5l0.5,0l0.1,1.5L187.7,242.1z M188,245l-0.1-1.5l0.5,0l0.1,1.5L188,245z M188.3,247.9l-0.1-1.5l0.5,0
					l0.1,1.5L188.3,247.9z M188.6,250.8l-0.1-1.5l0.5,0l0.1,1.5L188.6,250.8z M188.9,253.7l-0.1-1.5l0.5,0l0.1,1.5L188.9,253.7z
					 M189.1,256.6l-0.1-1.5l0.5,0l0.1,1.5L189.1,256.6z M189.4,259.5l-0.1-1.5l0.5,0l0.1,1.5L189.4,259.5z M189.7,262.4l-0.1-1.5
					l0.5,0l0.1,1.5L189.7,262.4z M190,265.4l-0.1-1.5l0.5,0l0.1,1.5L190,265.4z M190.3,268.3l-0.1-1.5l0.5,0l0.1,1.5L190.3,268.3z
					 M190.6,271.2l-0.1-1.5l0.5,0l0.1,1.5L190.6,271.2z M190.8,274.1l-0.1-1.5l0.5,0l0.1,1.5L190.8,274.1z M191.1,277l-0.1-1.5
					l0.5,0l0.1,1.5L191.1,277z M191.4,279.9l-0.1-1.5l0.5,0l0.1,1.5L191.4,279.9z M191.7,282.8l-0.1-1.5l0.5,0l0.1,1.5L191.7,282.8z
					 M192,285.7l-0.1-1.5l0.5,0l0.1,1.5L192,285.7z M192.3,288.7l-0.1-1.5l0.5,0l0.1,1.5L192.3,288.7z M192.5,291.6l-0.1-1.5l0.5,0
					l0.1,1.5L192.5,291.6z M192.8,294.5l-0.1-1.5l0.5,0l0.1,1.5L192.8,294.5z M193.1,297.4l-0.1-1.5l0.5,0l0.1,1.5L193.1,297.4z
					 M193.4,300.3l-0.1-1.5l0.5,0l0.1,1.5L193.4,300.3z M193.7,303.2l-0.1-1.5l0.5,0l0.1,1.5L193.7,303.2z M193.9,306.1l-0.1-1.5
					l0.5,0l0.1,1.5L193.9,306.1z M194.2,309l-0.1-1.5l0.5,0l0.1,1.5L194.2,309z M194.5,311.9l-0.1-1.5l0.5,0l0.1,1.5L194.5,311.9z
					 M194.8,314.9l-0.1-1.5l0.5,0l0.1,1.5L194.8,314.9z M195.1,317.8l-0.1-1.5l0.5,0l0.1,1.5L195.1,317.8z M195.4,320.7l-0.1-1.5
					l0.5,0l0.1,1.5L195.4,320.7z M195.6,323.6l-0.1-1.5l0.5,0l0.1,1.5L195.6,323.6z M195.9,326.5l-0.1-1.5l0.5,0l0.1,1.5
					L195.9,326.5z M196.2,329.4l-0.1-1.5l0.5,0l0.1,1.5L196.2,329.4z M196.5,332.3l-0.1-1.5l0.5,0l0.1,1.5L196.5,332.3z
					 M196.8,335.2l-0.1-1.5l0.5,0l0.1,1.5L196.8,335.2z M197.1,338.2l-0.1-1.5l0.5,0l0.1,1.5L197.1,338.2z M197.3,341.1l-0.1-1.5
					l0.5,0l0.1,1.5L197.3,341.1z M197.6,344l-0.1-1.5l0.5,0l0.1,1.5L197.6,344z M197.9,346.9l-0.1-1.5l0.5,0l0.1,1.5L197.9,346.9z
					 M198.2,349.8l-0.1-1.5l0.5,0l0.1,1.5L198.2,349.8z M198.5,352.7l-0.1-1.5l0.5,0l0.1,1.5L198.5,352.7z M198.8,355.6l-0.1-1.5
					l0.5,0l0.1,1.5L198.8,355.6z M199,358.5l-0.1-1.5l0.5,0l0.1,1.5L199,358.5z M199.3,361.5l-0.1-1.5l0.5,0l0.1,1.5L199.3,361.5z
					 M199.6,364.4l-0.1-1.5l0.5,0l0.1,1.5L199.6,364.4z M199.9,367.3l-0.1-1.5l0.5,0l0.1,1.5L199.9,367.3z M200.2,370.2l-0.1-1.5
					l0.5,0l0.1,1.5L200.2,370.2z M200.5,373.1l-0.1-1.5l0.5,0l0.1,1.5L200.5,373.1z M200.7,376l-0.1-1.5l0.5,0l0.1,1.5L200.7,376z
					 M201,378.9l-0.1-1.5l0.5,0l0.1,1.5L201,378.9z M201.3,381.8l-0.1-1.5l0.5,0l0.1,1.5L201.3,381.8z M201.6,384.7l-0.1-1.5l0.5,0
					l0.1,1.5L201.6,384.7z M201.9,387.7l-0.1-1.5l0.5,0l0.1,1.5L201.9,387.7z M202.2,390.6l-0.1-1.5l0.5,0l0.1,1.5L202.2,390.6z"/>
				<polygon id="Fill-185" class="st9" points="186.3,227.5 186.2,226.8 186.7,226.7 186.8,227.5 				"/>
				<path id="Fill-187" class="st9" d="M203.6,392.6c0.1,0.6-0.4,1.1-0.9,1.1c-0.6,0.1-1.1-0.4-1.1-0.9c-0.1-0.6,0.4-1.1,0.9-1.1
					C203.1,391.6,203.6,392,203.6,392.6"/>
				<polygon id="Fill-189" class="st9" points="46.3,302.6 46.1,301.9 46.5,301.8 46.8,302.5 				"/>
				<path id="Fill-191" class="st9" d="M47.1,305.4l-0.4-1.4l0.4-0.1l0.4,1.4L47.1,305.4z M47.9,308.2l-0.4-1.4l0.4-0.1l0.4,1.4
					L47.9,308.2z M48.8,311l-0.4-1.4l0.4-0.1l0.4,1.4L48.8,311z M49.6,313.8l-0.4-1.4l0.4-0.1l0.4,1.4L49.6,313.8z M50.4,316.6
					l-0.4-1.4l0.4-0.1l0.4,1.4L50.4,316.6z M51.2,319.3l-0.4-1.4l0.4-0.1l0.4,1.4L51.2,319.3z M52,322.1l-0.4-1.4l0.4-0.1l0.4,1.4
					L52,322.1z M52.8,324.9l-0.4-1.4l0.4-0.1l0.4,1.4L52.8,324.9z M53.7,327.7l-0.4-1.4l0.4-0.1l0.4,1.4L53.7,327.7z M54.5,330.5
					l-0.4-1.4l0.4-0.1l0.4,1.4L54.5,330.5z M55.3,333.3l-0.4-1.4l0.4-0.1l0.4,1.4L55.3,333.3z M56.1,336l-0.4-1.4l0.4-0.1l0.4,1.4
					L56.1,336z M56.9,338.8l-0.4-1.4l0.4-0.1l0.4,1.4L56.9,338.8z M57.8,341.6l-0.4-1.4l0.4-0.1l0.4,1.4L57.8,341.6z M58.6,344.4
					l-0.4-1.4l0.4-0.1l0.4,1.4L58.6,344.4z M59.4,347.2l-0.4-1.4l0.4-0.1l0.4,1.4L59.4,347.2z M60.2,349.9l-0.4-1.4l0.4-0.1l0.4,1.4
					L60.2,349.9z M61,352.7l-0.4-1.4l0.4-0.1l0.4,1.4L61,352.7z M61.8,355.5l-0.4-1.4l0.4-0.1l0.4,1.4L61.8,355.5z M62.7,358.3
					l-0.4-1.4l0.4-0.1l0.4,1.4L62.7,358.3z M63.5,361.1l-0.4-1.4l0.4-0.1l0.4,1.4L63.5,361.1z M64.3,363.9l-0.4-1.4l0.4-0.1l0.4,1.4
					L64.3,363.9z M65.1,366.6l-0.4-1.4l0.4-0.1l0.4,1.4L65.1,366.6z M65.9,369.4l-0.4-1.4l0.4-0.1l0.4,1.4L65.9,369.4z M66.7,372.2
					l-0.4-1.4l0.4-0.1l0.4,1.4L66.7,372.2z M67.6,375l-0.4-1.4l0.4-0.1l0.4,1.4L67.6,375z M68.4,377.8l-0.4-1.4l0.4-0.1l0.4,1.4
					L68.4,377.8z M69.2,380.6l-0.4-1.4l0.4-0.1l0.4,1.4L69.2,380.6z M70,383.3l-0.4-1.4l0.4-0.1l0.4,1.4L70,383.3z M70.8,386.1
					l-0.4-1.4l0.4-0.1l0.4,1.4L70.8,386.1z M71.6,388.9l-0.4-1.4l0.4-0.1l0.4,1.4L71.6,388.9z M72.5,391.7l-0.4-1.4l0.4-0.1l0.4,1.4
					L72.5,391.7z"/>
				<polygon id="Fill-193" class="st9" points="73.1,393.8 72.9,393.1 73.3,392.9 73.5,393.6 				"/>
				<path id="Fill-195" class="st9" d="M45.3,302.2c-0.2-0.5,0.2-1.1,0.7-1.3c0.5-0.2,1.1,0.2,1.3,0.7c0.2,0.5-0.2,1.1-0.7,1.3
					C46.1,303.1,45.5,302.8,45.3,302.2"/>
				<polygon id="Fill-197" class="st9" points="151,231.8 151,231.4 151.7,231.3 151.7,231.8 				"/>
				<path id="Fill-199" class="st9" d="M148.1,232l0-0.5l1.5-0.1l0,0.5L148.1,232z M145.2,232.2l0-0.5l1.5-0.1l0,0.5L145.2,232.2z
					 M142.3,232.4l0-0.5l1.5-0.1l0,0.5L142.3,232.4z M139.3,232.7l0-0.5l1.5-0.1l0,0.5L139.3,232.7z M136.4,232.9l0-0.5l1.5-0.1
					l0,0.5L136.4,232.9z M133.5,233.1l0-0.5l1.5-0.1l0,0.5L133.5,233.1z M130.6,233.3l0-0.5l1.5-0.1l0,0.5L130.6,233.3z
					 M127.7,233.5l0-0.5l1.5-0.1l0,0.5L127.7,233.5z M124.8,233.7l0-0.5l1.5-0.1l0,0.5L124.8,233.7z M121.9,233.9l0-0.5l1.5-0.1
					l0,0.5L121.9,233.9z M118.9,234.1l0-0.5l1.5-0.1l0,0.5L118.9,234.1z M116,234.3l0-0.5l1.5-0.1l0,0.5L116,234.3z M113.1,234.5
					l0-0.5l1.5-0.1l0,0.5L113.1,234.5z M110.2,234.7l0-0.5l1.5-0.1l0,0.5L110.2,234.7z M107.3,234.9l0-0.5l1.5-0.1l0,0.5
					L107.3,234.9z M104.4,235.1l0-0.5l1.5-0.1l0,0.5L104.4,235.1z M101.4,235.3l0-0.5l1.5-0.1l0,0.5L101.4,235.3z M98.5,235.5l0-0.5
					l1.5-0.1l0,0.5L98.5,235.5z M95.6,235.7l0-0.5l1.5-0.1l0,0.5L95.6,235.7z M92.7,235.9l0-0.5l1.5-0.1l0,0.5L92.7,235.9z
					 M89.8,236.1l0-0.5l1.5-0.1l0,0.5L89.8,236.1z M86.9,236.3l0-0.5l1.5-0.1l0,0.5L86.9,236.3z M83.9,236.5l0-0.5l1.5-0.1l0,0.5
					L83.9,236.5z M81,236.8l0-0.5l1.5-0.1l0,0.5L81,236.8z M78.1,237l0-0.5l1.5-0.1l0,0.5L78.1,237z M75.2,237.2l0-0.5l1.5-0.1
					l0,0.5L75.2,237.2z M72.3,237.4l0-0.5l1.5-0.1l0,0.5L72.3,237.4z M69.4,237.6l0-0.5l1.5-0.1l0,0.5L69.4,237.6z M66.4,237.8
					l0-0.5l1.5-0.1l0,0.5L66.4,237.8z M63.5,238l0-0.5l1.5-0.1l0,0.5L63.5,238z M60.6,238.2l0-0.5l1.5-0.1l0,0.5L60.6,238.2z
					 M57.7,238.4l0-0.5l1.5-0.1l0,0.5L57.7,238.4z M54.8,238.6l0-0.5l1.5-0.1l0,0.5L54.8,238.6z M51.9,238.8l0-0.5l1.5-0.1l0,0.5
					L51.9,238.8z M48.9,239l0-0.5l1.5-0.1l0,0.5L48.9,239z M46,239.2l0-0.5l1.5-0.1l0,0.5L46,239.2z M43.1,239.4l0-0.5l1.5-0.1
					l0,0.5L43.1,239.4z"/>
				<polygon id="Fill-201" class="st9" points="40.9,239.6 40.9,239.1 41.6,239.1 41.7,239.5 				"/>
				<path id="Fill-203" class="st9" d="M151.6,230.5c0.6,0,1.1,0.4,1.1,1c0,0.6-0.4,1.1-1,1.1c-0.6,0-1.1-0.4-1.1-1
					C150.6,231.1,151,230.6,151.6,230.5"/>
				<polygon id="Fill-205" class="st9" points="229.7,265.8 229.3,265.2 229.6,264.9 230.1,265.4 				"/>
				<path id="Fill-207" class="st9" d="M231.7,267.9l-1-1.1l0.3-0.3l1,1.1L231.7,267.9z M233.7,270.1l-1-1.1l0.3-0.3l1,1.1
					L233.7,270.1z M235.6,272.3l-1-1.1l0.3-0.3l1,1.1L235.6,272.3z M237.6,274.5l-1-1.1l0.3-0.3l1,1.1L237.6,274.5z M239.5,276.7
					l-1-1.1l0.3-0.3l1,1.1L239.5,276.7z M241.5,278.9l-1-1.1l0.3-0.3l1,1.1L241.5,278.9z M243.4,281l-1-1.1l0.3-0.3l1,1.1L243.4,281
					z M245.4,283.2l-1-1.1l0.3-0.3l1,1.1L245.4,283.2z M247.4,285.4l-1-1.1l0.3-0.3l1,1.1L247.4,285.4z M249.3,287.6l-1-1.1l0.3-0.3
					l1,1.1L249.3,287.6z M251.3,289.8l-1-1.1l0.3-0.3l1,1.1L251.3,289.8z M253.2,292l-1-1.1l0.3-0.3l1,1.1L253.2,292z M255.2,294.2
					l-1-1.1l0.3-0.3l1,1.1L255.2,294.2z M257.1,296.3l-1-1.1l0.3-0.3l1,1.1L257.1,296.3z M259.1,298.5l-1-1.1l0.3-0.3l1,1.1
					L259.1,298.5z M261.1,300.7l-1-1.1l0.3-0.3l1,1.1L261.1,300.7z M263,302.9l-1-1.1l0.3-0.3l1,1.1L263,302.9z M265,305.1l-1-1.1
					l0.3-0.3l1,1.1L265,305.1z M266.9,307.3l-1-1.1l0.3-0.3l1,1.1L266.9,307.3z M268.9,309.4l-1-1.1l0.3-0.3l1,1.1L268.9,309.4z
					 M270.9,311.6l-1-1.1l0.3-0.3l1,1.1L270.9,311.6z M272.8,313.8l-1-1.1l0.3-0.3l1,1.1L272.8,313.8z M274.8,316l-1-1.1l0.3-0.3
					l1,1.1L274.8,316z M276.5,318.3l-0.9-1.2l0.4-0.3l0.9,1.2L276.5,318.3z M278.3,320.7l-0.9-1.2l0.4-0.3l0.9,1.2L278.3,320.7z
					 M280,323l-0.9-1.2l0.4-0.3l0.9,1.2L280,323z M281.8,325.4l-0.9-1.2l0.4-0.3l0.9,1.2L281.8,325.4z M283.5,327.7l-0.9-1.2
					l0.4-0.3l0.9,1.2L283.5,327.7z M285.3,330.1l-0.9-1.2l0.4-0.3l0.9,1.2L285.3,330.1z M287,332.5l-0.9-1.2l0.4-0.3l0.9,1.2
					L287,332.5z M288.7,334.8l-0.9-1.2l0.4-0.3l0.9,1.2L288.7,334.8z M290.5,337.2l-0.9-1.2l0.4-0.3l0.9,1.2L290.5,337.2z
					 M292.2,339.5l-0.9-1.2l0.4-0.3l0.9,1.2L292.2,339.5z M294,341.9l-0.9-1.2l0.4-0.3l0.9,1.2L294,341.9z M295.7,344.2l-0.9-1.2
					l0.4-0.3l0.9,1.2L295.7,344.2z M297.5,346.6l-0.9-1.2l0.4-0.3l0.9,1.2L297.5,346.6z M299.2,349l-0.9-1.2l0.4-0.3l0.9,1.2
					L299.2,349z M300.9,351.3l-0.9-1.2l0.4-0.3l0.9,1.2L300.9,351.3z M302.7,353.7l-0.9-1.2l0.4-0.3l0.9,1.2L302.7,353.7z
					 M304.4,356l-0.9-1.2l0.4-0.3l0.9,1.2L304.4,356z M306.2,358.4l-0.9-1.2l0.4-0.3l0.9,1.2L306.2,358.4z M307.9,360.8l-0.9-1.2
					l0.4-0.3l0.9,1.2L307.9,360.8z M309.7,363.1l-0.9-1.2l0.4-0.3l0.9,1.2L309.7,363.1z M311.4,365.5l-0.9-1.2l0.4-0.3l0.9,1.2
					L311.4,365.5z M313.2,367.8l-0.9-1.2l0.4-0.3l0.9,1.2L313.2,367.8z M314.9,370.2L314,369l0.4-0.3l0.9,1.2L314.9,370.2z
					 M316.6,372.5l-0.9-1.2l0.4-0.3l0.9,1.2L316.6,372.5z M318.4,374.9l-0.9-1.2l0.4-0.3l0.9,1.2L318.4,374.9z M320.1,377.3
					l-0.9-1.2l0.4-0.3l0.9,1.2L320.1,377.3z M321.9,379.6l-0.9-1.2l0.4-0.3l0.9,1.2L321.9,379.6z M323.6,382l-0.9-1.2l0.4-0.3
					l0.9,1.2L323.6,382z M325.4,384.3l-0.9-1.2l0.4-0.3l0.9,1.2L325.4,384.3z M327.1,386.7l-0.9-1.2l0.4-0.3l0.9,1.2L327.1,386.7z
					 M328.9,389l-0.9-1.2l0.4-0.3l0.9,1.2L328.9,389z M330.6,391.4l-0.9-1.2l0.4-0.3l0.9,1.2L330.6,391.4z M332.3,393.8l-0.9-1.2
					l0.4-0.3l0.9,1.2L332.3,393.8z M334.1,396.1l-0.9-1.2l0.4-0.3l0.9,1.2L334.1,396.1z M335.8,398.5l-0.9-1.2l0.4-0.3l0.9,1.2
					L335.8,398.5z M337.6,400.8l-0.9-1.2l0.4-0.3l0.9,1.2L337.6,400.8z M339.3,403.2l-0.9-1.2l0.4-0.3l0.9,1.2L339.3,403.2z
					 M341.1,405.6l-0.9-1.2l0.4-0.3l0.9,1.2L341.1,405.6z M342.8,407.9l-0.9-1.2l0.4-0.3l0.9,1.2L342.8,407.9z M344.6,410.3
					l-0.9-1.2l0.4-0.3l0.9,1.2L344.6,410.3z M346.3,412.6l-0.9-1.2l0.4-0.3l0.9,1.2L346.3,412.6z M348,415l-0.9-1.2l0.4-0.3l0.9,1.2
					L348,415z M349.8,417.3l-0.9-1.2l0.4-0.3l0.9,1.2L349.8,417.3z M351.5,419.7l-0.9-1.2l0.4-0.3l0.9,1.2L351.5,419.7z"/>
				<polygon id="Fill-209" class="st9" points="352.8,421.5 352.4,420.9 352.8,420.6 353.2,421.2 				"/>
				<path id="Fill-211" class="st9" d="M228.7,265.8c-0.4-0.4-0.3-1.1,0.1-1.5c0.4-0.4,1.1-0.3,1.5,0.1c0.4,0.4,0.3,1.1-0.1,1.5
					C229.7,266.2,229.1,266.2,228.7,265.8"/>
				<polygon id="Fill-213" class="st9" points="88.6,270.4 88.3,269.8 88.8,269.6 89,270.3 				"/>
				<path id="Fill-215" class="st9" d="M89.7,273.1l-0.6-1.3l0.4-0.2l0.6,1.3L89.7,273.1z M90.8,275.8l-0.6-1.3l0.4-0.2l0.6,1.3
					L90.8,275.8z M92,278.5l-0.6-1.3l0.4-0.2l0.6,1.3L92,278.5z M93.1,281.1l-0.6-1.3l0.4-0.2l0.6,1.3L93.1,281.1z M94.2,283.8
					l-0.6-1.3l0.4-0.2l0.6,1.3L94.2,283.8z M95.3,286.5l-0.6-1.3l0.4-0.2l0.6,1.3L95.3,286.5z M96.4,289.1l-0.6-1.3l0.4-0.2l0.6,1.3
					L96.4,289.1z M97.5,291.8l-0.6-1.3l0.4-0.2l0.6,1.3L97.5,291.8z M98.6,294.5l-0.6-1.3l0.4-0.2l0.6,1.3L98.6,294.5z M99.8,297.1
					l-0.6-1.3l0.4-0.2l0.6,1.3L99.8,297.1z M100.9,299.8l-0.6-1.3l0.4-0.2l0.6,1.3L100.9,299.8z M102,302.5l-0.6-1.3l0.4-0.2
					l0.6,1.3L102,302.5z M103.1,305.1l-0.6-1.3l0.4-0.2l0.6,1.3L103.1,305.1z M104.2,307.8l-0.6-1.3l0.4-0.2l0.6,1.3L104.2,307.8z
					 M105.3,310.5l-0.6-1.3l0.4-0.2l0.6,1.3L105.3,310.5z M106.5,313.2l-0.6-1.3l0.4-0.2l0.6,1.3L106.5,313.2z M107.6,315.8
					l-0.6-1.3l0.4-0.2l0.6,1.3L107.6,315.8z M108.7,318.5l-0.6-1.3l0.4-0.2l0.6,1.3L108.7,318.5z M110.4,320.9l-0.8-1.2l0.4-0.3
					l0.8,1.2L110.4,320.9z M112.1,323.3l-0.8-1.2l0.4-0.3l0.8,1.2L112.1,323.3z M113.8,325.6l-0.8-1.2l0.4-0.3l0.8,1.2L113.8,325.6z
					 M115.5,327.9l-0.8-1.2l0.4-0.3l0.8,1.2L115.5,327.9z M117.1,330.3l-0.8-1.2l0.4-0.3l0.8,1.2L117.1,330.3z M118.8,332.6
					l-0.8-1.2l0.4-0.3l0.8,1.2L118.8,332.6z M120.5,335l-0.8-1.2l0.4-0.3l0.8,1.2L120.5,335z M122.2,337.3l-0.8-1.2l0.4-0.3l0.8,1.2
					L122.2,337.3z M123.9,339.7l-0.8-1.2l0.4-0.3l0.8,1.2L123.9,339.7z M125.6,342l-0.8-1.2l0.4-0.3l0.8,1.2L125.6,342z
					 M127.3,344.4l-0.8-1.2l0.4-0.3l0.8,1.2L127.3,344.4z M129,346.7l-0.8-1.2l0.4-0.3l0.8,1.2L129,346.7z M130.7,349.1l-0.8-1.2
					l0.4-0.3l0.8,1.2L130.7,349.1z M132.4,351.4l-0.8-1.2l0.4-0.3l0.8,1.2L132.4,351.4z"/>
				<polygon id="Fill-217" class="st9" points="133.7,353.2 133.2,352.6 133.6,352.3 134,352.9 				"/>
				<path id="Fill-219" class="st9" d="M87.6,270.1c-0.2-0.5,0-1.1,0.6-1.4c0.5-0.2,1.1,0,1.4,0.6c0.2,0.5,0,1.1-0.6,1.4
					C88.4,270.9,87.8,270.7,87.6,270.1"/>
				<polygon id="Fill-221" class="st9" points="113.9,452.4 113.3,452 113.5,451.6 114.1,452 				"/>
				<path id="Fill-223" class="st9" d="M116.3,454l-1.2-0.8l0.2-0.4l1.2,0.8L116.3,454z M118.8,455.6l-1.2-0.8l0.2-0.4l1.2,0.8
					L118.8,455.6z M121.3,457.2l-1.2-0.8l0.2-0.4l1.2,0.8L121.3,457.2z M123.7,458.8l-1.2-0.8l0.2-0.4l1.2,0.8L123.7,458.8z
					 M126.2,460.3l-1.2-0.8l0.2-0.4l1.2,0.8L126.2,460.3z M128.6,461.9l-1.2-0.8l0.2-0.4l1.2,0.8L128.6,461.9z M131.1,463.5
					l-1.2-0.8l0.2-0.4l1.2,0.8L131.1,463.5z M133.6,465.1l-1.2-0.8l0.2-0.4l1.2,0.8L133.6,465.1z M136,466.7l-1.2-0.8l0.2-0.4
					l1.2,0.8L136,466.7z M138.5,468.3l-1.2-0.8l0.2-0.4l1.2,0.8L138.5,468.3z M140.9,469.9l-1.2-0.8l0.2-0.4l1.2,0.8L140.9,469.9z
					 M143.4,471.5l-1.2-0.8l0.2-0.4l1.2,0.8L143.4,471.5z M145.8,473.1l-1.2-0.8l0.2-0.4l1.2,0.8L145.8,473.1z M148.3,474.7
					l-1.2-0.8l0.2-0.4l1.2,0.8L148.3,474.7z M150.8,476.2l-1.2-0.8l0.2-0.4l1.2,0.8L150.8,476.2z M153.2,477.8L152,477l0.2-0.4
					l1.2,0.8L153.2,477.8z M155.7,479.4l-1.2-0.8l0.2-0.4l1.2,0.8L155.7,479.4z M158.1,481l-1.2-0.8l0.2-0.4l1.2,0.8L158.1,481z
					 M160.6,482.6l-1.2-0.8l0.2-0.4l1.2,0.8L160.6,482.6z M163,484.2l-1.2-0.8l0.2-0.4l1.2,0.8L163,484.2z M165.5,485.8l-1.2-0.8
					l0.2-0.4l1.2,0.8L165.5,485.8z M168,487.4l-1.2-0.8l0.2-0.4l1.2,0.8L168,487.4z M170.4,489l-1.2-0.8l0.2-0.4l1.2,0.8L170.4,489z
					 M172.9,490.6l-1.2-0.8l0.2-0.4l1.2,0.8L172.9,490.6z M175.3,492.2l-1.2-0.8l0.2-0.4l1.2,0.8L175.3,492.2z"/>
				<polygon id="Fill-225" class="st9" points="177.2,493.9 177.1,493.3 176.6,492.9 176.8,492.6 177.5,493 177.7,493.8 				"/>
				<path id="Fill-227" class="st9" d="M177.7,496.8l-0.3-1.4l0.5-0.1l0.3,1.4L177.7,496.8z M178.3,499.6l-0.3-1.4l0.5-0.1l0.3,1.4
					L178.3,499.6z M178.8,502.4l-0.3-1.4l0.5-0.1l0.3,1.4L178.8,502.4z M179.3,505.3l-0.3-1.4l0.5-0.1l0.3,1.4L179.3,505.3z
					 M179.8,508.1l-0.3-1.4l0.5-0.1l0.3,1.4L179.8,508.1z M180.4,510.9l-0.3-1.4l0.5-0.1l0.3,1.4L180.4,510.9z M180.9,513.8
					l-0.3-1.4l0.5-0.1l0.3,1.4L180.9,513.8z M181.4,516.6l-0.3-1.4l0.5-0.1l0.3,1.4L181.4,516.6z M181.9,519.4l-0.3-1.4l0.5-0.1
					l0.3,1.4L181.9,519.4z M182.4,522.3l-0.3-1.4l0.5-0.1l0.3,1.4L182.4,522.3z M183,525.1l-0.3-1.4l0.5-0.1l0.3,1.4L183,525.1z
					 M183.5,528l-0.3-1.4l0.5-0.1l0.3,1.4L183.5,528z M184,530.8l-0.3-1.4l0.5-0.1l0.3,1.4L184,530.8z M184.5,533.6l-0.3-1.4
					l0.5-0.1l0.3,1.4L184.5,533.6z M185.1,536.5l-0.3-1.4l0.5-0.1l0.3,1.4L185.1,536.5z M185.6,539.3l-0.3-1.4l0.5-0.1l0.3,1.4
					L185.6,539.3z M186.1,542.1l-0.3-1.4l0.5-0.1l0.3,1.4L186.1,542.1z M186.6,545l-0.3-1.4l0.5-0.1l0.3,1.4L186.6,545z
					 M187.2,547.8l-0.3-1.4l0.5-0.1l0.3,1.4L187.2,547.8z M187.7,550.7l-0.3-1.4l0.5-0.1l0.3,1.4L187.7,550.7z M188.2,553.5
					l-0.3-1.4l0.5-0.1l0.3,1.4L188.2,553.5z M188.7,556.3l-0.3-1.4l0.5-0.1l0.3,1.4L188.7,556.3z M189.3,559.2l-0.3-1.4l0.5-0.1
					l0.3,1.4L189.3,559.2z M189.8,562l-0.3-1.4l0.5-0.1l0.3,1.4L189.8,562z M190.3,564.8l-0.3-1.4l0.5-0.1l0.3,1.4L190.3,564.8z
					 M190.8,567.7l-0.3-1.4l0.5-0.1l0.3,1.4L190.8,567.7z"/>
				<polygon id="Fill-229" class="st9" points="191.2,569.8 191.1,569.1 191.5,569 191.7,569.7 				"/>
				<path id="Fill-231" class="st9" d="M112.9,452.7c-0.5-0.3-0.6-1-0.3-1.4c0.3-0.5,1-0.6,1.4-0.3c0.5,0.3,0.6,1,0.3,1.4
					C114,452.9,113.4,453,112.9,452.7"/>
				<polygon id="Fill-233" class="st9" points="376,305.1 375.6,304.5 376,304.3 376.4,304.9 				"/>
				<path id="Fill-235" class="st9" d="M342,244.3l-0.7-1.3l0.4-0.2l0.7,1.3L342,244.3z M343.4,246.8l-0.7-1.3l0.4-0.2l0.7,1.3
					L343.4,246.8z M344.9,249.4l-0.7-1.3l0.4-0.2l0.7,1.3L344.9,249.4z M346.3,252l-0.7-1.3l0.4-0.2l0.7,1.3L346.3,252z
					 M347.7,254.5l-0.7-1.3l0.4-0.2l0.7,1.3L347.7,254.5z M349.2,257.1l-0.7-1.3l0.4-0.2l0.7,1.3L349.2,257.1z M350.6,259.6
					l-0.7-1.3l0.4-0.2l0.7,1.3L350.6,259.6z M352,262.2l-0.7-1.3l0.4-0.2l0.7,1.3L352,262.2z M353.5,264.8l-0.7-1.3l0.4-0.2l0.7,1.3
					L353.5,264.8z M354.9,267.3l-0.7-1.3l0.4-0.2l0.7,1.3L354.9,267.3z M356.3,269.9l-0.7-1.3l0.4-0.2l0.7,1.3L356.3,269.9z
					 M357.7,272.5l-0.7-1.3l0.4-0.2l0.7,1.3L357.7,272.5z M359.2,275l-0.7-1.3l0.4-0.2l0.7,1.3L359.2,275z M360.6,277.6l-0.7-1.3
					l0.4-0.2l0.7,1.3L360.6,277.6z M362,280.1l-0.7-1.3l0.4-0.2l0.7,1.3L362,280.1z M363.5,282.7l-0.7-1.3l0.4-0.2l0.7,1.3
					L363.5,282.7z M364.9,285.3l-0.7-1.3l0.4-0.2l0.7,1.3L364.9,285.3z M366.3,287.8l-0.7-1.3l0.4-0.2l0.7,1.3L366.3,287.8z
					 M367.8,290.4l-0.7-1.3l0.4-0.2l0.7,1.3L367.8,290.4z M369.2,293l-0.7-1.3l0.4-0.2l0.7,1.3L369.2,293z M370.6,295.5l-0.7-1.3
					l0.4-0.2l0.7,1.3L370.6,295.5z M372,298.1l-0.7-1.3l0.4-0.2l0.7,1.3L372,298.1z M373.5,300.6l-0.7-1.3l0.4-0.2l0.7,1.3
					L373.5,300.6z M374.9,303.2l-0.7-1.3l0.4-0.2l0.7,1.3L374.9,303.2z"/>
				<polygon id="Fill-237" class="st9" points="340.6,241.7 340.2,241.1 340.6,240.9 341,241.5 				"/>
				<path id="Fill-239" class="st9" d="M377.1,304.5c0.3,0.5,0.1,1.1-0.4,1.4c-0.5,0.3-1.1,0.1-1.4-0.4c-0.3-0.5-0.1-1.1,0.4-1.4
					C376.1,303.8,376.8,304,377.1,304.5"/>
				<polygon id="Fill-241" class="st9" points="360.7,396.7 360.6,395.9 361,395.8 361.2,396.6 				"/>
				<path id="Fill-243" class="st9" d="M338.1,293.3l-0.3-1.4l0.4-0.1l0.3,1.4L338.1,293.3z M338.7,296.1l-0.3-1.4l0.4-0.1l0.3,1.4
					L338.7,296.1z M339.4,299l-0.3-1.4l0.4-0.1l0.3,1.4L339.4,299z M340,301.9l-0.3-1.4l0.4-0.1l0.3,1.4L340,301.9z M340.6,304.8
					l-0.3-1.4l0.4-0.1l0.3,1.4L340.6,304.8z M341.3,307.7l-0.3-1.4l0.4-0.1l0.3,1.4L341.3,307.7z M341.9,310.6l-0.3-1.4l0.4-0.1
					l0.3,1.4L341.9,310.6z M342.5,313.5l-0.3-1.4l0.4-0.1l0.3,1.4L342.5,313.5z M343.2,316.4l-0.3-1.4l0.4-0.1l0.3,1.4L343.2,316.4z
					 M343.8,319.3l-0.3-1.4l0.4-0.1l0.3,1.4L343.8,319.3z M344.4,322.2l-0.3-1.4l0.4-0.1l0.3,1.4L344.4,322.2z M345.1,325.1
					l-0.3-1.4l0.4-0.1l0.3,1.4L345.1,325.1z M345.7,328l-0.3-1.4l0.4-0.1l0.3,1.4L345.7,328z M346.3,330.9l-0.3-1.4l0.4-0.1l0.3,1.4
					L346.3,330.9z M347,333.8l-0.3-1.4l0.4-0.1l0.3,1.4L347,333.8z M347.6,336.6l-0.3-1.4l0.4-0.1l0.3,1.4L347.6,336.6z
					 M348.2,339.5l-0.3-1.4l0.4-0.1l0.3,1.4L348.2,339.5z M348.9,342.4l-0.3-1.4l0.4-0.1l0.3,1.4L348.9,342.4z M349.5,345.3
					l-0.3-1.4l0.4-0.1l0.3,1.4L349.5,345.3z M350.1,348.2l-0.3-1.4l0.4-0.1l0.3,1.4L350.1,348.2z M350.8,351.1l-0.3-1.4l0.4-0.1
					l0.3,1.4L350.8,351.1z M351.4,354l-0.3-1.4l0.4-0.1l0.3,1.4L351.4,354z M352,356.9l-0.3-1.4l0.4-0.1l0.3,1.4L352,356.9z
					 M352.7,359.8l-0.3-1.4l0.4-0.1l0.3,1.4L352.7,359.8z M353.3,362.7l-0.3-1.4l0.4-0.1l0.3,1.4L353.3,362.7z M353.9,365.6
					l-0.3-1.4l0.4-0.1l0.3,1.4L353.9,365.6z M354.6,368.5l-0.3-1.4l0.4-0.1l0.3,1.4L354.6,368.5z M355.2,371.4l-0.3-1.4l0.4-0.1
					l0.3,1.4L355.2,371.4z M355.8,374.2l-0.3-1.4l0.4-0.1l0.3,1.4L355.8,374.2z M356.5,377.1l-0.3-1.4l0.4-0.1l0.3,1.4L356.5,377.1z
					 M357.1,380l-0.3-1.4l0.4-0.1l0.3,1.4L357.1,380z M357.7,382.9l-0.3-1.4l0.4-0.1l0.3,1.4L357.7,382.9z M358.4,385.8l-0.3-1.4
					l0.4-0.1l0.3,1.4L358.4,385.8z M359,388.7l-0.3-1.4l0.4-0.1l0.3,1.4L359,388.7z M359.6,391.6l-0.3-1.4l0.4-0.1l0.3,1.4
					L359.6,391.6z M360.3,394.5l-0.3-1.4l0.4-0.1l0.3,1.4L360.3,394.5z"/>
				<polygon id="Fill-245" class="st9" points="337.5,290.4 337.3,289.6 337.7,289.5 337.9,290.3 				"/>
				<path id="Fill-247" class="st9" d="M362,396.3c0.1,0.6-0.2,1.1-0.8,1.2c-0.6,0.1-1.1-0.2-1.2-0.8c-0.1-0.6,0.2-1.1,0.8-1.2
					C361.3,395.4,361.8,395.8,362,396.3"/>
				<polygon id="Fill-249" class="st9" points="227,604.9 226.6,604.9 226.6,604.2 227,604.2 				"/>
				<path id="Fill-251" class="st9" d="M229.3,439.3l-0.5,0l0-1.5l0.5,0L229.3,439.3z M229.2,442.3l-0.5,0l0-1.5l0.5,0L229.2,442.3z
					 M229.2,445.2l-0.5,0l0-1.5l0.5,0L229.2,445.2z M229.1,448.1l-0.5,0l0-1.5l0.5,0L229.1,448.1z M229.1,451l-0.5,0l0-1.5l0.5,0
					L229.1,451z M229.1,453.9l-0.5,0l0-1.5l0.5,0L229.1,453.9z M229,456.9l-0.5,0l0-1.5l0.5,0L229,456.9z M229,459.8l-0.5,0l0-1.5
					l0.5,0L229,459.8z M228.9,462.7l-0.5,0l0-1.5l0.5,0L228.9,462.7z M228.9,465.6l-0.5,0l0-1.5l0.5,0L228.9,465.6z M228.9,468.5
					l-0.5,0l0-1.5l0.5,0L228.9,468.5z M228.8,471.4l-0.5,0l0-1.5l0.5,0L228.8,471.4z M228.8,474.4l-0.5,0l0-1.5l0.5,0L228.8,474.4z
					 M228.7,477.3l-0.5,0l0-1.5l0.5,0L228.7,477.3z M228.7,480.2l-0.5,0l0-1.5l0.5,0L228.7,480.2z M228.7,483.1l-0.5,0l0-1.5l0.5,0
					L228.7,483.1z M228.6,486l-0.5,0l0-1.5l0.5,0L228.6,486z M228.6,488.9l-0.5,0l0-1.5l0.5,0L228.6,488.9z M228.6,491.9l-0.5,0
					l0-1.5l0.5,0L228.6,491.9z M228.5,494.8l-0.5,0l0-1.5l0.5,0L228.5,494.8z M228.5,497.7l-0.5,0l0-1.5l0.5,0L228.5,497.7z
					 M228.4,500.6l-0.5,0l0-1.5l0.5,0L228.4,500.6z M228.4,503.5l-0.5,0l0-1.5l0.5,0L228.4,503.5z M228.4,506.4l-0.5,0l0-1.5l0.5,0
					L228.4,506.4z M228.3,509.4l-0.5,0l0-1.5l0.5,0L228.3,509.4z M228.3,512.3l-0.5,0l0-1.5l0.5,0L228.3,512.3z M228.2,515.2l-0.5,0
					l0-1.5l0.5,0L228.2,515.2z M228.2,518.1l-0.5,0l0-1.5l0.5,0L228.2,518.1z M228.2,521l-0.5,0l0-1.5l0.5,0L228.2,521z
					 M228.1,523.9l-0.5,0l0-1.5l0.5,0L228.1,523.9z M228.1,526.9l-0.5,0l0-1.5l0.5,0L228.1,526.9z M228,529.8l-0.5,0l0-1.5l0.5,0
					L228,529.8z M228,532.7l-0.5,0l0-1.5l0.5,0L228,532.7z M228,535.6l-0.5,0l0-1.5l0.5,0L228,535.6z M227.9,538.5l-0.5,0l0-1.5
					l0.5,0L227.9,538.5z M227.9,541.5l-0.5,0l0-1.5l0.5,0L227.9,541.5z M227.8,544.4l-0.5,0l0-1.5l0.5,0L227.8,544.4z M227.8,547.3
					l-0.5,0l0-1.5l0.5,0L227.8,547.3z M227.8,550.2l-0.5,0l0-1.5l0.5,0L227.8,550.2z M227.7,553.1l-0.5,0l0-1.5l0.5,0L227.7,553.1z
					 M227.7,556l-0.5,0l0-1.5l0.5,0L227.7,556z M227.6,559l-0.5,0l0-1.5l0.5,0L227.6,559z M227.6,561.9l-0.5,0l0-1.5l0.5,0
					L227.6,561.9z M227.6,564.8l-0.5,0l0-1.5l0.5,0L227.6,564.8z M227.5,567.7l-0.5,0l0-1.5l0.5,0L227.5,567.7z M227.5,570.6l-0.5,0
					l0-1.5l0.5,0L227.5,570.6z M227.4,573.5l-0.5,0l0-1.5l0.5,0L227.4,573.5z M227.4,576.5l-0.5,0l0-1.5l0.5,0L227.4,576.5z
					 M227.4,579.4l-0.5,0l0-1.5l0.5,0L227.4,579.4z M227.3,582.3l-0.5,0l0-1.5l0.5,0L227.3,582.3z M227.3,585.2l-0.5,0l0-1.5l0.5,0
					L227.3,585.2z M227.2,588.1l-0.5,0l0-1.5l0.5,0L227.2,588.1z M227.2,591l-0.5,0l0-1.5l0.5,0L227.2,591z M227.2,594l-0.5,0l0-1.5
					l0.5,0L227.2,594z M227.1,596.9l-0.5,0l0-1.5l0.5,0L227.1,596.9z M227.1,599.8l-0.5,0l0-1.5l0.5,0L227.1,599.8z M227,602.7
					l-0.5,0l0-1.5l0.5,0L227,602.7z"/>
				<polygon id="Fill-253" class="st9" points="229.3,436.4 228.8,436.4 228.9,435.7 229.3,435.7 				"/>
				<path id="Fill-255" class="st9" d="M227.8,604.9c0,0.6-0.5,1-1,1c-0.6,0-1-0.5-1-1c0-0.6,0.5-1,1-1
					C227.4,603.8,227.8,604.3,227.8,604.9"/>
				<polygon id="Fill-257" class="st9" points="235,389.4 235,388.6 235.4,388.6 235.5,389.3 				"/>
				<path id="Fill-259" class="st9" d="M218.5,284.6l-0.7-1.3l0.4-0.2l0.7,1.3L218.5,284.6z M220,287.1l-0.7-1.3l0.4-0.2l0.7,1.3
					L220,287.1z M221.5,289.7l-0.7-1.3l0.4-0.2l0.7,1.3L221.5,289.7z M223,292.2l-0.7-1.3l0.4-0.2l0.7,1.3L223,292.2z M224.5,294.7
					l-0.7-1.3l0.4-0.2l0.7,1.3L224.5,294.7z M226,297.3l-0.7-1.3l0.4-0.2l0.7,1.3L226,297.3z M227.5,299.8l-0.7-1.3l0.4-0.2l0.7,1.3
					L227.5,299.8z M229,302.3l-0.7-1.3l0.4-0.2l0.7,1.3L229,302.3z M229.7,305l-0.1-1.5l0.5,0l0.1,1.5L229.7,305z M229.8,307.9
					l-0.1-1.5l0.5,0l0.1,1.5L229.8,307.9z M230,310.9l-0.1-1.5l0.5,0l0.1,1.5L230,310.9z M230.2,313.8l-0.1-1.5l0.5,0l0.1,1.5
					L230.2,313.8z M230.4,316.7l-0.1-1.5l0.5,0l0.1,1.5L230.4,316.7z M230.6,319.7l-0.1-1.5l0.5,0l0.1,1.5L230.6,319.7z
					 M230.8,322.6l-0.1-1.5l0.5,0l0.1,1.5L230.8,322.6z M231,325.5l-0.1-1.5l0.5,0l0.1,1.5L231,325.5z M231.2,328.5l-0.1-1.5l0.5,0
					l0.1,1.5L231.2,328.5z M231.3,331.4l-0.1-1.5l0.5,0l0.1,1.5L231.3,331.4z M231.5,334.3l-0.1-1.5l0.5,0l0.1,1.5L231.5,334.3z
					 M231.7,337.3l-0.1-1.5l0.5,0l0.1,1.5L231.7,337.3z M231.9,340.2l-0.1-1.5l0.5,0l0.1,1.5L231.9,340.2z M232.1,343.1l-0.1-1.5
					l0.5,0l0.1,1.5L232.1,343.1z M232.3,346.1l-0.1-1.5l0.5,0l0.1,1.5L232.3,346.1z M232.5,349l-0.1-1.5l0.5,0l0.1,1.5L232.5,349z
					 M232.6,351.9l-0.1-1.5l0.5,0l0.1,1.5L232.6,351.9z M232.8,354.9l-0.1-1.5l0.5,0l0.1,1.5L232.8,354.9z M233,357.8l-0.1-1.5
					l0.5,0l0.1,1.5L233,357.8z M233.2,360.8l-0.1-1.5l0.5,0l0.1,1.5L233.2,360.8z M233.4,363.7l-0.1-1.5l0.5,0l0.1,1.5L233.4,363.7z
					 M233.6,366.6l-0.1-1.5l0.5,0l0.1,1.5L233.6,366.6z M233.8,369.6l-0.1-1.5l0.5,0l0.1,1.5L233.8,369.6z M234,372.5l-0.1-1.5
					l0.5,0l0.1,1.5L234,372.5z M234.1,375.4L234,374l0.5,0l0.1,1.5L234.1,375.4z M234.3,378.4l-0.1-1.5l0.5,0l0.1,1.5L234.3,378.4z
					 M234.5,381.3l-0.1-1.5l0.5,0l0.1,1.5L234.5,381.3z M234.7,384.2l-0.1-1.5l0.5,0l0.1,1.5L234.7,384.2z M234.9,387.2l-0.1-1.5
					l0.5,0l0.1,1.5L234.9,387.2z"/>
				<polygon id="Fill-261" class="st9" points="217,282 216.6,281.4 217,281.2 217.4,281.8 				"/>
				<path id="Fill-263" class="st9" d="M236.3,389.2c0,0.6-0.4,1.1-1,1.1s-1.1-0.4-1.1-1c0-0.6,0.4-1.1,1-1.1
					C235.8,388.2,236.2,388.7,236.3,389.2"/>
				<path id="Fill-265" class="st9" d="M16.4,190.8l3.3,7.4c3.6,1.3,6.2,4.8,6.2,8.9c0,5.3-4.3,9.5-9.5,9.5s-9.5-4.3-9.5-9.5
					c0-4.1,2.6-7.6,6.2-8.9L16.4,190.8z"/>
				<path id="Fill-267" class="st9" d="M340.4,236.9l-3.3-7.4c-3.6-1.3-6.3-4.8-6.3-8.9c0-5.3,4.3-9.5,9.5-9.5
					c5.3,0,9.5,4.3,9.5,9.5c0,4.1-2.6,7.6-6.2,8.9L340.4,236.9z"/>
				<path id="Fill-269" class="st9" d="M219.6,277.5l-7.5-2.9c-3.5,1.6-7.8,1-10.7-1.9c-3.7-3.7-3.7-9.7,0-13.5
					c3.7-3.7,9.8-3.7,13.5,0c2.9,2.9,3.5,7.2,1.9,10.7L219.6,277.5z"/>
				<path id="Fill-271" class="st9" d="M181.7,232.8l-7.5-2.9c-3.5,1.6-7.8,1-10.7-1.9c-3.7-3.7-3.7-9.7,0-13.5
					c3.7-3.7,9.8-3.7,13.5,0c2.9,2.9,3.5,7.2,1.9,10.7L181.7,232.8z"/>
				<path id="Fill-273" class="st9" d="M336,287.6l-7.5-2.9c-3.5,1.6-7.8,1-10.7-1.9c-3.7-3.7-3.7-9.7,0-13.5
					c3.7-3.7,9.8-3.7,13.5,0c2.9,2.9,3.5,7.2,1.9,10.7L336,287.6z"/>
				<path id="Fill-275" class="st9" d="M351.6,425.3l3.3,7.4c3.6,1.3,6.2,4.8,6.2,8.9c0,5.3-4.3,9.5-9.5,9.5c-5.3,0-9.5-4.3-9.5-9.5
					c0-4.1,2.6-7.6,6.2-8.9L351.6,425.3z"/>
				<path id="Fill-277" class="st9" d="M75.4,396.3l7.5,2.9c3.5-1.6,7.8-1,10.7,1.9c3.7,3.7,3.7,9.7,0,13.5c-3.7,3.7-9.8,3.7-13.5,0
					c-2.9-2.9-3.5-7.2-1.9-10.7L75.4,396.3z"/>
				<path id="Fill-279" class="st9" d="M135.3,354l7.5,2.9c3.5-1.6,7.8-1,10.7,1.9c3.7,3.7,3.7,9.7,0,13.5c-3.7,3.7-9.8,3.7-13.5,0
					c-2.9-2.9-3.5-7.2-1.9-10.7L135.3,354z"/>
				<path id="Fill-281" class="st9" d="M179.6,421l7.4-3.3c1.3-3.6,4.8-6.2,8.9-6.2c5.3,0,9.5,4.3,9.5,9.5c0,5.3-4.3,9.5-9.5,9.5
					c-4.1,0-7.6-2.6-8.9-6.2L179.6,421z"/>
				<path id="Fill-283" class="st9" d="M235.5,448.8l7.4-3.3c1.3-3.6,4.8-6.2,8.9-6.2c5.3,0,9.5,4.3,9.5,9.5c0,5.3-4.3,9.5-9.5,9.5
					c-4.1,0-7.6-2.6-8.9-6.2L235.5,448.8z"/>
				<path id="Fill-285" class="st9" d="M191.4,573.1l3.3,7.4c3.6,1.3,6.2,4.8,6.2,8.9c0,5.3-4.3,9.5-9.5,9.5s-9.5-4.3-9.5-9.5
					c0-4.1,2.6-7.6,6.2-8.9L191.4,573.1z"/>
				<path id="Fill-287" class="st9" d="M47.8,9.6l7.4-3.3c1.3-3.6,4.8-6.2,8.9-6.2c5.3,0,9.5,4.3,9.5,9.5c0,5.3-4.3,9.5-9.5,9.5
					c-4.1,0-7.6-2.6-8.9-6.2L47.8,9.6z"/>
				<path id="Fill-289" class="st9" d="M174,46.1l2.9-7.5c-1.6-3.5-1-7.8,1.9-10.7c3.7-3.7,9.8-3.7,13.5,0c3.7,3.7,3.7,9.7,0,13.5
					c-2.9,2.9-7.2,3.5-10.7,1.9L174,46.1z"/>
				<path id="Fill-291" class="st9" d="M195.9,214.3l0.2-8.1c-2.7-2.7-3.6-7-1.8-10.7c2.2-4.8,7.9-6.8,12.7-4.5
					c4.8,2.2,6.8,7.9,4.6,12.7c-1.7,3.7-5.6,5.7-9.4,5.4L195.9,214.3z"/>
			</g>
			<g class="st10">
				<path class="st11" d="M199.1,202.6c0.8-0.1,1.2-0.5,1.2-1.3v-3.8c0-0.7-0.4-1-1.2-1v-0.1c0.8-0.1,1.8-0.4,2.4-0.6v5.5
					c0,0.7,0.1,1.1,1.2,1.3v0.1c-0.6,0-1.2,0-1.8,0c-0.6,0-1.2,0-1.8,0V202.6z"/>
				<path class="st11" d="M203.3,202.6c0.8-0.1,1.2-0.5,1.2-1.3v-3.8c0-0.7-0.4-1-1.2-1v-0.1c0.8-0.1,1.8-0.4,2.4-0.6v5.5
					c0,0.7,0.1,1.1,1.2,1.3v0.1c-0.6,0-1.2,0-1.8,0s-1.2,0-1.8,0V202.6z"/>
			</g>
			<g class="st10">
				<path class="st11" d="M172.7,218v0.1c-1.9,3.8-2.3,5.4-2.6,6.6h-1.6l0-0.1l3.5-5.6h-2.1c-0.9,0-1.2,0.2-1.7,1h-0.1l0.3-2
					C169.8,218,171.3,218,172.7,218z"/>
			</g>
			<g class="st10">
				<path class="st11" d="M203.4,269.5c0.8-0.1,1.2-0.5,1.2-1.3v-3.8c0-0.7-0.4-1-1.2-1v-0.1c0.8-0.1,1.8-0.4,2.4-0.6v5.5
					c0,0.7,0.1,1.1,1.2,1.3v0.1c-0.6,0-1.2,0-1.8,0c-0.6,0-1.2,0-1.8,0V269.5z"/>
				<path class="st11" d="M212,267.5c0,1.4-1,2.3-2.6,2.3c-0.8,0-1.3-0.2-1.7-0.5c0-0.5,0-1.1,0-1.6h0.1c0.4,1.1,0.8,1.9,1.6,1.9
					c0.7,0,1.2-0.7,1.2-2c0-1.4-0.5-2-1.3-2c-0.4,0-0.9,0.2-1.2,0.6h-0.2l0.1-3.3h2.2c0.7,0,1.1-0.1,1.4-0.4h0.1
					c-0.1,0.5-0.1,1-0.2,1.5h-3.3l0,1.9c0.3-0.3,0.8-0.5,1.4-0.5C210.8,265.4,212,266,212,267.5z"/>
			</g>
			<g class="st10">
				<path class="st11" d="M347,444.9c0.8-0.1,1.2-0.5,1.2-1.3v-3.8c0-0.7-0.4-1-1.2-1v-0.1c0.8-0.1,1.8-0.4,2.4-0.6v5.5
					c0,0.7,0.1,1.1,1.2,1.3v0.1c-0.6,0-1.2,0-1.8,0c-0.6,0-1.2,0-1.8,0V444.9z"/>
				<path class="st11" d="M355,443.5c0,0.7,0,1.1,0.9,1.4v0.1c-1,0-1.8,0-2.9,0v-0.1c0.9-0.3,1-0.8,1-1.4v-0.3h-3.1v-0.1l3.8-5h0.5
					v4.5h0.4c0.4,0,0.6-0.1,0.8-0.6l0.1,0c0,0.4-0.1,0.8-0.1,1.2H355V443.5z M353.9,439.5l-2.4,3.1h2.4V439.5z"/>
			</g>
			<g class="st10">
				<path class="st11" d="M320.1,279.4c0.8-0.1,1.2-0.5,1.2-1.3v-3.8c0-0.7-0.4-1-1.2-1v-0.1c0.8-0.1,1.8-0.4,2.4-0.6v5.5
					c0,0.7,0.1,1.1,1.2,1.3v0.1c-0.6,0-1.2,0-1.8,0c-0.6,0-1.2,0-1.8,0V279.4z"/>
				<path class="st11" d="M324.4,279.2c0-0.5,0-1.1,0-1.6h0.1c0.5,1.1,0.9,1.9,1.6,1.9c0.7,0,1.3-0.6,1.3-1.7c0-1.1-0.6-1.7-1.6-1.7
					h-0.3v-0.2h0.3c0.6,0,1.2-0.5,1.2-1.6c0-0.9-0.4-1.3-0.9-1.3c-0.6,0-1.1,0.9-1.6,1.9h-0.1c0-0.4,0-0.8,0-1.5
					c0.4-0.3,1-0.6,1.8-0.6c1.1,0,2.3,0.5,2.3,1.6c0,0.8-0.6,1.4-1.5,1.6c1.3,0.3,1.8,0.9,1.8,1.8c0,1.1-1,2-2.6,2
					C325.4,279.7,324.7,279.5,324.4,279.2z"/>
			</g>
			<g class="st10">
				<path class="st11" d="M193.1,422.9c0-0.9,0.7-1.6,1.7-1.9c-0.7-0.2-1.4-0.8-1.4-1.5c0-0.9,1-1.6,2.2-1.6c1.2,0,2.2,0.7,2.2,1.6
					c0,0.8-0.6,1.3-1.4,1.5c0.9,0.3,1.7,0.9,1.7,1.9c0,1.2-1,1.9-2.5,1.9C194.1,424.8,193.1,424,193.1,422.9z M196.7,422.9
					c0-1.1-0.5-1.8-1.1-1.8c-0.6,0-1.2,0.8-1.2,1.8c0,1,0.5,1.7,1.2,1.7C196.3,424.6,196.7,423.9,196.7,422.9z M196.5,419.4
					c0-0.8-0.4-1.4-0.9-1.4c-0.6,0-0.9,0.6-0.9,1.4c0,0.9,0.5,1.5,0.9,1.5C196,420.9,196.5,420.2,196.5,419.4z"/>
			</g>
			<g class="st10">
				<path class="st11" d="M82.5,411.3c0.8-0.1,1.2-0.5,1.2-1.3v-3.8c0-0.7-0.4-1-1.2-1v-0.1c0.8-0.1,1.8-0.4,2.4-0.6v5.5
					c0,0.7,0.1,1.1,1.2,1.3v0.1c-0.6,0-1.2,0-1.8,0c-0.6,0-1.2,0-1.8,0V411.3z"/>
				<path class="st11" d="M86.6,409.7c0-0.9,0.7-1.6,1.7-1.9c-0.7-0.2-1.4-0.8-1.4-1.5c0-0.9,1-1.6,2.2-1.6c1.2,0,2.2,0.7,2.2,1.6
					c0,0.8-0.6,1.3-1.4,1.5c0.9,0.3,1.7,0.9,1.7,1.9c0,1.2-1,1.9-2.5,1.9C87.6,411.6,86.6,410.9,86.6,409.7z M90.3,409.7
					c0-1.1-0.5-1.8-1.1-1.8c-0.6,0-1.2,0.8-1.2,1.8c0,1,0.5,1.7,1.2,1.7C89.8,411.4,90.3,410.7,90.3,409.7z M90,406.2
					c0-0.8-0.4-1.4-0.9-1.4c-0.6,0-0.9,0.6-0.9,1.4c0,0.9,0.5,1.5,0.9,1.5C89.6,407.7,90,407.1,90,406.2z"/>
			</g>
			<path id="Fill-294" class="st9" d="M61.9,232.9l1.5-7.9c-2.2-3.1-2.4-7.5-0.1-10.9c3-4.3,8.9-5.4,13.3-2.4
				c4.3,3,5.4,8.9,2.5,13.2c-2.3,3.4-6.4,4.8-10.2,3.8L61.9,232.9z"/>
			<g class="st10">
				<path class="st11" d="M66.3,222.6c0.8-0.1,1.2-0.5,1.2-1.3v-3.8c0-0.7-0.4-1-1.2-1v-0.1c0.8-0.1,1.8-0.4,2.4-0.6v5.5
					c0,0.7,0.1,1.1,1.2,1.3v0.1c-0.6,0-1.2,0-1.8,0c-0.6,0-1.2,0-1.8,0V222.6z"/>
				<path class="st11" d="M70.6,219.4c0-2.2,1.2-3.5,2.7-3.5c1.5,0,2.7,1.3,2.7,3.5c0,2.2-1.2,3.5-2.7,3.5
					C71.8,222.9,70.6,221.6,70.6,219.4z M74.5,219.4c0-2.3-0.4-3.3-1.2-3.3c-0.8,0-1.2,1-1.2,3.3c0,2.3,0.4,3.3,1.2,3.3
					C74.1,222.7,74.5,221.7,74.5,219.4z"/>
			</g>
			<g class="st10">
				<path class="st11" d="M14.5,210.6c0.8-0.1,1.2-0.5,1.2-1.3v-3.8c0-0.7-0.4-1-1.2-1v-0.1c0.8-0.1,1.8-0.4,2.4-0.6v5.5
					c0,0.7,0.1,1.1,1.2,1.3v0.1c-0.6,0-1.2,0-1.8,0c-0.6,0-1.2,0-1.8,0V210.6z"/>
			</g>
			<g class="st10">
				<path class="st11" d="M66.5,10.7c0,0.5-0.1,1.3-0.2,2c-0.6,0-1.5,0-2.3,0c-0.9,0-1.4,0-2.2,0v-0.1l1.7-2.1
					c0.6-0.7,1.3-1.7,1.3-3C64.8,6.5,64.5,6,64,6c-0.7,0-1.3,1.1-1.8,2.1h-0.2c0-0.3,0-0.5,0-0.8c0-0.3,0-0.5,0-0.8
					c0.4-0.4,1-0.7,1.9-0.7c1.3,0,2.3,0.7,2.3,1.7c0,1.1-1.1,2.1-2.2,3l-1.3,1.1c0.3,0,0.7,0,1.1,0c0.4,0,0.8,0,1.1,0
					c0.7,0,1-0.3,1.3-0.9H66.5z"/>
			</g>
			<path id="Fill-296" class="st9" d="M57,103.6l-7.5-2.9c-3.5,1.6-7.8,1-10.7-1.9c-3.7-3.7-3.7-9.7,0-13.5c3.7-3.7,9.8-3.7,13.5,0
				c2.9,2.9,3.5,7.2,1.9,10.7L57,103.6z"/>
			<g class="st10">
				<path class="st11" d="M43.5,94.9c0-0.5,0-1.1,0-1.6h0.1c0.5,1.1,0.9,1.9,1.6,1.9c0.7,0,1.3-0.6,1.3-1.7c0-1.1-0.6-1.7-1.6-1.7
					h-0.3v-0.2h0.3c0.6,0,1.2-0.5,1.2-1.6c0-0.9-0.4-1.3-0.9-1.3c-0.5,0-1.1,0.9-1.6,1.9h-0.1c0-0.4,0-0.8,0-1.5
					c0.4-0.3,1-0.6,1.8-0.6c1.1,0,2.3,0.5,2.3,1.6c0,0.8-0.6,1.4-1.5,1.6c1.3,0.3,1.8,0.9,1.8,1.8c0,1.1-1,2-2.6,2
					C44.5,95.4,43.8,95.2,43.5,94.9z"/>
			</g>
			<path id="Fill-298" class="st9" d="M94.8,145.9l3.5,7.3c3.7,1.2,6.4,4.7,6.5,8.8c0.1,5.3-4,9.6-9.3,9.7c-5.3,0.1-9.6-4-9.8-9.3
				c-0.1-4.1,2.4-7.6,6-9.1L94.8,145.9z"/>
			<g class="st10">
				<path class="st11" d="M96,164.1c0,0.7,0,1.1,0.9,1.4v0.1c-1,0-1.8,0-2.9,0v-0.1c0.9-0.3,1-0.8,1-1.4v-0.3h-3.1v-0.1l3.8-5h0.5
					v4.5h0.4c0.4,0,0.6-0.1,0.8-0.6l0.1,0c0,0.4-0.1,0.8-0.1,1.2H96V164.1z M94.9,160.2l-2.4,3.1h2.4V160.2z"/>
			</g>
			<path id="Fill-300" class="st9" d="M119.2,155L119,147c-2.8-2.6-3.9-6.9-2.2-10.7c2.1-4.8,7.7-7.1,12.5-5c4.8,2.1,7.1,7.7,5,12.5
				c-1.6,3.8-5.4,6-9.2,5.8L119.2,155z"/>
			<g class="st10">
				<path class="st11" d="M128.1,140.8c0,1.3-1,2.3-2.5,2.3c-1.5,0-2.5-1.1-2.5-3.3c0-2.4,1.1-3.7,2.7-3.7c0.7,0,1.5,0.3,1.8,0.5
					c0,0.5,0,1,0,1.5h-0.1c-0.6-1.1-1-1.8-1.8-1.8c-0.9,0-1.3,1-1.3,3.4c0.2-0.4,0.6-0.9,1.5-0.9
					C127.1,138.8,128.1,139.5,128.1,140.8z M126.7,141.1c0-1.4-0.5-1.9-1.1-1.9c-0.6,0-1.1,0.5-1.1,1.9c0,1.4,0.5,1.9,1.1,1.9
					C126.2,142.9,126.7,142.5,126.7,141.1z"/>
			</g>
			<g class="st10">
				<path class="st11" d="M149.4,365.5c0,2.4-1.1,3.6-2.7,3.6c-0.7,0-1.4-0.2-1.6-0.4c-0.1-0.5,0-1.1,0-1.7h0.1
					c0.5,1.1,0.8,1.9,1.6,1.9c1,0,1.3-1.3,1.3-3.1v-0.1c-0.4,0.4-0.9,0.7-1.5,0.7c-1.2,0-2-1-2-2.2c0-1.3,1-2.1,2.3-2.1
					C148.3,362.1,149.4,363.2,149.4,365.5z M148.1,364.1c0-1.3-0.5-1.8-1.1-1.8c-0.6,0-1.1,0.5-1.1,1.8c0,1.3,0.5,2,1.1,2
					C147.5,366,148.1,365.5,148.1,364.1z"/>
			</g>
			<g class="st10">
				<path class="st11" d="M247.5,451.9c0.8-0.1,1.2-0.5,1.2-1.3v-3.8c0-0.7-0.4-1-1.2-1v-0.1c0.8-0.1,1.8-0.4,2.4-0.6v5.5
					c0,0.7,0.1,1.1,1.2,1.3v0.1c-0.6,0-1.2,0-1.8,0c-0.6,0-1.2,0-1.8,0V451.9z"/>
				<path class="st11" d="M256.7,449.8c0,1.3-1,2.3-2.5,2.3c-1.5,0-2.5-1.1-2.5-3.3c0-2.4,1.1-3.7,2.7-3.7c0.7,0,1.5,0.3,1.8,0.5
					c0,0.5,0,1,0,1.5h-0.1c-0.6-1.1-1-1.8-1.8-1.8c-0.9,0-1.3,1-1.3,3.4c0.2-0.4,0.6-0.9,1.5-0.9
					C255.7,447.8,256.7,448.5,256.7,449.8z M255.4,450.1c0-1.4-0.5-1.9-1.1-1.9c-0.6,0-1.1,0.5-1.1,1.9c0,1.4,0.5,1.9,1.1,1.9
					C254.9,451.9,255.4,451.5,255.4,450.1z"/>
			</g>
			<g class="st10">
				<path class="st11" d="M187.5,592.9c0.8-0.1,1.2-0.5,1.2-1.3v-3.8c0-0.7-0.4-1-1.2-1v-0.1c0.8-0.1,1.8-0.4,2.4-0.6v5.5
					c0,0.7,0.1,1.1,1.2,1.3v0.1c-0.6,0-1.2,0-1.8,0c-0.6,0-1.2,0-1.8,0V592.9z"/>
				<path class="st11" d="M196.2,586.2v0.1c-1.9,3.8-2.3,5.4-2.6,6.6H192l0-0.1l3.5-5.6h-2.1c-0.9,0-1.2,0.2-1.7,1h-0.1l0.3-2
					C193.3,586.3,194.8,586.3,196.2,586.2z"/>
			</g>
			<g class="st10">
				<path class="st11" d="M336.1,223.6c0.8-0.1,1.2-0.5,1.2-1.3v-3.8c0-0.7-0.4-1-1.2-1v-0.1c0.8-0.1,1.8-0.4,2.4-0.6v5.5
					c0,0.7,0.1,1.1,1.2,1.3v0.1c-0.6,0-1.2,0-1.8,0c-0.6,0-1.2,0-1.8,0V223.6z"/>
				<path class="st11" d="M344.8,221.8c0,0.5-0.1,1.3-0.2,2c-0.6,0-1.5,0-2.3,0c-0.9,0-1.4,0-2.2,0v-0.1l1.7-2.1
					c0.6-0.7,1.3-1.7,1.3-3c0-0.9-0.3-1.4-0.8-1.4c-0.7,0-1.3,1.1-1.8,2.1h-0.2c0-0.3,0-0.5,0-0.8c0-0.3,0-0.5,0-0.8
					c0.4-0.4,1-0.7,1.9-0.7c1.3,0,2.3,0.7,2.3,1.7c0,1.1-1.1,2.1-2.2,3l-1.3,1.1c0.3,0,0.7,0,1.1,0c0.4,0,0.8,0,1.1,0
					c0.7,0,1-0.3,1.3-0.9H344.8z"/>
			</g>
			<g class="st10">
				<path class="st11" d="M187.1,35.9c0,1.4-1,2.3-2.6,2.3c-0.8,0-1.3-0.2-1.7-0.5c0-0.5,0-1.1,0-1.6h0.1c0.4,1.1,0.8,1.9,1.6,1.9
					c0.7,0,1.2-0.7,1.2-2c0-1.4-0.5-2-1.3-2c-0.4,0-0.9,0.2-1.2,0.6h-0.2l0.1-3.3h2.2c0.7,0,1.1-0.1,1.4-0.4h0.1
					c-0.1,0.5-0.1,1-0.2,1.5h-3.3l0,1.9c0.3-0.3,0.8-0.5,1.4-0.5C185.9,33.7,187.1,34.4,187.1,35.9z"/>
			</g>
		</g>
	</g>
</g>
</svg>
