<?xml version="1.0" encoding="utf-8"?>
<!-- Generator: Adobe Illustrator 25.2.0, SVG Export Plug-In . SVG Version: 6.00 Build 0)  -->
<svg version="1.1" id="Layer_1" xmlns="http://www.w3.org/2000/svg" xmlns:xlink="http://www.w3.org/1999/xlink" x="0px" y="0px"
	 viewBox="0 0 320 574" style="enable-background:new 0 0 320 574;" xml:space="preserve">
<style type="text/css">
	.st0{fill-rule:evenodd;clip-rule:evenodd;fill:#347169;}
	.st1{filter:url(#Adobe_OpacityMaskFilter);}
	.st2{fill-rule:evenodd;clip-rule:evenodd;fill:#FFFFFF;}
	.st3{mask:url(#mask-2_1_);}
	.st4{fill:none;stroke:#275048;stroke-width:0.8532;}
	.st5{fill-rule:evenodd;clip-rule:evenodd;fill:#245851;}
	.st6{fill-rule:evenodd;clip-rule:evenodd;fill:#ECDDCB;}
	.st7{fill-rule:evenodd;clip-rule:evenodd;fill:#A0BDCD;}
	.st8{fill-rule:evenodd;clip-rule:evenodd;fill:#12423C;}
	.st9{fill-rule:evenodd;clip-rule:evenodd;fill:#FEFEFE;}
	.st10{enable-background:new    ;}
	.st11{fill:#322F31;}
	.st12{font-family:'Span-Bold';}
	.st13{font-size:7.7739px;}
	.st14{font-size:7.7966px;}
</style>
<g id="Mask">
	<polygon id="path-1_1_" class="st0" points="0,574 320,574 320,0 0,0 	"/>
</g>
<defs>
	<filter id="Adobe_OpacityMaskFilter" filterUnits="userSpaceOnUse" x="-56.5" y="38.2" width="376.5" height="542.2">
		<feColorMatrix  type="matrix" values="1 0 0 0 0  0 1 0 0 0  0 0 1 0 0  0 0 0 1 0"/>
	</filter>
</defs>
<mask maskUnits="userSpaceOnUse" x="-56.5" y="38.2" width="376.5" height="542.2" id="mask-2_1_">
	<g class="st1">
		<polygon id="path-1_2_" class="st2" points="0,574 320,574 320,0 0,0 		"/>
	</g>
</mask>
<g class="st3">
	<g transform="translate(-59.000000, 38.000000)">
		<g id="Group-5" transform="translate(0.000000, 31.802400)">
			<g id="Group-3">
				<path id="Stroke-1" class="st4" d="M115.6,309.4l263.4-0.3 M2.9,46.8l198.5,463.6"/>
			</g>
			<line id="Stroke-4" class="st4" x1="56.8" y1="173.6" x2="81.6" y2="162"/>
		</g>
		<g id="Group-302" transform="translate(69.600000, 0.000000)">
			<g id="Group-293" transform="translate(0.000000, 0.090195)">
				<path id="Fill-1" class="st5" d="M12.6,22.6c-2.3-3.7-6.1-5.2-8.7-3c-4.3,3.8-1.8,9.7,0.2,16.6c2.2,7.7-0.5,28.6,1.5,36.5
					c5.1,19.9,1.1,73.1,4.4,75.9c1,0.8,5.2,1.3,6.6-0.1c1.6-1.6-0.4-22.2,2.7-31.5c3-9.1,2.9-17.1,2.1-23.1c0,0-7-53.7-6.8-57.4
					C14.8,32.9,14.3,25.3,12.6,22.6"/>
				<path id="Fill-3" class="st5" d="M31.7,6.6c-3.7,0-4.4,5.8-1.3,8.8c2.9,2.8,1.4,12.2,4.8,14.9c3.4,2.7,6.6,14.3,6,18.2
					c-0.6,3.9-1.8,6.6,0,9.7c0.9,1.5,4,1.9,6.8,3.7c2.9,1.9,7.9,1.2,8.5-1.2c1.3-4.8,1.8-8.2,0.2-11.9c-1.3-3-8.1-11.8-10.1-16.2
					S39.1,19.9,38.2,15C37.4,10,37.2,6.5,31.7,6.6"/>
				<path id="Fill-5" class="st5" d="M77.9,69.7c-2,7.4-7.3,38.8-6.4,41.3c0.8,2,7.9,3.1,8.4,0.1c0.5-3,3.6-36.3,6-38.9
					c2.4-2.6,30.2-31.8,32.8-36.7c4-7.5,8.9-9.9,8.8-13.1c-0.2-4.9-7.6-7.6-11.6-4c-4.4,4-5.4,12.8-6.2,14.3
					C102,46.3,79.7,62.8,77.9,69.7"/>
				<path id="Fill-7" class="st5" d="M134.3,50.9c0,0-1.7-8.5-0.9-10.5c0.8-2.1,3.3-3.7,5.3-1.1c2.1,2.6,0.3,7.6,1.5,10.6
					c1.1,2.9,3.3,9.7,3.1,12.8c-0.2,3.1,1.4,16.1,2.6,18.7c1.9,3.8,3,13.2,2.8,17.9c-0.2,4.8,0,15.4,0.9,16.9c0.9,1.6,3.8,5.3,4.1,8
					c0.3,2.5-0.8,6.7-4.4,7.5c-5.2,1.1-8.7-5-8.5-9.1c0.2-4.1,1.6-4.6,1.1-11.1c-0.4-6.6-2.4-16.5-2.3-22.2
					c0.1-5.7,0.1-13.8-0.7-19.3C138.2,64.5,135.1,57,134.3,50.9"/>
				<path id="Fill-9" class="st5" d="M40.6,204c-0.1-1.3,0.9-2.2-0.1-5c-1.2-3.4-5.2-3.1-6.8-2.5c-1.4,0.5-4.1,2.7-2.9,5.7
					c1.3,3.2,2.8,2.7,3.9,3.9c2.1,2.4,2.1,6.6,3,7c0.8,0.3,4.9-0.7,4.9-1.4S40.6,205.2,40.6,204"/>
				<path id="Fill-11" class="st5" d="M36.9,137.7c-3.1,2.1-5.1,9.7,2.1,12.3c4.9,1.7,9.3-0.6,9.9-4.8c0.8-5.2-3-4-1.9-9.4
					c1.2-5.8,7.9-32.1,8.1-39c0.2-6.9-0.7-16.3-3.7-16.6c-3.1-0.3-4.9,1.7-4.8,5.4c0.2,3.7-0.8,19.8-1.8,23.3
					C43.4,114.2,39.9,135.6,36.9,137.7"/>
				<path id="Fill-13" class="st5" d="M94,126.2c1.2-2.6,5-1.2,7.7,0.5c2.7,1.7,16.5,7.6,19.5,9.6c3.9,2.6,10.7,9.1,14.1,13.9
					c1.4,1.9,0.9,5.1,2.5,5.3c4.6,0.5,10.4,1.9,10.4,7.1c0,4.5-3.2,6.6-7.1,6c-2.8-0.4-4.9-5.1-7.6-10.2c-1.8-3.5-7.3,1.6-12-7.1
					c-2.8-5.2-7-9.7-11.1-11.7C104,136.4,91.5,131.8,94,126.2"/>
				<path id="Fill-15" class="st5" d="M175.7,454.7c-0.6,3.7-2.8,8.5-1.3,10.2c1.4,1.7,1,5,0.4,7.3c-0.6,2.3-2.4,10.1,0,13.2
					c1.7,2.2,7.1,2.4,9.5-1.1c2.3-3.4-0.4-8.3-0.1-11.5c0.3-3.1,2.7-8.3,2.6-11.3c-0.1-3-2-6.5-1.9-10.7c0.1-4.2,0.5-97,0.3-100.5
					c-0.3-3.8-2.5-6.7-5.8-5.2c-3.7,1.7-1.9,14.9-2,19.5c-0.1,4.7-2,10.7-2,16.8S175.7,454.7,175.7,454.7"/>
				<path id="Fill-17" class="st5" d="M142.9,430.2c0,0,2.4,18.2,5.2,20.1c3.5,2.4,7-0.2,7-4.3s-9.7-48.8-10.4-51.9
					c-0.7-3.1-1.6-6.2-5.9-9c-4.3-2.8-25.9-17.7-29.6-21.9c-3.7-4.2-3.9-3.5-7.3-5.8c-3.5-2.2-6.2-5.5-10.4-5.5
					c-4.2,0-8.5-0.8-10.1,2.6c-1.6,3.3,0,8,2.9,8.3c2.8,0.3,8.8-0.4,11.9,0.5c3.1,0.9,4,2.9,3.8,4.8s0.2,3.9,3.8,4.6
					c3.7,0.7,25.7,16.7,28.4,18.9c2.7,2.2,5,5,5.3,9C137.8,404.5,142.9,430.2,142.9,430.2"/>
				<path id="Fill-19" class="st5" d="M101.9,315.6c-3.4-2.8-10.1-9.8-11.5-9.9c-1.4-0.1-3-1.9-3.9-3c-0.9-1.1-4.1-0.8-7.3-3.3
					c-4.4-3.5,0.7-7.3,0.7-7.3c2.8-2.2,6.7-1.5,8.1,1.7c1.4,3.3,1.7,5,2.4,5.6c0.8,0.7,3.1,0,5.9,0.8C99.1,301.1,115,318,115,318
					s7.3,8.5,13.6,10c5.3,1.3,10.7,1.2,11.6,3.3c0.5,1.3,0.2,5.1-0.6,5.5c-3.7,1.8-24.7-3.4-27.6-6.6
					C108.7,326.7,104.6,317.8,101.9,315.6"/>
				<path id="Fill-21" class="st5" d="M106,279.6c3.3-1.9,1.7-4.5-1.2-8.2c-2.9-3.7-10.1-12.1-12.9-17c-2.9-4.9-8.6-18.9-10.8-24.3
					c-1.2-3.1-4.6-5.9-5.6-9.6c-0.6-2,1.7-5.9-0.9-8.1c-2.4-1.9-0.5-5.6-2.8-6.3c-2.3-0.7-5-0.2-6.2,2.1c-1.2,2.3-1.1,5.9,0.5,8.3
					c1.7,2.5,3.1,2.2,2.9,4.8c-0.1,2.6,7.3,24.2,10.4,30.4c2.6,5.2,18.6,24.9,20.4,26.7C101.5,280.2,103.4,281.1,106,279.6"/>
				<path id="Fill-23" class="st5" d="M50.6,300.4c0,0,3.8,12.2,5.5,12.6c1.7,0.3,3.8-0.5,3.9-2.1c0.1-1.6-3.6-9.1-4.7-12.7
					c-1.1-3.5-4.5-17.6-4.7-21.3c-0.2-3.6-2.8-12.2-3.7-15.3c-0.9-3-3.2-13.9-3.2-16.6c0-2.7-2.1-3.2-2.4-4.9
					c-0.3-1.7,0.1-5.2-2.1-6.5c-2.2-1.3-5.9-0.6-7.6,1.1c-1.8,1.7-0.9,6.7,0.7,8.2c1.7,1.7,0.4,4.2,1.8,5.5c1.4,1.3,1.4,6.3,3,8
					c1.5,1.8,0.1,5.3,2.1,8.5c2,3.2,4.3,3.3,4.3,7.9S49.4,298.7,50.6,300.4"/>
				<path id="Fill-25" class="st5" d="M42.5,186.1c-2.6,0-7.6,0-9.2,1.2c-1.1,0.8-1.1,3.9,0.1,4.5c3.1,1.4,40.2-1.8,46.2-1.3
					c6,0.5,25.9-1.6,28.5-0.6c2.6,1.1,4.7,2.1,6.5,1.6c1.8-0.5,2.7-4.1,4.4-4.2c1.7-0.2,5.9-0.8,7.2-1.7c1.6-1.1,2.2-3.7,1.3-5.6
					c-1-2-3.7-4.5-6.2-3.9c-3.2,0.7-5.2,3-6.4,3.9c-1.3,1-8.3,3.4-12.3,3.3C98.7,183.3,42.5,186.1,42.5,186.1"/>
				<path id="Fill-27" class="st5" d="M147.7,179.6c2.6-0.4,5.1,1.6,5.1,4.5c0,2.9-1.6,14.2-0.7,17.3c0.9,3.1,3.9,14.1,3.5,16.6
					c-0.4,2.5-1.6,6.4,0,8.8c1.7,2.3,3.9,5.3,3.2,9.4c-0.7,4-2,8-1.3,11.9c0.7,3.9,3.6,5.3,3.4,9.1c-0.3,3.8-2.5,7.5-1.7,10
					c0.8,2.5,3.4,3.5,3.3,7c-0.1,3.5-2,4.4-2,8.1c0,3.6,5.5,7.4,4.8,10.8c-0.8,3.4-3.2,9.6-1.7,12.3c1.6,2.7,3.6,4.7,2.7,7.6
					c-0.9,2.9-2.5,5.8-5.1,5.8c-2.6,0-7.2-2.3-7.1-6c0.1-3.7,1.9-5.3,1.6-7.3c-0.4-2-3.1-2.7-3.1-6.1c0-3.5,0.1-5.1-0.6-7.3
					c-0.7-2.1-1.2-8.6-1.4-12.9c-0.2-4.3-3.3-7.8-3.1-10.8c0.2-3,1.2-8.3,0.3-12.5c-0.9-4.2-1.9-6.1-1.6-9.6
					c0.3-3.5,0.9-9.7,0.7-11.9s-0.8-6.5-0.3-8.4s1.6-6.3,1.1-9.3C147,213.6,141.6,180.4,147.7,179.6"/>
				<path id="Fill-29" class="st5" d="M174,232.4c-2.9-2.8-5.5-6.5-3.8-8.4c1.6-1.8,5.9-3.8,8.1,0.2c2.2,3.9,5.1,7.4,5.6,11.5
					c0.5,4.1,4,32.8,3.5,37.2c-0.5,4.5-1,25.5,0,26.5c1,1,4.4,2.1,4.9,6c0.6,3.9-1.7,9.8-4.7,10.2c-3.1,0.4-8.3-1.3-8.7-7.1
					c-0.4-5.8,2.8-6.2,2.8-8.6c-0.1-2.4-2.4-5.6-2.4-9.1c0-3.5,0.5-17.7,0.1-23.2S178.4,236.8,174,232.4"/>
				<path id="Fill-31" class="st5" d="M160.9,169.7c-5.2,1.1-11.4,2.4-10.6,4.8c0.9,2.4,1.7,6.3,6.6,5.1c4.9-1.2,43.7,1.4,49.5,1.4
					s15.4,0.1,17.8,0.7c2.3,0.6,4.6,0.7,6.8,0.6c2.2-0.1,6.4-2.9,9.9-1.9c3.5,1,4.1,3.6,6,3.7c1.9,0.1,6.1-2.5,5.5-5.6
					c-0.6-3.1-3.2-4.3-5.5-4.3c-2.3,0-4.4-1.6-7.2-1.1c-2.8,0.5-2.4,2.1-5.6,2.1c-3.2,0-9.1-3.1-14.3-3c-5.3,0.1-23.5-0.7-28.4-1.3
					C186.4,170.4,166.1,168.6,160.9,169.7"/>
				<path id="Fill-33" class="st5" d="M275,190.7c-1.8-1.1-5.1-0.4-7.2,1.1c-2,1.5-1.7,4.8,1.4,7.2c3.1,2.3,7.1,7.9,8.5,14.5
					c1.4,6.7,9.1,17.4,8.9,21.2c-0.2,3.8,1.1,5.7,2.7,7.6c1.6,1.9,4.3,7,8.4,6.5c4.1-0.5,7.1-1.7,7.4-4.2c0.3-2.5,0.8-4.7-1.5-6.9
					c-1.9-1.8-3.4-2.4-5.4-5.8c-2-3.4-7.9-11.6-9.1-14.6c-1.2-3-4.6-11-7.1-15.4C279.6,197.5,277.5,192.2,275,190.7"/>
				<path id="Fill-35" class="st5" d="M281.6,308.5c-2,1.8-1.8,6.7-0.2,7.7c1.6,1,3.7,1.9,4.3,3.6c0.5,1.4,3.3,2.8,5.2,2.8
					c1.9-0.1,4.7-2.3,4.3-4.7c-0.4-2.4-3-2.6-4-4c-1.1-1.3-4.2-4.6-4-6.3s1.1-2.2,1.2-4c0-1.8-2.7-4-2.7-6.2s2-5.5,0.6-10.3
					c-1.4-4.8-11.2-45.2-11.6-47.2c-0.4-2-2.3-8.9-4.8-10.1c-2.5-1.2-5.2,0.4-5,2.4c0.2,2,7.2,31.6,8.4,37
					c1.2,5.4,6.1,22.7,5.3,24.8s-1.4,3.7-1.4,5.1c0,1.2,1.5,3.5,3.4,5C281.9,305.3,282.3,307.8,281.6,308.5"/>
				<path id="Fill-37" class="st5" d="M269.2,326.3c-0.5,2.7-1.4,8.3,4.1,8.3c5.5,0,10.5-1.5,9.5-5.4c-0.9-3.9-5.4-2.6-8.5-7.9
					c-3-5.4-13.6-22.2-16.3-26.2c-2.7-4.1-6.1-10.9-11-18.4c-5-7.6-13.3-11.5-15.5-17.1c-2.1-5.6-5-11.4-8.9-15.4
					c-3.9-4-20.3-24.5-23.2-26.3s-5.3-1.6-7.7-4.9c-2.4-3.3-6.1-3.9-6.4-7.4c-0.3-3.5-2.1-6.4-5.2-6.5c-3.1-0.1-5.2,2.6-4.5,4.6
					c0.7,2,1.1,3.4,0.5,4.7c-0.6,1.3-1.4,3.9,1,5.2c2.3,1.3,4.7,1,6.1,2.8c1.5,1.9,2.7,4.6,4.9,7.9c2.1,3.3,27.1,26.7,29.2,31.9
					c2.1,5.2,7.2,14.4,11.9,18.8c4.3,4.1,20.3,29,24.9,33.3C257.7,311.6,270.6,318.7,269.2,326.3"/>
				<path id="Fill-39" class="st6" d="M123.3,29.8c0,0,1.3-2.1,2.5-1.4c1,0.6-0.5,1.7-0.9,2.5c-0.4,0.7,0,1.8-1.2,1.8
					C122.4,32.6,122.4,31.1,123.3,29.8"/>
				<path id="Fill-41" class="st6" d="M106.1,29.6c0-0.7,0.4-1,1-1.2c0.6-0.2,0.9-0.4,1-0.8c0.1-0.4,0-1.9,1.1-1.7
					c1.1,0.2,0,1.9-0.2,2.2c-0.1,0.3,1,1.2,0.5,2c-0.4,0.5-0.7,0.1-1.6,0.2C107,30.5,106.1,30.3,106.1,29.6"/>
				<polygon id="Fill-43" class="st6" points="9.7,186.5 1.9,190.6 0,186.9 3.3,185.2 0.6,183 3.2,179.8 7.3,183.1 7.8,182.8 				
					"/>
				<polygon id="Fill-45" class="st6" points="44.6,183.6 36.3,185 34.9,176.4 43.2,175.1 				"/>
				<path id="Fill-47" class="st6" d="M130.6,159.9c1-0.3,0-1.5,1-1.6c1,0,1.8,0.2,2.1,1.9c0.4,1.7,0.6,1.9,1.3,2.2
					c0.6,0.3,0.2,2-0.7,1.6c-0.9-0.4-1.5-2.7-2.2-2.9c-0.7-0.2-2.1,0.4-2.3-0.2C129.5,160.3,130.2,160,130.6,159.9"/>
				<path id="Fill-49" class="st6" d="M139.7,152.1c1.9-0.2,3.6,0.9,3.5,2.2c-0.1,1.5-1.8,0.4-2.6,0.4c-0.8,0-2.7,0.5-3-0.3
					C137.1,153.3,137.8,152.3,139.7,152.1"/>
				<polygon id="Fill-51" class="st6" points="28.5,193.9 23.7,194.7 22.4,186.4 27.1,185.6 				"/>
				<polygon id="Fill-53" class="st6" points="30.3,209.9 23,211.1 21.6,202.8 29,201.6 				"/>
				<path id="Fill-55" class="st6" d="M63.9,221.3c-0.5-0.6,0.2-1.6,0.3-2c0.1-0.5,0-1,0.5-1.2c0.6-0.2,0.6,0.5,1.3,0.5
					c0.6-0.1,1.8,0,1.8,0.8c0,0.8-1.1,0.9-1.7,1.5C65.5,221.3,64.5,222,63.9,221.3"/>
				<path id="Fill-57" class="st6" d="M118.2,190.3c-0.1-0.9,0.4-2.5,2.5-2c0.9,0.2,0.1,0.8,0.3,1.5c0.1,0.7,0.7,1.7-0.5,1.7
					C119.4,191.6,118.4,191.6,118.2,190.3"/>
				<path id="Fill-59" class="st6" d="M30.2,246.2c-0.4-1-1.8-1.9-1.2-2.7c0.6-0.8,1.7-1.2,2.6-0.3c0.9,1,0.3,2.1,0.8,2.8
					c0.4,0.7,0.9,1.1,1,2.7c0.1,1.6,1.5,1.9,1.4,2.6c-0.1,0.7-1.2,1.4-1.9,0.3c-0.7-1-0.5-1.8-0.9-2.2c-0.5-0.6-1.2-0.4-1.4-1
					C30.1,247.7,30.4,246.8,30.2,246.2"/>
				<path id="Fill-61" class="st6" d="M180.1,219.2c-0.1-0.5,0.3-0.5,0.3-0.9c0-0.6-0.4-1.9,0.7-1.9c1.1,0,0.8,1.2,1.4,1.5
					c0.6,0.3,1.3-0.2,1.3,0.8c0,1-0.8,3-1.9,3c-1.1,0-1.4-0.5-1.4-1.4C180.5,219.6,180.2,219.6,180.1,219.2"/>
				<path id="Fill-63" class="st6" d="M189.8,297.6c-0.4,0.1-1.5,0.2-1.5,0.8c0,0.7,0.4,1,1,0.9c0.6-0.1,0.7-0.4,1-0.4
					c0.3,0,0.2,1.1,0.9,1c0.7-0.1,0.3-0.9,0.8-1s0.5,0.8,1.2,0.5c0.7-0.3,1.1-1,0.7-1.7c-0.4-0.6-1.6-0.2-2-0.5
					c-0.4-0.3-0.9-0.5-1.3-0.4C190.2,297.1,190.2,297.5,189.8,297.6"/>
				<path id="Fill-65" class="st6" d="M89.1,295.8c-0.1-0.7,0.6-1.3,1.5-1.3c0.9,0,2,0.9,2.3,2c0.2,1.1,0.4,2.7-0.6,2.8
					c-1,0.2-2.1-0.2-2.1-0.9c0-0.8,0.7-0.8,0.7-1.4C90.7,296.4,89.2,296.6,89.1,295.8"/>
				<path id="Fill-67" class="st6" d="M79.9,302.6c-0.2,0.4,0.5,1.7,1.5,1.8c0.9,0.2,1.8-0.4,2.6-0.2c0.8,0.2,1.4,1.3,2.2,1
					c0.7-0.3,0.9-1.6-0.4-2.3c-1.3-0.7-1.8-0.1-2.3-0.4c-0.5-0.2-0.5-0.7-1.3-0.7c-0.8,0-0.7,0.9-1,0.7
					C80.4,302.2,80.1,302.3,79.9,302.6"/>
				<path id="Fill-69" class="st6" d="M290.8,305c1.2-0.2,1.2,0.3,2,0.3s1.5-0.4,1.9,0.3c0.4,0.7,0.5,1.3-0.4,1.4
					c-0.8,0.1-0.6-0.4-1.1-0.2c-0.5,0.2,0.4,1.1-0.4,1.3c-0.8,0.2-0.8-0.7-1.3-0.6c-0.5,0.1-0.3,0.5-0.8,0.5c-0.5,0-0.4-0.3-0.9-0.2
					c-0.5,0.1-0.5,0.4-1,0.4c-0.5,0-0.7-0.5-0.4-1.1c0.2-0.5,0.8-0.2,1-0.8C289.6,305.6,290,305.1,290.8,305"/>
				<path id="Fill-71" class="st7" d="M273.5,310.2c0.3-1.6,1.7-4.4,3.6-4.8c1.3-0.3,3.2,0,3.8,1.2c0.9,1.7-1.7,3.3-1.6,4.7
					c0.1,1.4,0.5,2.6-0.1,3.6c-0.8,1.3-4.1,1.8-5.2,0C272.8,313,273.4,310.6,273.5,310.2"/>
				<path id="Fill-73" class="st7" d="M240.9,330.8c-1.4-1.8,2.2-7.3,5.8-9.1c3.2-1.6,11.3-3.5,15.4-2.8c4.2,0.7,7.1,3.4,4.8,6.4
					c-2.4,3-9.2,2.1-12.2,3C251,329.4,243.1,333.7,240.9,330.8"/>
				<path id="Fill-75" class="st6" d="M92.6,367.2c0-0.7,0.4-0.8,1.1-0.8c0.6,0,0.7,0.5,1,0.3c0.4-0.2,0.5-1,0.8-1
					c0.3,0,0.8,0.1,1-0.2c0.1-0.3,0.2-0.7,0.8-0.7c0.6,0,1.2,1.2,0.7,1.6c-0.5,0.4-1,0.5-1,1.1s0.2,1.5-0.4,1.5
					c-0.5,0-1.1-0.4-1.9-0.4C93.8,368.5,92.5,368.4,92.6,367.2"/>
				<path id="Fill-77" class="st8" d="M6.4,21.8c1.3-0.1,3.1-0.1,4.3,2.2s0.5,3.5,0.7,4.3c0.2,0.8,1.5,1.5,1.4,4
					c-0.1,2.5-2,4.5-3.2,4.8c-1.2,0.3-4.1-0.8-4.5-3.3c-0.5-2.5-0.2-2.7-0.3-3.6c-0.2-1.2-1.8-2.9-1.5-4.8
					C3.5,23.6,4.4,22.1,6.4,21.8"/>
				<path id="Fill-79" class="st8" d="M42.4,55.3c0,0,1.1-5.1,7.2-3.2s6.1,6.7,4.9,8.3c-1.1,1.6-4,1.8-6.3-0.7
					C45.8,57.3,42,58.1,42.4,55.3"/>
				<path id="Fill-81" class="st8" d="M122,28.1c1.2-3.2,5.5-4.4,2.5-8.2c-3.5-4.4-8.5,0.4-9.8,2.5c-1.3,2.1-3.4,6.8-0.8,8.6
					C116.5,32.7,120.3,32.3,122,28.1"/>
				<path id="Fill-83" class="st8" d="M34.2,197.5c1.6-0.4,4.2-0.6,5.2,2c1.1,2.9-0.1,4.6-1.8,5.2c-1.7,0.6-4.8-0.2-5.7-2.7
					C31.1,199.8,32.7,197.9,34.2,197.5"/>
				<path id="Fill-85" class="st8" d="M136.5,157.6c0,0,1.5-1.7,4.1-0.8c2.6,0.9,3.4,0.5,4.9,2.5c1.5,2,0.4,8.3-3,7.9
					c-3.3-0.4-3.4-3.1-4.7-4.2C136.4,162,134.4,160,136.5,157.6"/>
				<path id="Fill-87" class="st8" d="M150.8,123.4c0,0-1.3-5.4-5.5-3.2c-3,1.6-1,4-0.6,5c0.4,1,1.2,4.1,4,3.3
					C151.6,127.8,151.3,125.2,150.8,123.4"/>
				<path id="Fill-89" class="st8" d="M42,140.2c1.9,0.3,4.5,2.6,4,4.7c-0.4,2.1-3.2,3.7-6.1,2.8c-2.9-0.9-4.2-2.9-3.4-5
					C37.3,140.5,39.4,139.9,42,140.2"/>
				<path id="Fill-91" class="st8" d="M72.8,212.1c-0.6-1.3,0.4-4.2-1-4.8c-1.4-0.6-6-0.2-5.8,5.6c0.1,4.8,4.8,6.3,6.3,5.7
					c1.5-0.6,2.5-1.8,2.3-3.1C74.3,213.6,73.4,213.7,72.8,212.1"/>
				<path id="Fill-93" class="st8" d="M108.5,188.3c-0.7-1.5-0.7-4.3,1.3-5.2c2-0.8,5.3-1,6.3-1.8c1-0.7,3.1-3.3,4.7-3.7
					c1.8-0.5,3.6-0.3,5.1,2.5c1.5,2.8-0.4,4.7-1.9,5.4c-1.6,0.7-4.3,0.2-5.6,0.9c-1.4,0.8-2.7,3.8-4.2,4
					C112.4,190.7,109.5,190.2,108.5,188.3"/>
				<path id="Fill-95" class="st8" d="M33.8,242.5c-0.9-0.9-2-2.6-2.1-4.2c-0.1-1.6,0.8-3.8,3.4-4.2c2.5-0.4,4.5,1.5,4.8,2.6
					c0.3,1.1-0.8,3,0,4.1c0.8,1.2,2.7,3.1,2.3,5c-0.4,1.9-1.7,2.6-3.3,3c-1.6,0.4-4.1-0.6-4.5-2.3C34,244.9,34.7,243.4,33.8,242.5"
					/>
				<path id="Fill-97" class="st8" d="M178.3,205.9c-0.2-1.3-0.9-1.9-0.8-2.9c0.2-1,1-2.1,2.6-2.2c1.5,0,2.5,1.3,2.5,2.5
					c0,1.2-0.5,2.2,0,3c0.5,0.8,3.4,3.3,2.5,5.3c-0.9,2.1-2.1,2.3-4.1,2.3c-2,0-4.1-1.1-4.1-3.2S178.5,207.8,178.3,205.9"/>
				<path id="Fill-99" class="st8" d="M241.7,178.2c0-1.3,1-2.4,2.6-2.4c1.6,0,5.1-0.2,6.1,1.4c1,1.7-0.6,6.1-2.6,6
					c-1.9-0.1-2.4-1.8-3.6-1.9C243.2,181.2,241.8,180,241.7,178.2"/>
				<path id="Fill-101" class="st8" d="M186,302.4c1.2-0.1,4.8,0.3,4.8,5.5c0,3.1-2.8,6.1-5.1,6.1c-2.1,0-4.9-2.1-4.6-5.5
					C181.5,305.2,183.4,302.7,186,302.4"/>
				<path id="Fill-103" class="st8" d="M160.7,306.7c1.7,0,4.9,1.9,4.7,5.5s-4,4.8-5.7,4.7c-1.7-0.1-4.2-2-3.9-5.1
					C156,308.7,158.9,306.7,160.7,306.7"/>
				<path id="Fill-105" class="st8" d="M80.2,293c0.9-0.9,3.9-1.8,5.3-0.6c1.5,1.1,0.9,2.3,1.7,3c0.8,0.7,2.5,3.1,1.2,4.9
					c-1.3,1.8-4.2,0.9-5.7,0C81.2,299.4,76.3,296.8,80.2,293"/>
				<path id="Fill-107" class="st8" d="M296.1,238.6c2.1-0.7,5.9-0.1,7,2.9c1.1,3-2.6,4.4-3.7,4.6c-2,0.3-5.6-0.2-6-2.7
					C293,240.8,294.6,239.1,296.1,238.6"/>
				<path id="Fill-109" class="st8" d="M282.7,311c1-1.1,3.7-1.2,5.2,0.4c1.4,1.5,0.7,2.8,2,3.4c1.3,0.6,4.2,2.1,4.2,3.3
					c0,1.3-0.8,3.7-4.1,3c-3.3-0.7-2.7-2.5-4.2-3.1C284.3,317.5,279.6,314.5,282.7,311"/>
				<path id="Fill-111" class="st8" d="M89.4,353.6c1.8-0.1,2.1-0.5,3.5,0c1.4,0.5,2.3,2.4,2.2,4.2c-0.2,1.7-1.5,3.9-3.3,3.8
					c-1.9-0.1-2-0.4-3.3-0.3s-3.5,0.2-4.4-1.3c-0.9-1.5-1.3-4.8,1.1-6.2C86.9,352.7,88.1,353.6,89.4,353.6"/>
				<path id="Fill-113" class="st8" d="M177.3,479.2c-0.2-1.8-1.1-2.4-1-4.3c0.2-1.8,0.5-3.2,2.7-3.2c2.2,0,2.8,2.8,3.2,4.3
					c0.4,1.6,1.7,2.8,1,4.7c-0.8,2-1.2,5.1-4.4,4.6c-3.2-0.4-3.1-2.4-3-3.2C175.9,481.4,177.5,480.3,177.3,479.2"/>
				<polygon id="Fill-117" class="st9" points="7.9,30 7.8,29.4 8.2,29.4 8.2,30 				"/>
				<path id="Fill-119" class="st9" d="M8,32.3l0-1.2l0.4,0l0,1.2L8,32.3z M8.1,34.6l0-1.2l0.4,0l0,1.2L8.1,34.6z M8.1,36.9l0-1.2
					l0.4,0l0,1.2L8.1,36.9z M8.2,39.3l0-1.2l0.4,0l0,1.2L8.2,39.3z M8.3,41.6l0-1.2l0.4,0l0,1.2L8.3,41.6z M8.4,43.9l0-1.2l0.4,0
					l0,1.2L8.4,43.9z M8.5,46.2l0-1.2l0.4,0l0,1.2L8.5,46.2z M8.6,48.5l0-1.2l0.4,0l0,1.2L8.6,48.5z M8.7,50.8l0-1.2l0.4,0l0,1.2
					L8.7,50.8z M8.8,53.1l0-1.2l0.4,0l0,1.2L8.8,53.1z M8.9,55.4l0-1.2l0.4,0l0,1.2L8.9,55.4z M9,57.7l0-1.2l0.4,0l0,1.2L9,57.7z
					 M9.1,60l0-1.2l0.4,0l0,1.2L9.1,60z M9.2,62.3l0-1.2l0.4,0l0,1.2L9.2,62.3z M9.3,64.6l0-1.2l0.4,0l0,1.2L9.3,64.6z M9.4,66.9
					l0-1.2l0.4,0l0,1.2L9.4,66.9z M9.4,69.2l0-1.2l0.4,0l0,1.2L9.4,69.2z M9.5,71.5l0-1.2l0.4,0l0,1.2L9.5,71.5z M9.6,73.8l0-1.2
					l0.4,0l0,1.2L9.6,73.8z M9.7,76.1l0-1.2l0.4,0l0,1.2L9.7,76.1z M9.8,78.5l0-1.2l0.4,0l0,1.2L9.8,78.5z M9.9,80.8l0-1.2l0.4,0
					l0,1.2L9.9,80.8z M10,83.1l0-1.2l0.4,0l0,1.2L10,83.1z M10.1,85.4l0-1.2l0.4,0l0,1.2L10.1,85.4z M10.2,87.7l0-1.2l0.4,0l0,1.2
					L10.2,87.7z M10.3,90l0-1.2l0.4,0l0,1.2L10.3,90z M10.4,92.3l0-1.2l0.4,0l0,1.2L10.4,92.3z M10.5,94.6l0-1.2l0.4,0l0,1.2
					L10.5,94.6z M10.6,96.9l0-1.2l0.4,0l0,1.2L10.6,96.9z M10.7,99.2l0-1.2l0.4,0l0,1.2L10.7,99.2z M10.7,101.5l0-1.2l0.4,0l0,1.2
					L10.7,101.5z M10.8,103.8l0-1.2l0.4,0l0,1.2L10.8,103.8z M10.9,106.1l0-1.2l0.4,0l0,1.2L10.9,106.1z M11,108.4l0-1.2l0.4,0
					l0,1.2L11,108.4z M11.1,110.7l0-1.2l0.4,0l0,1.2L11.1,110.7z M11.2,113l0-1.2l0.4,0l0,1.2L11.2,113z M11.3,115.4l0-1.2l0.4,0
					l0,1.2L11.3,115.4z M11.4,117.7l0-1.2l0.4,0l0,1.2L11.4,117.7z M11.5,120l0-1.2l0.4,0l0,1.2L11.5,120z M11.6,122.3l0-1.2l0.4,0
					l0,1.2L11.6,122.3z M11.7,124.6l0-1.2l0.4,0l0,1.2L11.7,124.6z M11.8,126.9l0-1.2l0.4,0l0,1.2L11.8,126.9z M11.9,129.2l0-1.2
					l0.4,0l0,1.2L11.9,129.2z M12,131.5l0-1.2l0.4,0l0,1.2L12,131.5z M12,133.8l0-1.2l0.4,0l0,1.2L12,133.8z M12.1,136.1l0-1.2
					l0.4,0l0,1.2L12.1,136.1z M12.2,138.4l0-1.2l0.4,0l0,1.2L12.2,138.4z M12.3,140.7l0-1.2l0.4,0l0,1.2L12.3,140.7z M12.4,143
					l0-1.2l0.4,0l0,1.2L12.4,143z M12.5,145.3l0-1.2l0.4,0l0,1.2L12.5,145.3z M12.6,147.6l0-1.2l0.4,0l0,1.2L12.6,147.6z"/>
				<polygon id="Fill-121" class="st9" points="12.7,149.4 12.7,148.8 13,148.8 13,149.4 				"/>
				<path id="Fill-123" class="st9" d="M7.2,29.5c0-0.5,0.3-0.8,0.8-0.9c0.5,0,0.8,0.3,0.9,0.8c0,0.5-0.3,0.8-0.8,0.9
					C7.6,30.3,7.2,30,7.2,29.5"/>
				<polygon id="Fill-125" class="st9" points="48.3,56 48.1,55.4 48.5,55.3 48.7,55.9 				"/>
				<path id="Fill-127" class="st9" d="M32.4,9.4l-0.4-1.1l0.3-0.1l0.4,1.1L32.4,9.4z M33.2,11.7l-0.4-1.1l0.3-0.1l0.4,1.1
					L33.2,11.7z M34,13.9l-0.4-1.1l0.3-0.1l0.4,1.1L34,13.9z M34.7,16.2L34.4,15l0.3-0.1l0.4,1.1L34.7,16.2z M35.5,18.4l-0.4-1.1
					l0.3-0.1l0.4,1.1L35.5,18.4z M36.3,20.7l-0.4-1.1l0.3-0.1l0.4,1.1L36.3,20.7z M37,22.9l-0.4-1.1l0.3-0.1l0.4,1.1L37,22.9z
					 M37.8,25.1L37.4,24l0.3-0.1l0.4,1.1L37.8,25.1z M38.6,27.4l-0.4-1.1l0.3-0.1l0.4,1.1L38.6,27.4z M39.3,29.6L39,28.5l0.3-0.1
					l0.4,1.1L39.3,29.6z M40.1,31.9l-0.4-1.1l0.3-0.1l0.4,1.1L40.1,31.9z M40.9,34.1L40.5,33l0.3-0.1l0.4,1.1L40.9,34.1z M41.6,36.4
					l-0.4-1.1l0.3-0.1l0.4,1.1L41.6,36.4z M42.4,38.6L42,37.5l0.3-0.1l0.4,1.1L42.4,38.6z M43.2,40.9l-0.4-1.1l0.3-0.1l0.4,1.1
					L43.2,40.9z M43.9,43.1L43.5,42l0.3-0.1l0.4,1.1L43.9,43.1z M44.7,45.3l-0.4-1.1l0.3-0.1l0.4,1.1L44.7,45.3z M45.5,47.6
					l-0.4-1.1l0.3-0.1l0.4,1.1L45.5,47.6z M46.2,49.8l-0.4-1.1l0.3-0.1l0.4,1.1L46.2,49.8z M47,52.1L46.6,51l0.3-0.1l0.4,1.1
					L47,52.1z M47.8,54.3l-0.4-1.1l0.3-0.1l0.4,1.1L47.8,54.3z"/>
				<polygon id="Fill-129" class="st9" points="31.7,7.2 31.5,6.6 31.8,6.5 32,7.1 				"/>
				<path id="Fill-131" class="st9" d="M49.3,55.6c0.1,0.4-0.1,0.9-0.5,1c-0.4,0.1-0.9-0.1-1-0.5c-0.1-0.4,0.1-0.9,0.5-1
					C48.7,55,49.1,55.2,49.3,55.6"/>
				<polygon id="Fill-133" class="st9" points="41.4,143.7 41.1,143.6 41.2,143.1 41.5,143.1 				"/>
				<path id="Fill-135" class="st9" d="M51.1,83.1L50.8,83l0.2-1.1l0.4,0.1L51.1,83.1z M50.8,85.4l-0.4-0.1l0.2-1.1l0.4,0.1
					L50.8,85.4z M50.4,87.6L50,87.6l0.2-1.1l0.4,0.1L50.4,87.6z M50,89.9l-0.4-0.1l0.2-1.1l0.4,0.1L50,89.9z M49.7,92.2l-0.4-0.1
					l0.2-1.1l0.4,0.1L49.7,92.2z M49.3,94.4L49,94.4l0.2-1.1l0.4,0.1L49.3,94.4z M48.9,96.7l-0.4-0.1l0.2-1.1l0.4,0.1L48.9,96.7z
					 M48.6,99l-0.4-0.1l0.2-1.1l0.4,0.1L48.6,99z M48.2,101.2l-0.4-0.1L48,100l0.4,0.1L48.2,101.2z M47.9,103.5l-0.4-0.1l0.2-1.1
					l0.4,0.1L47.9,103.5z M47.5,105.8l-0.4-0.1l0.2-1.1l0.4,0.1L47.5,105.8z M47.1,108l-0.4-0.1l0.2-1.1l0.4,0.1L47.1,108z
					 M46.8,110.3l-0.4-0.1l0.2-1.1l0.4,0.1L46.8,110.3z M46.4,112.5l-0.4-0.1l0.2-1.1l0.4,0.1L46.4,112.5z M46.1,114.8l-0.4-0.1
					l0.2-1.1l0.4,0.1L46.1,114.8z M45.7,117.1l-0.4-0.1l0.2-1.1l0.4,0.1L45.7,117.1z M45.3,119.3l-0.4-0.1l0.2-1.1l0.4,0.1
					L45.3,119.3z M45,121.6l-0.4-0.1l0.2-1.1l0.4,0.1L45,121.6z M44.6,123.9l-0.4-0.1l0.2-1.1l0.4,0.1L44.6,123.9z M44.2,126.1
					l-0.4-0.1l0.2-1.1l0.4,0.1L44.2,126.1z M43.9,128.4l-0.4-0.1l0.2-1.1l0.4,0.1L43.9,128.4z M43.5,130.7l-0.4-0.1l0.2-1.1l0.4,0.1
					L43.5,130.7z M43.2,132.9l-0.4-0.1l0.2-1.1l0.4,0.1L43.2,132.9z M42.8,135.2l-0.4-0.1l0.2-1.1l0.4,0.1L42.8,135.2z M42.4,137.5
					l-0.4-0.1l0.2-1.1l0.4,0.1L42.4,137.5z M42.1,139.7l-0.4-0.1l0.2-1.1l0.4,0.1L42.1,139.7z M41.7,142l-0.4-0.1l0.2-1.1l0.4,0.1
					L41.7,142z"/>
				<polygon id="Fill-137" class="st9" points="51.5,80.8 51.1,80.8 51.2,80.2 51.6,80.3 				"/>
				<path id="Fill-139" class="st9" d="M42.1,143.8c-0.1,0.4-0.5,0.8-0.9,0.7c-0.4-0.1-0.8-0.5-0.7-0.9c0.1-0.4,0.5-0.8,0.9-0.7
					C41.8,142.9,42.1,143.3,42.1,143.8"/>
				<polygon id="Fill-141" class="st9" points="75.6,112.9 75.2,112.9 75.3,112.3 75.6,112.4 				"/>
				<path id="Fill-143" class="st9" d="M116.8,28.4l-0.3-0.2l0.7-0.9l0.3,0.2L116.8,28.4z M115.3,30.2L115,30l0.7-0.9l0.3,0.2
					L115.3,30.2z M113.8,32l-0.3-0.2l0.7-0.9l0.3,0.2L113.8,32z M112.4,33.8l-0.3-0.2l0.7-0.9l0.3,0.2L112.4,33.8z M110.9,35.6
					l-0.3-0.2l0.7-0.9l0.3,0.2L110.9,35.6z M109.4,37.4l-0.3-0.2l0.7-0.9l0.3,0.2L109.4,37.4z M107.9,39.2l-0.3-0.2l0.7-0.9l0.3,0.2
					L107.9,39.2z M106.4,41.1l-0.3-0.2l0.7-0.9l0.3,0.2L106.4,41.1z M104.9,42.9l-0.3-0.2l0.7-0.9l0.3,0.2L104.9,42.9z M103.4,44.7
					l-0.3-0.2l0.7-0.9l0.3,0.2L103.4,44.7z M102,46.5l-0.3-0.2l0.7-0.9l0.3,0.2L102,46.5z M100.5,48.3l-0.3-0.2l0.7-0.9l0.3,0.2
					L100.5,48.3z M99,50.1l-0.3-0.2l0.7-0.9l0.3,0.2L99,50.1z M97.5,51.9l-0.3-0.2l0.7-0.9l0.3,0.2L97.5,51.9z M96,53.7l-0.3-0.2
					l0.7-0.9l0.3,0.2L96,53.7z M94.5,55.5l-0.3-0.2l0.7-0.9l0.3,0.2L94.5,55.5z M93.1,57.4l-0.3-0.2l0.7-0.9l0.3,0.2L93.1,57.4z
					 M91.6,59.2l-0.3-0.2L92,58l0.3,0.2L91.6,59.2z M90.1,61l-0.3-0.2l0.7-0.9l0.3,0.2L90.1,61z M88.6,62.8l-0.3-0.2l0.7-0.9
					l0.3,0.2L88.6,62.8z M87.1,64.6l-0.3-0.2l0.7-0.9l0.3,0.2L87.1,64.6z M85.6,66.4l-0.3-0.2l0.7-0.9l0.3,0.2L85.6,66.4z
					 M84.2,68.2L83.9,68l0.7-0.9l0.3,0.2L84.2,68.2z M82.7,70l-0.3-0.2l0.7-0.9l0.3,0.2L82.7,70z M81.3,71.8L81,71.7l0-0.3l0.6-0.8
					l0.3,0.2l-0.6,0.7L81.3,71.8z M81,74.1l-0.4-0.1l0.2-1.2l0.4,0.1L81,74.1z M80.7,76.4l-0.4-0.1l0.2-1.2l0.4,0.1L80.7,76.4z
					 M80.4,78.8L80,78.7l0.2-1.2l0.4,0.1L80.4,78.8z M80,81.1L79.7,81l0.2-1.2l0.4,0.1L80,81.1z M79.7,83.4l-0.4-0.1l0.2-1.2
					l0.4,0.1L79.7,83.4z M79.4,85.7L79,85.7l0.2-1.2l0.4,0.1L79.4,85.7z M79.1,88L78.7,88l0.2-1.2l0.4,0.1L79.1,88z M78.7,90.3
					l-0.4-0.1l0.2-1.2l0.4,0.1L78.7,90.3z M78.4,92.7L78,92.6l0.2-1.2l0.4,0.1L78.4,92.7z M78.1,95l-0.4-0.1l0.2-1.2l0.4,0.1
					L78.1,95z M77.8,97.3l-0.4-0.1l0.2-1.2l0.4,0.1L77.8,97.3z M77.4,99.6l-0.4-0.1l0.2-1.2l0.4,0.1L77.4,99.6z M77.1,101.9
					l-0.4-0.1l0.2-1.2l0.4,0.1L77.1,101.9z M76.8,104.2l-0.4-0.1l0.2-1.2l0.4,0.1L76.8,104.2z M76.5,106.6l-0.4-0.1l0.2-1.2l0.4,0.1
					L76.5,106.6z M76.1,108.9l-0.4-0.1l0.2-1.2l0.4,0.1L76.1,108.9z M75.8,111.2l-0.4-0.1l0.2-1.2L76,110L75.8,111.2z"/>
				<polygon id="Fill-145" class="st9" points="118.3,26.6 118,26.3 118.4,25.9 118.7,26.1 				"/>
				<path id="Fill-147" class="st9" d="M119.1,26.6c0.3-0.3,0.2-0.9-0.1-1.2c-0.4-0.3-0.9-0.2-1.2,0.1c-0.3,0.3-0.2,0.9,0.1,1.2
					C118.3,27,118.8,26.9,119.1,26.6"/>
				<polygon id="Fill-149" class="st9" points="147.5,124.2 147.4,123.6 147.8,123.6 147.8,124.2 				"/>
				<path id="Fill-151" class="st9" d="M136.1,40.9l-0.2-1.1l0.4,0l0.2,1.1L136.1,40.9z M136.4,43.1l-0.2-1.1l0.4,0l0.2,1.1
					L136.4,43.1z M136.7,45.4l-0.2-1.1l0.4,0l0.2,1.1L136.7,45.4z M137,47.7l-0.2-1.1l0.4,0l0.2,1.1L137,47.7z M137.3,50l-0.2-1.1
					l0.4,0l0.2,1.1L137.3,50z M137.6,52.2l-0.2-1.1l0.4,0l0.2,1.1L137.6,52.2z M137.9,54.5l-0.2-1.1l0.4,0l0.2,1.1L137.9,54.5z
					 M138.3,56.8l-0.2-1.1l0.4,0l0.2,1.1L138.3,56.8z M138.6,59l-0.2-1.1l0.4,0l0.2,1.1L138.6,59z M138.9,61.3l-0.2-1.1l0.4,0
					l0.2,1.1L138.9,61.3z M139.2,63.6l-0.2-1.1l0.4,0l0.2,1.1L139.2,63.6z M139.5,65.8l-0.2-1.1l0.4,0l0.2,1.1L139.5,65.8z
					 M139.8,68.1l-0.2-1.1l0.4,0l0.2,1.1L139.8,68.1z M140.1,70.4l-0.2-1.1l0.4,0l0.2,1.1L140.1,70.4z M140.4,72.6l-0.2-1.1l0.4,0
					l0.2,1.1L140.4,72.6z M140.7,74.9l-0.2-1.1l0.4,0l0.2,1.1L140.7,74.9z M141,77.2l-0.2-1.1l0.4,0l0.2,1.1L141,77.2z M141.4,79.4
					l-0.2-1.1l0.4,0l0.2,1.1L141.4,79.4z M141.7,81.7l-0.2-1.1l0.4,0l0.2,1.1L141.7,81.7z M142,84l-0.2-1.1l0.4,0l0.2,1.1L142,84z
					 M142.3,86.2l-0.2-1.1l0.4,0l0.2,1.1L142.3,86.2z M142.6,88.5l-0.2-1.1l0.4,0l0.2,1.1L142.6,88.5z M142.9,90.8l-0.2-1.1l0.4,0
					l0.2,1.1L142.9,90.8z M143.2,93l-0.2-1.1l0.4,0l0.2,1.1L143.2,93z M143.5,95.3l-0.2-1.1l0.4,0l0.2,1.1L143.5,95.3z M143.8,97.6
					l-0.2-1.1l0.4,0l0.2,1.1L143.8,97.6z M144.1,99.8l-0.2-1.1l0.4,0l0.2,1.1L144.1,99.8z M144.5,102.1l-0.2-1.1l0.4,0l0.2,1.1
					L144.5,102.1z M144.8,104.4l-0.2-1.1l0.4,0l0.2,1.1L144.8,104.4z M145.1,106.6l-0.2-1.1l0.4,0l0.2,1.1L145.1,106.6z
					 M145.4,108.9l-0.2-1.1l0.4,0l0.2,1.1L145.4,108.9z M145.7,111.2l-0.2-1.1l0.4,0l0.2,1.1L145.7,111.2z M146,113.4l-0.2-1.1
					l0.4,0l0.2,1.1L146,113.4z M146.3,115.7l-0.2-1.1l0.4,0l0.2,1.1L146.3,115.7z M146.6,118l-0.2-1.1l0.4,0l0.2,1.1L146.6,118z
					 M146.9,120.2l-0.2-1.1l0.4,0l0.2,1.1L146.9,120.2z M147.2,122.5l-0.2-1.1l0.4,0l0.2,1.1L147.2,122.5z"/>
				<polygon id="Fill-153" class="st9" points="135.8,38.6 135.7,38 136.1,38 136.1,38.6 				"/>
				<path id="Fill-155" class="st9" d="M148.5,124c0.1,0.4-0.3,0.9-0.7,0.9c-0.4,0.1-0.9-0.3-0.9-0.7c-0.1-0.4,0.3-0.9,0.7-0.9
					C148,123.3,148.4,123.6,148.5,124"/>
				<polygon id="Fill-157" class="st9" points="141.1,161.5 140.7,161.2 140.9,160.9 141.3,161.3 				"/>
				<path id="Fill-159" class="st9" d="M96.4,127.9l-1-0.6l0.2-0.3l1,0.6L96.4,127.9z M98.4,129.2l-1-0.6l0.2-0.3l1,0.6L98.4,129.2z
					 M100.4,130.5l-1-0.6l0.2-0.3l1,0.6L100.4,130.5z M102.3,131.8l-1-0.6l0.2-0.3l1,0.6L102.3,131.8z M104.3,133.1l-1-0.6l0.2-0.3
					l1,0.6L104.3,133.1z M106.3,134.3l-1-0.6l0.2-0.3l1,0.6L106.3,134.3z M108.3,135.6l-1-0.6l0.2-0.3l1,0.6L108.3,135.6z
					 M110.3,136.9l-1-0.6l0.2-0.3l1,0.6L110.3,136.9z M112.3,138.2l-1-0.6l0.2-0.3l1,0.6L112.3,138.2z M114.3,139.5l-1-0.6l0.2-0.3
					l1,0.6L114.3,139.5z M116.2,140.7l-1-0.6l0.2-0.3l1,0.6L116.2,140.7z M118.2,142l-1-0.6l0.2-0.3l1,0.6L118.2,142z M120.1,143.4
					l-0.9-0.8l0.2-0.3l0.9,0.8L120.1,143.4z M121.9,145l-0.9-0.8l0.2-0.3l0.9,0.8L121.9,145z M123.7,146.5l-0.9-0.8l0.2-0.3l0.9,0.8
					L123.7,146.5z M125.4,148.1l-0.9-0.8l0.2-0.3l0.9,0.8L125.4,148.1z M127.2,149.6l-0.9-0.8l0.2-0.3l0.9,0.8L127.2,149.6z
					 M129,151.1l-0.9-0.8l0.2-0.3l0.9,0.8L129,151.1z M130.8,152.7l-0.9-0.8l0.2-0.3l0.9,0.8L130.8,152.7z M132.6,154.2l-0.9-0.8
					l0.2-0.3l0.9,0.8L132.6,154.2z M134.4,155.8l-0.9-0.8l0.2-0.3l0.9,0.8L134.4,155.8z M136.2,157.3l-0.9-0.8l0.2-0.3l0.9,0.8
					L136.2,157.3z M138,158.8l-0.9-0.8l0.2-0.3l0.9,0.8L138,158.8z M139.8,160.4l-0.9-0.8l0.2-0.3l0.9,0.8L139.8,160.4z"/>
				<polygon id="Fill-161" class="st9" points="94.4,126.7 93.9,126.4 94.1,126 94.6,126.4 				"/>
				<path id="Fill-163" class="st9" d="M141.7,160.8c0.3,0.3,0.4,0.8,0.1,1.2c-0.3,0.3-0.8,0.4-1.2,0.1c-0.3-0.3-0.4-0.8-0.1-1.2
					C140.9,160.5,141.4,160.5,141.7,160.8"/>
				<polygon id="Fill-165" class="st9" points="246.5,178.9 245.9,178.8 245.9,178.5 246.5,178.5 				"/>
				<path id="Fill-167" class="st9" d="M153.8,176.3l-1.2,0l0-0.4l1.2,0L153.8,176.3z M156.1,176.4l-1.2,0l0-0.4l1.2,0L156.1,176.4z
					 M158.4,176.4l-1.2,0l0-0.4l1.2,0L158.4,176.4z M160.8,176.5l-1.2,0l0-0.4l1.2,0L160.8,176.5z M163.1,176.6l-1.2,0l0-0.4l1.2,0
					L163.1,176.6z M165.4,176.6l-1.2,0l0-0.4l1.2,0L165.4,176.6z M167.8,176.7l-1.2,0l0-0.4l1.2,0L167.8,176.7z M170.1,176.8l-1.2,0
					l0-0.4l1.2,0L170.1,176.8z M172.4,176.8l-1.2,0l0-0.4l1.2,0L172.4,176.8z M174.8,176.9l-1.2,0l0-0.4l1.2,0L174.8,176.9z
					 M177.1,177l-1.2,0l0-0.4l1.2,0L177.1,177z M179.4,177l-1.2,0l0-0.4l1.2,0L179.4,177z M181.8,177.1l-1.2,0l0-0.4l1.2,0
					L181.8,177.1z M184.1,177.1l-1.2,0l0-0.4l1.2,0L184.1,177.1z M186.4,177.2l-1.2,0l0-0.4l1.2,0L186.4,177.2z M188.8,177.3l-1.2,0
					l0-0.4l1.2,0L188.8,177.3z M191.1,177.3l-1.2,0l0-0.4l1.2,0L191.1,177.3z M193.4,177.4l-1.2,0l0-0.4l1.2,0L193.4,177.4z
					 M195.8,177.5l-1.2,0l0-0.4l1.2,0L195.8,177.5z M198.1,177.5l-1.2,0l0-0.4l1.2,0L198.1,177.5z M200.4,177.6l-1.2,0l0-0.4l1.2,0
					L200.4,177.6z M202.8,177.7l-1.2,0l0-0.4l1.2,0L202.8,177.7z M205.1,177.7l-1.2,0l0-0.4l1.2,0L205.1,177.7z M207.4,177.8l-1.2,0
					l0-0.4l1.2,0L207.4,177.8z M209.8,177.8l-1.2,0l0-0.4l1.2,0L209.8,177.8z M212.1,177.9l-1.2,0l0-0.4l1.2,0L212.1,177.9z
					 M214.4,178l-1.2,0l0-0.4l1.2,0L214.4,178z M216.8,178l-1.2,0l0-0.4l1.2,0L216.8,178z M219.1,178.1l-1.2,0l0-0.4l1.2,0
					L219.1,178.1z M221.4,178.2l-1.2,0l0-0.4l1.2,0L221.4,178.2z M223.7,178.2l-1.2,0l0-0.4l1.2,0L223.7,178.2z M226.1,178.3l-1.2,0
					l0-0.4l1.2,0L226.1,178.3z M228.4,178.4l-1.2,0l0-0.4l1.2,0L228.4,178.4z M230.7,178.4l-1.2,0l0-0.4l1.2,0L230.7,178.4z
					 M233.1,178.5l-1.2,0l0-0.4l1.2,0L233.1,178.5z M235.4,178.6l-1.2,0l0-0.4l1.2,0L235.4,178.6z M237.7,178.6l-1.2,0l0-0.4l1.2,0
					L237.7,178.6z M240.1,178.7l-1.2,0l0-0.4l1.2,0L240.1,178.7z M242.4,178.7l-1.2,0l0-0.4l1.2,0L242.4,178.7z M244.7,178.8l-1.2,0
					l0-0.4l1.2,0L244.7,178.8z"/>
				<polygon id="Fill-169" class="st9" points="151.4,176.3 150.9,176.2 150.9,175.9 151.5,175.9 				"/>
				<path id="Fill-171" class="st9" d="M246.5,177.9c0.5,0,0.8,0.4,0.8,0.8c0,0.5-0.4,0.8-0.8,0.8c-0.5,0-0.8-0.4-0.8-0.8
					C245.6,178.2,246,177.8,246.5,177.9"/>
				<polygon id="Fill-173" class="st9" points="84.2,298 83.7,297.7 84,297.4 84.4,297.8 				"/>
				<path id="Fill-175" class="st9" d="M85.9,299.5l-0.9-0.8l0.2-0.3l0.9,0.8L85.9,299.5z M87.6,301.1l-0.9-0.8L87,300l0.9,0.8
					L87.6,301.1z M89.3,302.6l-0.9-0.8l0.2-0.3l0.9,0.8L89.3,302.6z M91,304.1l-0.9-0.8l0.2-0.3l0.9,0.8L91,304.1z M92.8,305.6
					l-0.9-0.8l0.2-0.3l0.9,0.8L92.8,305.6z M94.5,307.1l-0.9-0.8l0.2-0.3l0.9,0.8L94.5,307.1z M96.2,308.6l-0.9-0.8l0.2-0.3l0.9,0.8
					L96.2,308.6z M97.9,310.1l-0.9-0.8l0.2-0.3l0.9,0.8L97.9,310.1z M99.6,311.6l-0.9-0.8l0.2-0.3l0.9,0.8L99.6,311.6z M101.3,313.1
					l-0.9-0.8l0.2-0.3l0.9,0.8L101.3,313.1z M103,314.6l-0.9-0.8l0.2-0.3l0.9,0.8L103,314.6z M104.8,316.2l-0.9-0.8l0.2-0.3l0.9,0.8
					L104.8,316.2z M106.5,317.7l-0.9-0.8l0.2-0.3l0.9,0.8L106.5,317.7z M108.2,319.2l-0.9-0.8l0.2-0.3l0.9,0.8L108.2,319.2z
					 M109.9,320.7l-0.9-0.8l0.2-0.3l0.9,0.8L109.9,320.7z M111.6,322.2l-0.9-0.8l0.2-0.3l0.9,0.8L111.6,322.2z M113.3,323.7
					l-0.9-0.8l0.2-0.3l0.9,0.8L113.3,323.7z M115.5,324.7l-1.1-0.4l0.1-0.3l1.1,0.4L115.5,324.7z M117.6,325.5l-1.1-0.4l0.1-0.3
					l1.1,0.4L117.6,325.5z M119.7,326.4l-1.1-0.4l0.1-0.3l1.1,0.4L119.7,326.4z M121.8,327.2l-1.1-0.4l0.1-0.3l1.1,0.4L121.8,327.2z
					 M123.9,328.1l-1.1-0.4l0.1-0.3l1.1,0.4L123.9,328.1z M126.1,329l-1.1-0.4l0.1-0.3l1.1,0.4L126.1,329z M128.2,329.8l-1.1-0.4
					l0.1-0.3l1.1,0.4L128.2,329.8z M130.3,330.7l-1.1-0.4l0.1-0.3l1.1,0.4L130.3,330.7z M132.4,331.5l-1.1-0.4l0.1-0.3l1.1,0.4
					L132.4,331.5z M134.5,332.4l-1.1-0.4l0.1-0.3l1.1,0.4L134.5,332.4z M136.6,333.3l-1.1-0.4l0.1-0.3l1.1,0.4L136.6,333.3z
					 M138.8,334.1l-1.1-0.4l0.1-0.3l1.1,0.4L138.8,334.1z"/>
				<polygon id="Fill-177" class="st9" points="140.4,334.8 139.8,334.5 140,334.2 140.5,334.4 				"/>
				<path id="Fill-179" class="st9" d="M83.3,298.2c-0.3-0.3-0.4-0.8-0.1-1.2c0.3-0.3,0.8-0.4,1.2-0.1c0.3,0.3,0.4,0.8,0.1,1.2
					C84.2,298.4,83.7,298.5,83.3,298.2"/>
				<polygon id="Fill-181" class="st9" points="160.3,311.1 160.2,310.5 160.6,310.5 160.6,311 				"/>
				<path id="Fill-183" class="st9" d="M147.8,182.5l-0.1-1.2l0.4,0l0.1,1.2L147.8,182.5z M148,184.8l-0.1-1.2l0.4,0l0.1,1.2
					L148,184.8z M148.2,187.1l-0.1-1.2l0.4,0l0.1,1.2L148.2,187.1z M148.4,189.4l-0.1-1.2l0.4,0l0.1,1.2L148.4,189.4z M148.7,191.7
					l-0.1-1.2l0.4,0l0.1,1.2L148.7,191.7z M148.9,194l-0.1-1.2l0.4,0l0.1,1.2L148.9,194z M149.1,196.3l-0.1-1.2l0.4,0l0.1,1.2
					L149.1,196.3z M149.3,198.6l-0.1-1.2l0.4,0l0.1,1.2L149.3,198.6z M149.6,200.9l-0.1-1.2l0.4,0l0.1,1.2L149.6,200.9z
					 M149.8,203.2l-0.1-1.2l0.4,0l0.1,1.2L149.8,203.2z M150,205.5l-0.1-1.2l0.4,0l0.1,1.2L150,205.5z M150.2,207.9l-0.1-1.2l0.4,0
					l0.1,1.2L150.2,207.9z M150.5,210.2l-0.1-1.2l0.4,0l0.1,1.2L150.5,210.2z M150.7,212.5l-0.1-1.2l0.4,0l0.1,1.2L150.7,212.5z
					 M150.9,214.8l-0.1-1.2l0.4,0l0.1,1.2L150.9,214.8z M151.1,217.1l-0.1-1.2l0.4,0l0.1,1.2L151.1,217.1z M151.4,219.4l-0.1-1.2
					l0.4,0l0.1,1.2L151.4,219.4z M151.6,221.7l-0.1-1.2l0.4,0l0.1,1.2L151.6,221.7z M151.8,224l-0.1-1.2l0.4,0l0.1,1.2L151.8,224z
					 M152,226.3l-0.1-1.2l0.4,0l0.1,1.2L152,226.3z M152.3,228.6l-0.1-1.2l0.4,0l0.1,1.2L152.3,228.6z M152.5,230.9l-0.1-1.2l0.4,0
					l0.1,1.2L152.5,230.9z M152.7,233.2l-0.1-1.2l0.4,0l0.1,1.2L152.7,233.2z M152.9,235.5l-0.1-1.2l0.4,0l0.1,1.2L152.9,235.5z
					 M153.2,237.8l-0.1-1.2l0.4,0l0.1,1.2L153.2,237.8z M153.4,240.1l-0.1-1.2l0.4,0l0.1,1.2L153.4,240.1z M153.6,242.4l-0.1-1.2
					l0.4,0l0.1,1.2L153.6,242.4z M153.8,244.8l-0.1-1.2l0.4,0l0.1,1.2L153.8,244.8z M154.1,247.1l-0.1-1.2l0.4,0l0.1,1.2
					L154.1,247.1z M154.3,249.4l-0.1-1.2l0.4,0l0.1,1.2L154.3,249.4z M154.5,251.7l-0.1-1.2l0.4,0l0.1,1.2L154.5,251.7z M154.7,254
					l-0.1-1.2l0.4,0l0.1,1.2L154.7,254z M155,256.3l-0.1-1.2l0.4,0l0.1,1.2L155,256.3z M155.2,258.6l-0.1-1.2l0.4,0l0.1,1.2
					L155.2,258.6z M155.4,260.9l-0.1-1.2l0.4,0l0.1,1.2L155.4,260.9z M155.6,263.2l-0.1-1.2l0.4,0l0.1,1.2L155.6,263.2z
					 M155.9,265.5l-0.1-1.2l0.4,0l0.1,1.2L155.9,265.5z M156.1,267.8l-0.1-1.2l0.4,0l0.1,1.2L156.1,267.8z M156.3,270.1l-0.1-1.2
					l0.4,0l0.1,1.2L156.3,270.1z M156.5,272.4l-0.1-1.2l0.4,0l0.1,1.2L156.5,272.4z M156.7,274.7l-0.1-1.2l0.4,0l0.1,1.2
					L156.7,274.7z M157,277l-0.1-1.2l0.4,0l0.1,1.2L157,277z M157.2,279.4l-0.1-1.2l0.4,0l0.1,1.2L157.2,279.4z M157.4,281.7
					l-0.1-1.2l0.4,0l0.1,1.2L157.4,281.7z M157.6,284l-0.1-1.2l0.4,0l0.1,1.2L157.6,284z M157.9,286.3l-0.1-1.2l0.4,0l0.1,1.2
					L157.9,286.3z M158.1,288.6l-0.1-1.2l0.4,0l0.1,1.2L158.1,288.6z M158.3,290.9l-0.1-1.2l0.4,0l0.1,1.2L158.3,290.9z
					 M158.5,293.2l-0.1-1.2l0.4,0l0.1,1.2L158.5,293.2z M158.8,295.5l-0.1-1.2l0.4,0l0.1,1.2L158.8,295.5z M159,297.8l-0.1-1.2
					l0.4,0l0.1,1.2L159,297.8z M159.2,300.1l-0.1-1.2l0.4,0l0.1,1.2L159.2,300.1z M159.4,302.4l-0.1-1.2l0.4,0l0.1,1.2L159.4,302.4z
					 M159.7,304.7l-0.1-1.2l0.4,0l0.1,1.2L159.7,304.7z M159.9,307l-0.1-1.2l0.4,0l0.1,1.2L159.9,307z M160.1,309.3l-0.1-1.2l0.4,0
					l0.1,1.2L160.1,309.3z"/>
				<polygon id="Fill-185" class="st9" points="147.6,180.2 147.5,179.6 147.9,179.6 147.9,180.1 				"/>
				<path id="Fill-187" class="st9" d="M161.3,310.9c0,0.4-0.3,0.9-0.7,0.9c-0.5,0-0.9-0.3-0.9-0.7c0-0.5,0.3-0.9,0.7-0.9
					C160.8,310.1,161.2,310.5,161.3,310.9"/>
				<polygon id="Fill-189" class="st9" points="36.7,239.7 36.5,239.1 36.9,239 37,239.6 				"/>
				<path id="Fill-191" class="st9" d="M37.3,241.9l-0.3-1.1l0.3-0.1l0.3,1.1L37.3,241.9z M38,244.1l-0.3-1.1l0.3-0.1l0.3,1.1
					L38,244.1z M38.6,246.3l-0.3-1.1l0.3-0.1l0.3,1.1L38.6,246.3z M39.3,248.5l-0.3-1.1l0.3-0.1l0.3,1.1L39.3,248.5z M39.9,250.7
					l-0.3-1.1l0.3-0.1l0.3,1.1L39.9,250.7z M40.6,252.9l-0.3-1.1l0.3-0.1l0.3,1.1L40.6,252.9z M41.2,255.1l-0.3-1.1l0.3-0.1l0.3,1.1
					L41.2,255.1z M41.9,257.3l-0.3-1.1l0.3-0.1l0.3,1.1L41.9,257.3z M42.5,259.5l-0.3-1.1l0.3-0.1l0.3,1.1L42.5,259.5z M43.2,261.7
					l-0.3-1.1l0.3-0.1l0.3,1.1L43.2,261.7z M43.8,263.9l-0.3-1.1l0.3-0.1l0.3,1.1L43.8,263.9z M44.4,266.1l-0.3-1.1l0.3-0.1l0.3,1.1
					L44.4,266.1z M45.1,268.3l-0.3-1.1l0.3-0.1l0.3,1.1L45.1,268.3z M45.7,270.5l-0.3-1.1l0.3-0.1l0.3,1.1L45.7,270.5z M46.4,272.7
					l-0.3-1.1l0.3-0.1l0.3,1.1L46.4,272.7z M47,275l-0.3-1.1l0.3-0.1l0.3,1.1L47,275z M47.7,277.2l-0.3-1.1l0.3-0.1l0.3,1.1
					L47.7,277.2z M48.3,279.4l-0.3-1.1l0.3-0.1l0.3,1.1L48.3,279.4z M49,281.6l-0.3-1.1l0.3-0.1l0.3,1.1L49,281.6z M49.6,283.8
					l-0.3-1.1l0.3-0.1l0.3,1.1L49.6,283.8z M50.3,286l-0.3-1.1l0.3-0.1l0.3,1.1L50.3,286z M50.9,288.2l-0.3-1.1l0.3-0.1l0.3,1.1
					L50.9,288.2z M51.6,290.4l-0.3-1.1l0.3-0.1l0.3,1.1L51.6,290.4z M52.2,292.6l-0.3-1.1l0.3-0.1l0.3,1.1L52.2,292.6z M52.9,294.8
					l-0.3-1.1l0.3-0.1l0.3,1.1L52.9,294.8z M53.5,297l-0.3-1.1l0.3-0.1l0.3,1.1L53.5,297z M54.2,299.2l-0.3-1.1l0.3-0.1l0.3,1.1
					L54.2,299.2z M54.8,301.4l-0.3-1.1l0.3-0.1l0.3,1.1L54.8,301.4z M55.5,303.6l-0.3-1.1l0.3-0.1l0.3,1.1L55.5,303.6z M56.1,305.8
					l-0.3-1.1l0.3-0.1l0.3,1.1L56.1,305.8z M56.7,308l-0.3-1.1l0.3-0.1l0.3,1.1L56.7,308z M57.4,310.2l-0.3-1.1l0.3-0.1l0.3,1.1
					L57.4,310.2z"/>
				<polygon id="Fill-193" class="st9" points="57.9,311.9 57.7,311.3 58.1,311.2 58.2,311.8 				"/>
				<path id="Fill-195" class="st9" d="M35.9,239.4c-0.1-0.4,0.1-0.9,0.6-1c0.4-0.1,0.9,0.1,1,0.6s-0.1,0.9-0.6,1
					C36.5,240,36,239.8,35.9,239.4"/>
				<polygon id="Fill-197" class="st9" points="119.6,183.6 119.6,183.2 120.2,183.2 120.2,183.6 				"/>
				<path id="Fill-199" class="st9" d="M117.3,183.8l0-0.4l1.2-0.1l0,0.4L117.3,183.8z M115,183.9l0-0.4l1.2-0.1l0,0.4L115,183.9z
					 M112.7,184.1l0-0.4l1.2-0.1l0,0.4L112.7,184.1z M110.4,184.3l0-0.4l1.2-0.1l0,0.4L110.4,184.3z M108.1,184.4l0-0.4l1.2-0.1
					l0,0.4L108.1,184.4z M105.7,184.6l0-0.4l1.2-0.1l0,0.4L105.7,184.6z M103.4,184.7l0-0.4l1.2-0.1l0,0.4L103.4,184.7z
					 M101.1,184.9l0-0.4l1.2-0.1l0,0.4L101.1,184.9z M98.8,185.1l0-0.4l1.2-0.1l0,0.4L98.8,185.1z M96.5,185.2l0-0.4l1.2-0.1l0,0.4
					L96.5,185.2z M94.2,185.4l0-0.4l1.2-0.1l0,0.4L94.2,185.4z M91.9,185.6l0-0.4l1.2-0.1l0,0.4L91.9,185.6z M89.6,185.7l0-0.4
					l1.2-0.1l0,0.4L89.6,185.7z M87.3,185.9l0-0.4l1.2-0.1l0,0.4L87.3,185.9z M85,186l0-0.4l1.2-0.1l0,0.4L85,186z M82.6,186.2
					l0-0.4l1.2-0.1l0,0.4L82.6,186.2z M80.3,186.4l0-0.4l1.2-0.1l0,0.4L80.3,186.4z M78,186.5l0-0.4l1.2-0.1l0,0.4L78,186.5z
					 M75.7,186.7l0-0.4l1.2-0.1l0,0.4L75.7,186.7z M73.4,186.9l0-0.4l1.2-0.1l0,0.4L73.4,186.9z M71.1,187l0-0.4l1.2-0.1l0,0.4
					L71.1,187z M68.8,187.2l0-0.4l1.2-0.1l0,0.4L68.8,187.2z M66.5,187.3l0-0.4l1.2-0.1l0,0.4L66.5,187.3z M64.2,187.5l0-0.4
					l1.2-0.1l0,0.4L64.2,187.5z M61.9,187.7l0-0.4l1.2-0.1l0,0.4L61.9,187.7z M59.6,187.8l0-0.4l1.2-0.1l0,0.4L59.6,187.8z
					 M57.2,188l0-0.4l1.2-0.1l0,0.4L57.2,188z M54.9,188.2l0-0.4l1.2-0.1l0,0.4L54.9,188.2z M52.6,188.3l0-0.4l1.2-0.1l0,0.4
					L52.6,188.3z M50.3,188.5l0-0.4l1.2-0.1l0,0.4L50.3,188.5z M48,188.6l0-0.4l1.2-0.1l0,0.4L48,188.6z M45.7,188.8l0-0.4l1.2-0.1
					l0,0.4L45.7,188.8z M43.4,189l0-0.4l1.2-0.1l0,0.4L43.4,189z M41.1,189.1l0-0.4l1.2-0.1l0,0.4L41.1,189.1z M38.8,189.3l0-0.4
					l1.2-0.1l0,0.4L38.8,189.3z M36.5,189.5l0-0.4l1.2-0.1l0,0.4L36.5,189.5z M34.1,189.6l0-0.4l1.2-0.1l0,0.4L34.1,189.6z"/>
				<polygon id="Fill-201" class="st9" points="32.4,189.7 32.4,189.4 33,189.3 33,189.7 				"/>
				<path id="Fill-203" class="st9" d="M120.1,182.6c0.5,0,0.8,0.3,0.9,0.8c0,0.5-0.3,0.8-0.8,0.9c-0.5,0-0.8-0.3-0.9-0.8
					C119.3,183,119.6,182.6,120.1,182.6"/>
				<polygon id="Fill-205" class="st9" points="182,210.5 181.6,210 181.8,209.8 182.2,210.2 				"/>
				<path id="Fill-207" class="st9" d="M183.5,212.2l-0.8-0.9l0.3-0.2l0.8,0.9L183.5,212.2z M185.1,213.9l-0.8-0.9l0.3-0.2l0.8,0.9
					L185.1,213.9z M186.6,215.7l-0.8-0.9l0.3-0.2l0.8,0.9L186.6,215.7z M188.2,217.4l-0.8-0.9l0.3-0.2l0.8,0.9L188.2,217.4z
					 M189.7,219.1l-0.8-0.9l0.3-0.2l0.8,0.9L189.7,219.1z M191.3,220.9l-0.8-0.9l0.3-0.2l0.8,0.9L191.3,220.9z M192.8,222.6
					l-0.8-0.9l0.3-0.2l0.8,0.9L192.8,222.6z M194.4,224.3l-0.8-0.9l0.3-0.2l0.8,0.9L194.4,224.3z M195.9,226l-0.8-0.9l0.3-0.2
					l0.8,0.9L195.9,226z M197.5,227.8l-0.8-0.9l0.3-0.2l0.8,0.9L197.5,227.8z M199,229.5l-0.8-0.9l0.3-0.2l0.8,0.9L199,229.5z
					 M200.6,231.2l-0.8-0.9l0.3-0.2l0.8,0.9L200.6,231.2z M202.1,233l-0.8-0.9l0.3-0.2l0.8,0.9L202.1,233z M203.7,234.7l-0.8-0.9
					l0.3-0.2l0.8,0.9L203.7,234.7z M205.2,236.4l-0.8-0.9l0.3-0.2l0.8,0.9L205.2,236.4z M206.8,238.2l-0.8-0.9l0.3-0.2l0.8,0.9
					L206.8,238.2z M208.3,239.9l-0.8-0.9l0.3-0.2l0.8,0.9L208.3,239.9z M209.9,241.6l-0.8-0.9l0.3-0.2l0.8,0.9L209.9,241.6z
					 M211.4,243.3l-0.8-0.9l0.3-0.2l0.8,0.9L211.4,243.3z M213,245.1l-0.8-0.9l0.3-0.2l0.8,0.9L213,245.1z M214.5,246.8l-0.8-0.9
					l0.3-0.2l0.8,0.9L214.5,246.8z M216.1,248.5l-0.8-0.9l0.3-0.2l0.8,0.9L216.1,248.5z M217.6,250.3l-0.8-0.9l0.3-0.2l0.8,0.9
					L217.6,250.3z M219,252.1l-0.7-0.9l0.3-0.2l0.7,0.9L219,252.1z M220.4,254l-0.7-0.9l0.3-0.2l0.7,0.9L220.4,254z M221.8,255.8
					l-0.7-0.9l0.3-0.2l0.7,0.9L221.8,255.8z M223.2,257.7l-0.7-0.9l0.3-0.2l0.7,0.9L223.2,257.7z M224.5,259.6l-0.7-0.9l0.3-0.2
					l0.7,0.9L224.5,259.6z M225.9,261.4l-0.7-0.9l0.3-0.2l0.7,0.9L225.9,261.4z M227.3,263.3l-0.7-0.9l0.3-0.2l0.7,0.9L227.3,263.3z
					 M228.7,265.2l-0.7-0.9l0.3-0.2l0.7,0.9L228.7,265.2z M230.1,267l-0.7-0.9l0.3-0.2l0.7,0.9L230.1,267z M231.4,268.9l-0.7-0.9
					l0.3-0.2l0.7,0.9L231.4,268.9z M232.8,270.8l-0.7-0.9l0.3-0.2l0.7,0.9L232.8,270.8z M234.2,272.6l-0.7-0.9l0.3-0.2l0.7,0.9
					L234.2,272.6z M235.6,274.5l-0.7-0.9l0.3-0.2l0.7,0.9L235.6,274.5z M237,276.4l-0.7-0.9l0.3-0.2l0.7,0.9L237,276.4z
					 M238.4,278.2l-0.7-0.9l0.3-0.2l0.7,0.9L238.4,278.2z M239.7,280.1l-0.7-0.9l0.3-0.2l0.7,0.9L239.7,280.1z M241.1,282l-0.7-0.9
					l0.3-0.2l0.7,0.9L241.1,282z M242.5,283.8l-0.7-0.9l0.3-0.2l0.7,0.9L242.5,283.8z M243.9,285.7l-0.7-0.9l0.3-0.2l0.7,0.9
					L243.9,285.7z M245.3,287.6l-0.7-0.9l0.3-0.2l0.7,0.9L245.3,287.6z M246.6,289.5l-0.7-0.9l0.3-0.2l0.7,0.9L246.6,289.5z
					 M248,291.3l-0.7-0.9l0.3-0.2l0.7,0.9L248,291.3z M249.4,293.2l-0.7-0.9l0.3-0.2l0.7,0.9L249.4,293.2z M250.8,295.1l-0.7-0.9
					l0.3-0.2l0.7,0.9L250.8,295.1z M252.2,296.9l-0.7-0.9l0.3-0.2l0.7,0.9L252.2,296.9z M253.5,298.8l-0.7-0.9l0.3-0.2l0.7,0.9
					L253.5,298.8z M254.9,300.7l-0.7-0.9l0.3-0.2l0.7,0.9L254.9,300.7z M256.3,302.5l-0.7-0.9l0.3-0.2l0.7,0.9L256.3,302.5z
					 M257.7,304.4l-0.7-0.9l0.3-0.2l0.7,0.9L257.7,304.4z M259.1,306.3l-0.7-0.9l0.3-0.2l0.7,0.9L259.1,306.3z M260.5,308.1
					l-0.7-0.9l0.3-0.2l0.7,0.9L260.5,308.1z M261.8,310l-0.7-0.9l0.3-0.2l0.7,0.9L261.8,310z M263.2,311.9l-0.7-0.9l0.3-0.2l0.7,0.9
					L263.2,311.9z M264.6,313.7l-0.7-0.9l0.3-0.2l0.7,0.9L264.6,313.7z M266,315.6l-0.7-0.9l0.3-0.2l0.7,0.9L266,315.6z
					 M267.4,317.5l-0.7-0.9l0.3-0.2l0.7,0.9L267.4,317.5z M268.7,319.3l-0.7-0.9l0.3-0.2l0.7,0.9L268.7,319.3z M270.1,321.2
					l-0.7-0.9l0.3-0.2l0.7,0.9L270.1,321.2z M271.5,323.1l-0.7-0.9l0.3-0.2l0.7,0.9L271.5,323.1z M272.9,324.9l-0.7-0.9l0.3-0.2
					l0.7,0.9L272.9,324.9z M274.3,326.8l-0.7-0.9l0.3-0.2l0.7,0.9L274.3,326.8z M275.6,328.7l-0.7-0.9l0.3-0.2l0.7,0.9L275.6,328.7z
					 M277,330.5l-0.7-0.9l0.3-0.2l0.7,0.9L277,330.5z M278.4,332.4l-0.7-0.9l0.3-0.2l0.7,0.9L278.4,332.4z"/>
				<polygon id="Fill-209" class="st9" points="279.4,333.8 279.1,333.3 279.4,333.1 279.7,333.6 				"/>
				<path id="Fill-211" class="st9" d="M181.1,210.5c-0.3-0.3-0.3-0.9,0.1-1.2c0.3-0.3,0.9-0.3,1.2,0.1c0.3,0.3,0.3,0.9-0.1,1.2
					C181.9,210.9,181.4,210.8,181.1,210.5"/>
				<polygon id="Fill-213" class="st9" points="70.2,214.2 70,213.7 70.3,213.5 70.5,214.1 				"/>
				<path id="Fill-215" class="st9" d="M71.1,216.3l-0.4-1.1l0.3-0.1l0.4,1.1L71.1,216.3z M71.9,218.4l-0.4-1.1l0.3-0.1l0.4,1.1
					L71.9,218.4z M72.8,220.5l-0.4-1.1l0.3-0.1l0.4,1.1L72.8,220.5z M73.7,222.6l-0.4-1.1l0.3-0.1l0.4,1.1L73.7,222.6z M74.6,224.8
					l-0.4-1.1l0.3-0.1l0.4,1.1L74.6,224.8z M75.5,226.9l-0.4-1.1l0.3-0.1l0.4,1.1L75.5,226.9z M76.4,229l-0.4-1.1l0.3-0.1l0.4,1.1
					L76.4,229z M77.2,231.1l-0.4-1.1l0.3-0.1l0.4,1.1L77.2,231.1z M78.1,233.2l-0.4-1.1L78,232l0.4,1.1L78.1,233.2z M79,235.3
					l-0.4-1.1l0.3-0.1l0.4,1.1L79,235.3z M79.9,237.4l-0.4-1.1l0.3-0.1l0.4,1.1L79.9,237.4z M80.8,239.6l-0.4-1.1l0.3-0.1l0.4,1.1
					L80.8,239.6z M81.7,241.7l-0.4-1.1l0.3-0.1l0.4,1.1L81.7,241.7z M82.5,243.8l-0.4-1.1l0.3-0.1l0.4,1.1L82.5,243.8z M83.4,245.9
					l-0.4-1.1l0.3-0.1l0.4,1.1L83.4,245.9z M84.3,248l-0.4-1.1l0.3-0.1l0.4,1.1L84.3,248z M85.2,250.1l-0.4-1.1l0.3-0.1l0.4,1.1
					L85.2,250.1z M86.1,252.2l-0.4-1.1l0.3-0.1l0.4,1.1L86.1,252.2z M87.4,254.2l-0.7-0.9L87,253l0.7,0.9L87.4,254.2z M88.8,256
					l-0.7-0.9l0.3-0.2l0.7,0.9L88.8,256z M90.1,257.9l-0.7-0.9l0.3-0.2l0.7,0.9L90.1,257.9z M91.4,259.7l-0.7-0.9l0.3-0.2l0.7,0.9
					L91.4,259.7z M92.8,261.6l-0.7-0.9l0.3-0.2l0.7,0.9L92.8,261.6z M94.1,263.4l-0.7-0.9l0.3-0.2l0.7,0.9L94.1,263.4z M95.5,265.3
					l-0.7-0.9l0.3-0.2l0.7,0.9L95.5,265.3z M96.8,267.2l-0.7-0.9l0.3-0.2l0.7,0.9L96.8,267.2z M98.1,269l-0.7-0.9l0.3-0.2l0.7,0.9
					L98.1,269z M99.5,270.9l-0.7-0.9l0.3-0.2l0.7,0.9L99.5,270.9z M100.8,272.7l-0.7-0.9l0.3-0.2l0.7,0.9L100.8,272.7z M102.2,274.6
					l-0.7-0.9l0.3-0.2l0.7,0.9L102.2,274.6z M103.5,276.5l-0.7-0.9l0.3-0.2l0.7,0.9L103.5,276.5z M104.9,278.3l-0.7-0.9l0.3-0.2
					l0.7,0.9L104.9,278.3z"/>
				<polygon id="Fill-217" class="st9" points="105.9,279.7 105.5,279.2 105.8,279 106.2,279.5 				"/>
				<path id="Fill-219" class="st9" d="M69.4,213.9c-0.2-0.4,0-0.9,0.4-1.1c0.4-0.2,0.9,0,1.1,0.4c0.2,0.4,0,0.9-0.4,1.1
					C70,214.6,69.6,214.4,69.4,213.9"/>
				<polygon id="Fill-221" class="st9" points="90.2,358.3 89.7,358 89.9,357.7 90.4,358 				"/>
				<path id="Fill-223" class="st9" d="M92.1,359.6l-1-0.6l0.2-0.3l1,0.6L92.1,359.6z M94.1,360.8l-1-0.6l0.2-0.3l1,0.6L94.1,360.8z
					 M96,362.1l-1-0.6l0.2-0.3l1,0.6L96,362.1z M98,363.3l-1-0.6l0.2-0.3l1,0.6L98,363.3z M99.9,364.6l-1-0.6l0.2-0.3l1,0.6
					L99.9,364.6z M101.9,365.9l-1-0.6l0.2-0.3l1,0.6L101.9,365.9z M103.8,367.1l-1-0.6l0.2-0.3l1,0.6L103.8,367.1z M105.8,368.4
					l-1-0.6l0.2-0.3l1,0.6L105.8,368.4z M107.7,369.6l-1-0.6l0.2-0.3l1,0.6L107.7,369.6z M109.7,370.9l-1-0.6l0.2-0.3l1,0.6
					L109.7,370.9z M111.6,372.1l-1-0.6l0.2-0.3l1,0.6L111.6,372.1z M113.6,373.4l-1-0.6l0.2-0.3l1,0.6L113.6,373.4z M115.5,374.7
					l-1-0.6l0.2-0.3l1,0.6L115.5,374.7z M117.5,375.9l-1-0.6l0.2-0.3l1,0.6L117.5,375.9z M119.4,377.2l-1-0.6l0.2-0.3l1,0.6
					L119.4,377.2z M121.3,378.4l-1-0.6l0.2-0.3l1,0.6L121.3,378.4z M123.3,379.7l-1-0.6l0.2-0.3l1,0.6L123.3,379.7z M125.2,381
					l-1-0.6l0.2-0.3l1,0.6L125.2,381z M127.2,382.2l-1-0.6l0.2-0.3l1,0.6L127.2,382.2z M129.1,383.5l-1-0.6l0.2-0.3l1,0.6
					L129.1,383.5z M131.1,384.7l-1-0.6l0.2-0.3l1,0.6L131.1,384.7z M133,386l-1-0.6l0.2-0.3l1,0.6L133,386z M135,387.3l-1-0.6
					l0.2-0.3l1,0.6L135,387.3z M136.9,388.5l-1-0.6l0.2-0.3l1,0.6L136.9,388.5z M138.9,389.8l-1-0.6l0.2-0.3l1,0.6L138.9,389.8z"/>
				<polygon id="Fill-225" class="st9" points="140.4,391.2 140.3,390.7 139.8,390.4 140,390.1 140.6,390.5 140.7,391.1 				"/>
				<path id="Fill-227" class="st9" d="M140.8,393.4l-0.2-1.1l0.4-0.1l0.2,1.1L140.8,393.4z M141.2,395.7l-0.2-1.1l0.4-0.1l0.2,1.1
					L141.2,395.7z M141.6,397.9l-0.2-1.1l0.4-0.1l0.2,1.1L141.6,397.9z M142,400.2l-0.2-1.1l0.4-0.1l0.2,1.1L142,400.2z
					 M142.4,402.4l-0.2-1.1l0.4-0.1l0.2,1.1L142.4,402.4z M142.8,404.7l-0.2-1.1l0.4-0.1l0.2,1.1L142.8,404.7z M143.3,406.9
					l-0.2-1.1l0.4-0.1l0.2,1.1L143.3,406.9z M143.7,409.2l-0.2-1.1l0.4-0.1l0.2,1.1L143.7,409.2z M144.1,411.4l-0.2-1.1l0.4-0.1
					l0.2,1.1L144.1,411.4z M144.5,413.6l-0.2-1.1l0.4-0.1l0.2,1.1L144.5,413.6z M144.9,415.9l-0.2-1.1l0.4-0.1l0.2,1.1L144.9,415.9z
					 M145.3,418.1l-0.2-1.1l0.4-0.1l0.2,1.1L145.3,418.1z M145.7,420.4l-0.2-1.1l0.4-0.1l0.2,1.1L145.7,420.4z M146.2,422.6
					l-0.2-1.1l0.4-0.1l0.2,1.1L146.2,422.6z M146.6,424.9l-0.2-1.1l0.4-0.1l0.2,1.1L146.6,424.9z M147,427.1l-0.2-1.1l0.4-0.1
					l0.2,1.1L147,427.1z M147.4,429.4l-0.2-1.1l0.4-0.1l0.2,1.1L147.4,429.4z M147.8,431.6l-0.2-1.1l0.4-0.1l0.2,1.1L147.8,431.6z
					 M148.2,433.9l-0.2-1.1l0.4-0.1l0.2,1.1L148.2,433.9z M148.6,436.1l-0.2-1.1l0.4-0.1l0.2,1.1L148.6,436.1z M149.1,438.4
					l-0.2-1.1l0.4-0.1l0.2,1.1L149.1,438.4z M149.5,440.6l-0.2-1.1l0.4-0.1l0.2,1.1L149.5,440.6z M149.9,442.9l-0.2-1.1l0.4-0.1
					l0.2,1.1L149.9,442.9z M150.3,445.1l-0.2-1.1l0.4-0.1l0.2,1.1L150.3,445.1z M150.7,447.3l-0.2-1.1l0.4-0.1l0.2,1.1L150.7,447.3z
					 M151.1,449.6l-0.2-1.1l0.4-0.1l0.2,1.1L151.1,449.6z"/>
				<polygon id="Fill-229" class="st9" points="151.4,451.3 151.3,450.7 151.7,450.7 151.8,451.2 				"/>
				<path id="Fill-231" class="st9" d="M89.4,358.5c-0.4-0.2-0.5-0.8-0.2-1.1c0.2-0.4,0.8-0.5,1.1-0.2c0.4,0.2,0.5,0.8,0.2,1.1
					C90.3,358.7,89.8,358.8,89.4,358.5"/>
				<polygon id="Fill-233" class="st9" points="297.8,241.7 297.5,241.1 297.8,241 298.1,241.5 				"/>
				<path id="Fill-235" class="st9" d="M270.9,193.5l-0.6-1l0.3-0.2l0.6,1L270.9,193.5z M272,195.5l-0.6-1l0.3-0.2l0.6,1L272,195.5z
					 M273.1,197.5l-0.6-1l0.3-0.2l0.6,1L273.1,197.5z M274.3,199.6l-0.6-1l0.3-0.2l0.6,1L274.3,199.6z M275.4,201.6l-0.6-1l0.3-0.2
					l0.6,1L275.4,201.6z M276.5,203.6l-0.6-1l0.3-0.2l0.6,1L276.5,203.6z M277.7,205.6l-0.6-1l0.3-0.2l0.6,1L277.7,205.6z
					 M278.8,207.7l-0.6-1l0.3-0.2l0.6,1L278.8,207.7z M279.9,209.7l-0.6-1l0.3-0.2l0.6,1L279.9,209.7z M281.1,211.7l-0.6-1l0.3-0.2
					l0.6,1L281.1,211.7z M282.2,213.8l-0.6-1l0.3-0.2l0.6,1L282.2,213.8z M283.3,215.8l-0.6-1l0.3-0.2l0.6,1L283.3,215.8z
					 M284.5,217.8l-0.6-1l0.3-0.2l0.6,1L284.5,217.8z M285.6,219.8l-0.6-1l0.3-0.2l0.6,1L285.6,219.8z M286.7,221.9l-0.6-1l0.3-0.2
					l0.6,1L286.7,221.9z M287.9,223.9l-0.6-1l0.3-0.2l0.6,1L287.9,223.9z M289,225.9l-0.6-1l0.3-0.2l0.6,1L289,225.9z M290.1,228
					l-0.6-1l0.3-0.2l0.6,1L290.1,228z M291.3,230l-0.6-1l0.3-0.2l0.6,1L291.3,230z M292.4,232l-0.6-1l0.3-0.2l0.6,1L292.4,232z
					 M293.5,234l-0.6-1l0.3-0.2l0.6,1L293.5,234z M294.7,236.1l-0.6-1l0.3-0.2l0.6,1L294.7,236.1z M295.8,238.1l-0.6-1l0.3-0.2
					l0.6,1L295.8,238.1z M296.9,240.1l-0.6-1l0.3-0.2l0.6,1L296.9,240.1z"/>
				<polygon id="Fill-237" class="st9" points="269.7,191.4 269.5,190.9 269.8,190.8 270.1,191.3 				"/>
				<path id="Fill-239" class="st9" d="M298.6,241.1c0.2,0.4,0.1,0.9-0.3,1.1c-0.4,0.2-0.9,0.1-1.1-0.3c-0.2-0.4-0.1-0.9,0.3-1.1
					C297.9,240.6,298.4,240.7,298.6,241.1"/>
				<polygon id="Fill-241" class="st9" points="285.7,314.2 285.6,313.6 285.9,313.5 286.1,314.1 				"/>
				<path id="Fill-243" class="st9" d="M267.8,232.3l-0.3-1.1l0.4-0.1l0.3,1.1L267.8,232.3z M268.3,234.5l-0.3-1.1l0.4-0.1l0.3,1.1
					L268.3,234.5z M268.8,236.8l-0.3-1.1l0.4-0.1l0.3,1.1L268.8,236.8z M269.3,239.1L269,238l0.4-0.1l0.3,1.1L269.3,239.1z
					 M269.8,241.4l-0.3-1.1l0.4-0.1l0.3,1.1L269.8,241.4z M270.3,243.7l-0.3-1.1l0.4-0.1l0.3,1.1L270.3,243.7z M270.8,246l-0.3-1.1
					l0.4-0.1l0.3,1.1L270.8,246z M271.3,248.3l-0.3-1.1l0.4-0.1l0.3,1.1L271.3,248.3z M271.8,250.6l-0.3-1.1l0.4-0.1l0.3,1.1
					L271.8,250.6z M272.3,252.9l-0.3-1.1l0.4-0.1l0.3,1.1L272.3,252.9z M272.8,255.2l-0.3-1.1l0.4-0.1l0.3,1.1L272.8,255.2z
					 M273.3,257.5l-0.3-1.1l0.4-0.1l0.3,1.1L273.3,257.5z M273.8,259.7l-0.3-1.1l0.4-0.1l0.3,1.1L273.8,259.7z M274.3,262l-0.3-1.1
					l0.4-0.1l0.3,1.1L274.3,262z M274.8,264.3l-0.3-1.1l0.4-0.1l0.3,1.1L274.8,264.3z M275.3,266.6l-0.3-1.1l0.4-0.1l0.3,1.1
					L275.3,266.6z M275.8,268.9l-0.3-1.1l0.4-0.1l0.3,1.1L275.8,268.9z M276.3,271.2l-0.3-1.1l0.4-0.1l0.3,1.1L276.3,271.2z
					 M276.8,273.5l-0.3-1.1l0.4-0.1l0.3,1.1L276.8,273.5z M277.3,275.8l-0.3-1.1l0.4-0.1l0.3,1.1L277.3,275.8z M277.8,278.1
					l-0.3-1.1l0.4-0.1l0.3,1.1L277.8,278.1z M278.3,280.4l-0.3-1.1l0.4-0.1l0.3,1.1L278.3,280.4z M278.8,282.7l-0.3-1.1l0.4-0.1
					l0.3,1.1L278.8,282.7z M279.3,284.9l-0.3-1.1l0.4-0.1l0.3,1.1L279.3,284.9z M279.8,287.2l-0.3-1.1l0.4-0.1l0.3,1.1L279.8,287.2z
					 M280.3,289.5l-0.3-1.1l0.4-0.1l0.3,1.1L280.3,289.5z M280.8,291.8l-0.3-1.1l0.4-0.1l0.3,1.1L280.8,291.8z M281.3,294.1
					l-0.3-1.1l0.4-0.1l0.3,1.1L281.3,294.1z M281.8,296.4l-0.3-1.1l0.4-0.1l0.3,1.1L281.8,296.4z M282.3,298.7l-0.3-1.1l0.4-0.1
					l0.3,1.1L282.3,298.7z M282.8,301l-0.3-1.1l0.4-0.1l0.3,1.1L282.8,301z M283.3,303.3l-0.3-1.1l0.4-0.1l0.3,1.1L283.3,303.3z
					 M283.8,305.6l-0.3-1.1l0.4-0.1l0.3,1.1L283.8,305.6z M284.3,307.9l-0.3-1.1l0.4-0.1l0.3,1.1L284.3,307.9z M284.8,310.1
					l-0.3-1.1l0.4-0.1l0.3,1.1L284.8,310.1z M285.3,312.4l-0.3-1.1l0.4-0.1l0.3,1.1L285.3,312.4z"/>
				<polygon id="Fill-245" class="st9" points="267.3,230 267.1,229.4 267.5,229.3 267.6,229.9 				"/>
				<path id="Fill-247" class="st9" d="M286.7,313.9c0.1,0.4-0.2,0.9-0.6,1c-0.4,0.1-0.9-0.2-1-0.6c-0.1-0.4,0.2-0.9,0.6-1
					C286.1,313.2,286.6,313.5,286.7,313.9"/>
				<polygon id="Fill-249" class="st9" points="179.8,479.1 179.4,479.1 179.4,478.5 179.8,478.5 				"/>
				<path id="Fill-251" class="st9" d="M181.6,348l-0.4,0l0-1.2l0.4,0L181.6,348z M181.5,350.3l-0.4,0l0-1.2l0.4,0L181.5,350.3z
					 M181.5,352.6l-0.4,0l0-1.2l0.4,0L181.5,352.6z M181.5,354.9l-0.4,0l0-1.2l0.4,0L181.5,354.9z M181.5,357.2l-0.4,0l0-1.2l0.4,0
					L181.5,357.2z M181.4,359.5l-0.4,0l0-1.2l0.4,0L181.4,359.5z M181.4,361.8l-0.4,0l0-1.2l0.4,0L181.4,361.8z M181.4,364.1l-0.4,0
					l0-1.2l0.4,0L181.4,364.1z M181.3,366.4l-0.4,0l0-1.2l0.4,0L181.3,366.4z M181.3,368.8l-0.4,0l0-1.2l0.4,0L181.3,368.8z
					 M181.3,371.1l-0.4,0l0-1.2l0.4,0L181.3,371.1z M181.2,373.4l-0.4,0l0-1.2l0.4,0L181.2,373.4z M181.2,375.7l-0.4,0l0-1.2l0.4,0
					L181.2,375.7z M181.2,378l-0.4,0l0-1.2l0.4,0L181.2,378z M181.1,380.3l-0.4,0l0-1.2l0.4,0L181.1,380.3z M181.1,382.6l-0.4,0
					l0-1.2l0.4,0L181.1,382.6z M181.1,384.9l-0.4,0l0-1.2l0.4,0L181.1,384.9z M181,387.2l-0.4,0l0-1.2l0.4,0L181,387.2z M181,389.6
					l-0.4,0l0-1.2l0.4,0L181,389.6z M181,391.9l-0.4,0l0-1.2l0.4,0L181,391.9z M180.9,394.2l-0.4,0l0-1.2l0.4,0L180.9,394.2z
					 M180.9,396.5l-0.4,0l0-1.2l0.4,0L180.9,396.5z M180.9,398.8l-0.4,0l0-1.2l0.4,0L180.9,398.8z M180.9,401.1l-0.4,0l0-1.2l0.4,0
					L180.9,401.1z M180.8,403.4l-0.4,0l0-1.2l0.4,0L180.8,403.4z M180.8,405.7l-0.4,0l0-1.2l0.4,0L180.8,405.7z M180.8,408l-0.4,0
					l0-1.2l0.4,0L180.8,408z M180.7,410.3l-0.4,0l0-1.2l0.4,0L180.7,410.3z M180.7,412.7l-0.4,0l0-1.2l0.4,0L180.7,412.7z
					 M180.7,415l-0.4,0l0-1.2l0.4,0L180.7,415z M180.6,417.3l-0.4,0l0-1.2l0.4,0L180.6,417.3z M180.6,419.6l-0.4,0l0-1.2l0.4,0
					L180.6,419.6z M180.6,421.9l-0.4,0l0-1.2l0.4,0L180.6,421.9z M180.5,424.2l-0.4,0l0-1.2l0.4,0L180.5,424.2z M180.5,426.5l-0.4,0
					l0-1.2l0.4,0L180.5,426.5z M180.5,428.8l-0.4,0l0-1.2l0.4,0L180.5,428.8z M180.4,431.1l-0.4,0l0-1.2l0.4,0L180.4,431.1z
					 M180.4,433.5l-0.4,0l0-1.2l0.4,0L180.4,433.5z M180.4,435.8l-0.4,0l0-1.2l0.4,0L180.4,435.8z M180.4,438.1l-0.4,0l0-1.2l0.4,0
					L180.4,438.1z M180.3,440.4l-0.4,0l0-1.2l0.4,0L180.3,440.4z M180.3,442.7l-0.4,0l0-1.2l0.4,0L180.3,442.7z M180.3,445l-0.4,0
					l0-1.2l0.4,0L180.3,445z M180.2,447.3l-0.4,0l0-1.2l0.4,0L180.2,447.3z M180.2,449.6l-0.4,0l0-1.2l0.4,0L180.2,449.6z
					 M180.2,451.9l-0.4,0l0-1.2l0.4,0L180.2,451.9z M180.1,454.2l-0.4,0l0-1.2l0.4,0L180.1,454.2z M180.1,456.6l-0.4,0l0-1.2l0.4,0
					L180.1,456.6z M180.1,458.9l-0.4,0l0-1.2l0.4,0L180.1,458.9z M180,461.2l-0.4,0l0-1.2l0.4,0L180,461.2z M180,463.5l-0.4,0l0-1.2
					l0.4,0L180,463.5z M180,465.8l-0.4,0l0-1.2l0.4,0L180,465.8z M179.9,468.1l-0.4,0l0-1.2l0.4,0L179.9,468.1z M179.9,470.4l-0.4,0
					l0-1.2l0.4,0L179.9,470.4z M179.9,472.7l-0.4,0l0-1.2l0.4,0L179.9,472.7z M179.9,475l-0.4,0l0-1.2l0.4,0L179.9,475z
					 M179.8,477.3l-0.4,0l0-1.2l0.4,0L179.8,477.3z"/>
				<polygon id="Fill-253" class="st9" points="181.6,345.7 181.2,345.6 181.3,345.1 181.6,345.1 				"/>
				<path id="Fill-255" class="st9" d="M180.4,479.1c0,0.5-0.4,0.8-0.8,0.8c-0.5,0-0.8-0.4-0.8-0.8c0-0.5,0.4-0.8,0.8-0.8
					C180.1,478.2,180.4,478.6,180.4,479.1"/>
				<polygon id="Fill-257" class="st9" points="186.1,308.4 186.1,307.8 186.5,307.8 186.5,308.4 				"/>
				<path id="Fill-259" class="st9" d="M173.1,225.4l-0.6-1l0.3-0.2l0.6,1L173.1,225.4z M174.2,227.4l-0.6-1l0.3-0.2l0.6,1
					L174.2,227.4z M175.4,229.4l-0.6-1l0.3-0.2l0.6,1L175.4,229.4z M176.6,231.4l-0.6-1l0.3-0.2l0.6,1L176.6,231.4z M177.8,233.4
					l-0.6-1l0.3-0.2l0.6,1L177.8,233.4z M179,235.4l-0.6-1l0.3-0.2l0.6,1L179,235.4z M180.1,237.4l-0.6-1l0.3-0.2l0.6,1L180.1,237.4
					z M181.3,239.4l-0.6-1l0.3-0.2l0.6,1L181.3,239.4z M181.9,241.6l-0.1-1.2l0.4,0l0.1,1.2L181.9,241.6z M182,243.9l-0.1-1.2l0.4,0
					l0.1,1.2L182,243.9z M182.2,246.2l-0.1-1.2l0.4,0l0.1,1.2L182.2,246.2z M182.3,248.5l-0.1-1.2l0.4,0l0.1,1.2L182.3,248.5z
					 M182.5,250.8l-0.1-1.2l0.4,0l0.1,1.2L182.5,250.8z M182.6,253.2l-0.1-1.2l0.4,0l0.1,1.2L182.6,253.2z M182.8,255.5l-0.1-1.2
					l0.4,0l0.1,1.2L182.8,255.5z M182.9,257.8l-0.1-1.2l0.4,0l0.1,1.2L182.9,257.8z M183.1,260.1L183,259l0.4,0l0.1,1.2L183.1,260.1
					z M183.2,262.5l-0.1-1.2l0.4,0l0.1,1.2L183.2,262.5z M183.4,264.8l-0.1-1.2l0.4,0l0.1,1.2L183.4,264.8z M183.5,267.1l-0.1-1.2
					l0.4,0l0.1,1.2L183.5,267.1z M183.7,269.4l-0.1-1.2l0.4,0l0.1,1.2L183.7,269.4z M183.8,271.8l-0.1-1.2l0.4,0l0.1,1.2
					L183.8,271.8z M184,274.1l-0.1-1.2l0.4,0l0.1,1.2L184,274.1z M184.1,276.4l-0.1-1.2l0.4,0l0.1,1.2L184.1,276.4z M184.3,278.7
					l-0.1-1.2l0.4,0l0.1,1.2L184.3,278.7z M184.4,281.1l-0.1-1.2l0.4,0l0.1,1.2L184.4,281.1z M184.6,283.4l-0.1-1.2l0.4,0l0.1,1.2
					L184.6,283.4z M184.7,285.7l-0.1-1.2l0.4,0l0.1,1.2L184.7,285.7z M184.8,288l-0.1-1.2l0.4,0l0.1,1.2L184.8,288z M185,290.4
					l-0.1-1.2l0.4,0l0.1,1.2L185,290.4z M185.1,292.7l-0.1-1.2l0.4,0l0.1,1.2L185.1,292.7z M185.3,295l-0.1-1.2l0.4,0l0.1,1.2
					L185.3,295z M185.4,297.3l-0.1-1.2l0.4,0l0.1,1.2L185.4,297.3z M185.6,299.7l-0.1-1.2l0.4,0l0.1,1.2L185.6,299.7z M185.7,302
					l-0.1-1.2l0.4,0l0.1,1.2L185.7,302z M185.9,304.3l-0.1-1.2l0.4,0l0.1,1.2L185.9,304.3z M186,306.6l-0.1-1.2l0.4,0l0.1,1.2
					L186,306.6z"/>
				<polygon id="Fill-261" class="st9" points="171.9,223.4 171.6,222.9 171.9,222.7 172.2,223.2 				"/>
				<path id="Fill-263" class="st9" d="M187.1,308.3c0,0.5-0.3,0.8-0.8,0.9c-0.5,0-0.8-0.3-0.9-0.8c0-0.5,0.3-0.8,0.8-0.9
					C186.7,307.5,187.1,307.8,187.1,308.3"/>
				<path id="Fill-265" class="st9" d="M13,151.1l2.6,5.8c2.9,1,4.9,3.8,4.9,7.1c0,4.2-3.4,7.5-7.6,7.5s-7.6-3.4-7.6-7.5
					c0-3.2,2.1-6,4.9-7.1L13,151.1z"/>
				<path id="Fill-267" class="st9" d="M269.6,187.6l-2.6-5.8c-2.9-1-5-3.8-5-7.1c0-4.2,3.4-7.5,7.6-7.5c4.2,0,7.6,3.4,7.6,7.5
					c0,3.2-2.1,6-4.9,7.1L269.6,187.6z"/>
				<path id="Fill-269" class="st9" d="M173.9,219.8l-6-2.3c-2.8,1.3-6.2,0.8-8.5-1.5c-2.9-2.9-2.9-7.7,0-10.7c2.9-2.9,7.7-3,10.7,0
					c2.3,2.3,2.8,5.7,1.5,8.5L173.9,219.8z"/>
				<path id="Fill-271" class="st9" d="M143.9,184.4l-6-2.3c-2.8,1.3-6.2,0.8-8.5-1.5c-2.9-2.9-2.9-7.7,0-10.7c2.9-2.9,7.7-3,10.7,0
					c2.3,2.3,2.8,5.7,1.5,8.5L143.9,184.4z"/>
				<path id="Fill-273" class="st9" d="M266.1,227.8l-6-2.3c-2.8,1.3-6.2,0.8-8.5-1.5c-2.9-2.9-2.9-7.7,0-10.7c2.9-2.9,7.7-3,10.7,0
					c2.3,2.3,2.8,5.7,1.5,8.5L266.1,227.8z"/>
				<path id="Fill-275" class="st9" d="M278.5,336.9l2.6,5.8c2.9,1,4.9,3.8,4.9,7.1c0,4.2-3.4,7.5-7.6,7.5c-4.2,0-7.6-3.4-7.6-7.5
					c0-3.2,2.1-6,4.9-7.1L278.5,336.9z"/>
				<path id="Fill-277" class="st9" d="M59.7,313.9l6,2.3c2.8-1.3,6.2-0.8,8.5,1.5c2.9,2.9,2.9,7.7,0,10.7s-7.7,3-10.7,0
					c-2.3-2.3-2.8-5.7-1.5-8.5L59.7,313.9z"/>
				<path id="Fill-279" class="st9" d="M107.2,280.3l6,2.3c2.8-1.3,6.2-0.8,8.5,1.5c2.9,2.9,2.9,7.7,0,10.7c-2.9,2.9-7.7,3-10.7,0
					c-2.3-2.3-2.8-5.7-1.5-8.5L107.2,280.3z"/>
				<path id="Fill-281" class="st9" d="M142.2,333.5l5.8-2.6c1-2.9,3.8-4.9,7.1-4.9c4.2,0,7.5,3.4,7.5,7.5c0,4.2-3.4,7.5-7.5,7.5
					c-3.2,0-6-2.1-7.1-4.9L142.2,333.5z"/>
				<path id="Fill-283" class="st9" d="M186.5,355.4l5.8-2.6c1-2.9,3.8-4.9,7.1-4.9c4.2,0,7.5,3.4,7.5,7.5c0,4.2-3.4,7.5-7.5,7.5
					c-3.2,0-6-2.1-7.1-4.9L186.5,355.4z"/>
				<path id="Fill-285" class="st9" d="M151.6,453.9l2.6,5.8c2.9,1,4.9,3.8,4.9,7.1c0,4.2-3.4,7.5-7.6,7.5c-4.2,0-7.6-3.4-7.6-7.5
					c0-3.2,2.1-6,4.9-7.1L151.6,453.9z"/>
				<path id="Fill-287" class="st9" d="M37.9,7.6L43.7,5c1-2.9,3.8-4.9,7.1-4.9c4.2,0,7.5,3.4,7.5,7.5c0,4.2-3.4,7.5-7.5,7.5
					c-3.2,0-6-2.1-7.1-4.9L37.9,7.6z"/>
				<path id="Fill-289" class="st9" d="M137.8,36.5l2.3-6c-1.3-2.8-0.8-6.2,1.5-8.5c2.9-2.9,7.7-2.9,10.7,0c2.9,2.9,3,7.7,0,10.7
					c-2.3,2.3-5.7,2.8-8.5,1.5L137.8,36.5z"/>
				<path id="Fill-291" class="st9" d="M155.1,169.7l0.1-6.4c-2.2-2.2-2.9-5.6-1.5-8.5c1.8-3.8,6.3-5.4,10-3.6
					c3.8,1.8,5.4,6.3,3.6,10c-1.4,2.9-4.4,4.6-7.5,4.3L155.1,169.7z"/>
			</g>
			<g class="st10">
				<text transform="matrix(1 0 0 1 157.5406 160.6479)" class="st11 st12 st13">11</text>
			</g>
			<g class="st10">
				<text transform="matrix(1 0 0 1 132.5108 177.8877)" class="st11 st12 st13">7</text>
			</g>
			<g class="st10">
				<text transform="matrix(1 0 0 1 160.6302 213.6797)" class="st11 st12 st13">15</text>
			</g>
			<g class="st10">
				<text transform="matrix(1 0 0 1 274.5374 352.312)" class="st11 st12 st13">14</text>
			</g>
			<g class="st10">
				<text transform="matrix(1 0 0 1 253.0126 221.5537)" class="st11 st12 st13">13</text>
			</g>
			<g class="st10">
				<text transform="matrix(1 0 0 1 152.6234 336.1943)" class="st11 st12 st13">8</text>
			</g>
			<g class="st10">
				<text transform="matrix(1 0 0 1 65.0233 325.3838)" class="st11 st12 st13">18</text>
			</g>
			<path id="Fill-294" class="st9" d="M49,184.4l1.2-6.3c-1.8-2.5-1.9-5.9-0.1-8.6c2.4-3.4,7.1-4.3,10.5-1.9
				c3.4,2.4,4.3,7.1,1.9,10.5c-1.8,2.7-5.1,3.8-8.1,3L49,184.4z"/>
			<g class="st10">
				<text transform="matrix(1 0 0 1 52.3512 176.4878)" class="st11 st12 st14">10</text>
			</g>
			<g class="st10">
				<text transform="matrix(1 0 0 1 11.171 166.77)" class="st11 st12 st13">1</text>
			</g>
			<g class="st10">
				<text transform="matrix(1 0 0 1 48.4176 9.8979)" class="st11 st12 st13">2</text>
			</g>
			<path id="Fill-296" class="st9" d="M45.1,82.1l-6-2.3c-2.8,1.3-6.2,0.8-8.5-1.5c-2.9-2.9-2.9-7.7,0-10.7c2.9-2.9,7.7-3,10.7,0
				c2.3,2.3,2.8,5.7,1.5,8.5L45.1,82.1z"/>
			<g class="st10">
				<text transform="matrix(1 0 0 1 34.0318 75.1118)" class="st11 st12 st13">3</text>
			</g>
			<path id="Fill-298" class="st9" d="M75.1,115.6l2.8,5.8c2.9,1,5,3.7,5.1,6.9c0.1,4.2-3.2,7.6-7.4,7.7c-4.2,0.1-7.6-3.2-7.7-7.3
				c-0.1-3.2,1.9-6,4.7-7.2L75.1,115.6z"/>
			<g class="st10">
				<text transform="matrix(1 0 0 1 72.5411 130.6431)" class="st11 st12 st13">4</text>
			</g>
			<path id="Fill-300" class="st9" d="M94.4,122.8l-0.1-6.4c-2.2-2.1-3.1-5.5-1.8-8.4c1.6-3.8,6.1-5.6,9.9-4c3.8,1.6,5.6,6.1,4,9.9
				c-1.3,3-4.2,4.7-7.3,4.6L94.4,122.8z"/>
			<g class="st10">
				<text transform="matrix(1 0 0 1 97.1429 113.1279)" class="st11 st12 st13">6</text>
			</g>
			<g class="st10">
				<text transform="matrix(1 0 0 1 114.1273 292.1201)" class="st11 st12 st13">9</text>
			</g>
			<g class="st10">
				<text transform="matrix(1 0 0 1 195.7032 357.856)" class="st11 st12 st13">16</text>
			</g>
			<g class="st10">
				<text transform="matrix(1 0 0 1 148.1832 469.5278)" class="st11 st12 st13">17</text>
			</g>
			<g class="st10">
				<text transform="matrix(1 0 0 1 265.9537 177.2798)" class="st11 st12 st13">12</text>
			</g>
			<g class="st10">
				<text transform="matrix(1 0 0 1 144.3639 30.0029)" class="st11 st12 st13">5</text>
			</g>
		</g>
	</g>
</g>
</svg>
