<svg version="1.1" xmlns="http://www.w3.org/2000/svg" xmlns:xlink="http://www.w3.org/1999/xlink">
  <defs>
    <symbol id="phone-icon" viewBox="0 0 18.9 18.9">
      <title>Phone Icon</title>
      <path class="st0" d="M17.9,13.1c0.3,0,0.5,0.1,0.7,0.3c0.2,0.2,0.3,0.4,0.3,0.7v3.7c0,0.3-0.1,0.5-0.3,0.7s-0.4,0.3-0.7,0.3
      c-5,0-9.2-1.7-12.6-5.2S0,6,0,1c0-0.3,0.1-0.5,0.3-0.7S0.7,0,1,0h3.7C5,0,5.3,0.1,5.5,0.3S5.8,0.7,5.8,1c0,1.3,0.2,2.6,0.6,3.8
      c0.1,0.4,0,0.7-0.2,1L3.8,8.2c1.6,3.1,3.9,5.4,6.9,6.9l2.3-2.3c0.2-0.3,0.6-0.4,1-0.2C15.4,12.9,16.7,13.1,17.9,13.1z"/>
    </symbol>

    <symbol id="arrow-icon" viewBox="0 0 13 9">
      <title>Arrow Icon</title>
      <g transform="translate(-353.000000, -1162.000000)">
        <g id="Group-Copy-2" transform="translate(170.000000, 1153.000000)">
          <polygon id="Fill-1-Copy" class="st0" points="183,9 183,13.5 183,18 196,13.5 			"/>
        </g>
    	</g>
    </symbol>

    <symbol id="email-icon" viewBox="0 0 19.8 13.2">
      <title>Email Icon</title>
      <g transform="translate(-601.000000, -4222.000000)">
        <g class="st0">
          <path class="st1" d="M620.8,4235.2H601v-12.5l6.8,5.2l-3.5,4l0.1,0.1l4.1-3.6l2.5,1.9l2.5-1.9l4.1,3.6l0.1-0.1l-3.5-4l6.8-5.2
            V4235.2z M620.4,4222l-9.5,7.2l-9.5-7.2H620.4z"/>
        </g>
    	</g>
    </symbol>

    <symbol id="facebook-icon" viewBox="0 0 9 18">
      <title>Facebook Icon</title>
      <g id="Golf" transform="translate(-701.000000, -4220.000000)">
        <g class="st0">
          <path class="st1" d="M707,4226h3l-0.4,3H707v9h-3.9v-9H701v-3h2.1v-2c0-1.3,0.3-2.3,1-3s1.8-1,3.3-1h2.6v3h-1.6
            c-0.6,0-1,0.1-1.1,0.3s-0.3,0.5-0.3,0.9V4226z"/>
        </g>
	    </g>
    </symbol>

    <symbol id="checkmark-icon" viewBox="0 0 32 32">
      <path d="M27 4l-15 15-7-7-5 5 12 12 20-20z"></path>
    </symbol>
  </defs>
</svg>